SplineFontDB: 3.2
FontName: AtkinsonHyperPro-BoldItalic
FullName: Atkinson Hyperlegible Pro Bold Italic
FamilyName: Atkinson Hyperlegible Pro
Weight: Bold
Copyright: Copyright 2020 Braille Institute of America, Inc.
UComments: "Update by Jacob Perez+AAoA-https://jacobxperez.github.io/atkinson-hyperlegible-pro/"
Version: 1.5.1
ItalicAngle: -12
UnderlinePosition: -106
UnderlineWidth: 57
Ascent: 800
Descent: 200
InvalidEm: 0
sfntRevision: 0x00010000
LayerCount: 2
Layer: 0 0 "Back" 1
Layer: 1 0 "Fore" 0
XUID: [1021 466 782043844 14962]
StyleMap: 0x0021
FSType: 0
OS2Version: 4
OS2_WeightWidthSlopeOnly: 0
OS2_UseTypoMetrics: 1
CreationTime: 1618935638
ModificationTime: 1701845146
PfmFamily: 33
TTFWeight: 700
TTFWidth: 5
LineGap: 0
VLineGap: 0
Panose: 0 0 0 0 0 0 0 0 0 0
OS2TypoAscent: 950
OS2TypoAOffset: 0
OS2TypoDescent: -290
OS2TypoDOffset: 0
OS2TypoLinegap: 0
OS2WinAscent: 950
OS2WinAOffset: 0
OS2WinDescent: 290
OS2WinDOffset: 0
HheadAscent: 950
HheadAOffset: 0
HheadDescent: -290
HheadDOffset: 0
OS2SubXSize: 650
OS2SubYSize: 699
OS2SubXOff: 0
OS2SubYOff: 140
OS2SupXSize: 650
OS2SupYSize: 699
OS2SupXOff: 0
OS2SupYOff: 479
OS2StrikeYSize: 49
OS2StrikeYPos: 258
OS2CapHeight: 668
OS2XHeight: 496
OS2FamilyClass: 2048
OS2Vendor: 'NONE'
OS2CodePages: 20000003.00000000
OS2UnicodeRanges: 800000ef.0000204b.00000000.00000000
Lookup: 4 0 1 "'liga' Standard Ligatures lookup 0" { "'liga' Standard Ligatures lookup 0-1"  } ['liga' ('DFLT' <'dflt' > 'grek' <'dflt' > 'latn' <'MOL ' 'dflt' > ) ]
Lookup: 1 0 0 "'zero' Slashed Zero lookup 0" { "'zero' Slashed Zero lookup 0-1"  } ['zero' ('DFLT' <'dflt' > 'grek' <'dflt' > 'latn' <'MOL ' 'dflt' > ) ]
Lookup: 1 0 0 "'aalt' Access All Alternates lookup 0" { "'aalt' Access All Alternates lookup 0 subtable"  } ['aalt' ('DFLT' <'dflt' > 'grek' <'dflt' > 'latn' <'dflt' > ) ]
Lookup: 3 0 0 "'aalt' Access All Alternates lookup 1" { "'aalt' Access All Alternates lookup 1 subtable"  } ['aalt' ('DFLT' <'dflt' > 'grek' <'dflt' > 'latn' <'dflt' > ) ]

StartChar: zero
Encoding: 48 48 5
Width: 659
GlyphClass: 1
Flags: W
HStem: -12 113<253.252 374.404> 567 113<296.794 422.569>
VStem: 47 155<156.791 426.089> 470 155<243.736 512.35>
LayerCount: 2
Fore
SplineSet
202 273 m 0
 202 162 241 101 312 101 c 0
 339 101 363 110 385 128 c 1
 230 450 l 1
 213 399 202 330 202 273 c 0
470 396 m 0
 470 508 432 567 360 567 c 0
 335 567 312 559 291 544 c 1
 444 227 l 1
 459 272 470 342 470 396 c 0
625 398 m 0
 625 147 499 -12 300 -12 c 0
 137 -12 47 89 47 271 c 0
 47 523 172 680 372 680 c 0
 536 680 625 581 625 398 c 0
EndSplineSet
Substitution2: "'zero' Slashed Zero lookup 0-1" zero.alt1
Substitution2: "'aalt' Access All Alternates lookup 0 subtable" zero.alt1
Substitution2: "'tnum' Tabular Numbers lookup 14 subtable" zero.tf
EndChar

StartChar: one
Encoding: 49 49 6
Width: 455
GlyphClass: 1
Flags: W
HStem: 0 21G<132 291.222> 449 122<98 226.791> 648 20G<286.5 428>
VStem: 132 155<0 155>
LayerCount: 2
Fore
SplineSet
98 571 m 1
 214 571 263 593 310 668 c 1
 428 668 l 1
 287 0 l 1
 132 0 l 1
 228 449 l 1
 72 449 l 1
 98 571 l 1
EndSplineSet
Substitution2: "'tnum' Tabular Numbers lookup 14 subtable" one.tf
Substitution2: "'sups' Superscript lookup 9 subtable" uni00B9
AlternateSubs2: "'aalt' Access All Alternates lookup 1 subtable" uni00B9 one.tf
EndChar

StartChar: two
Encoding: 50 50 7
Width: 587
GlyphClass: 1
Flags: W
HStem: 0 125<204 478> 568 112<264.453 394.742>
VStem: 420 158<423.672 544.299>
LayerCount: 2
Fore
SplineSet
578 502 m 0
 578 375 453 248 204 125 c 1
 504 125 l 1
 478 0 l 1
 -35 0 l 1
 -9 125 l 1
 280 274 420 392 420 490 c 0
 420 537 386 568 334 568 c 0
 284 568 237 539 208 489 c 1
 81 539 l 1
 129 625 234 680 350 680 c 0
 486 680 578 608 578 502 c 0
EndSplineSet
Substitution2: "'tnum' Tabular Numbers lookup 14 subtable" two.tf
Substitution2: "'sups' Superscript lookup 9 subtable" uni00B2
AlternateSubs2: "'aalt' Access All Alternates lookup 1 subtable" uni00B2 two.tf
EndChar

StartChar: three
Encoding: 51 51 8
Width: 619
GlyphClass: 1
Flags: W
HStem: -12 113<194.643 342.358> 291 106<227 330.995> 567 113<245.487 394.084>
VStem: 381 166<136.062 248.139> 419 160<439.228 541.055>
LayerCount: 2
Fore
SplineSet
579 513 m 0xe8
 579 433 541 379 465 349 c 1
 518 319 547 273 547 219 c 0
 547 97 415 -12 267 -12 c 0
 132 -12 46 38 6 140 c 1
 155 190 l 1
 164 133 205 101 268 101 c 0
 334 101 381 138 381 190 c 0xf0
 381 258 324 291 205 291 c 1
 227 397 l 1
 352 397 419 429 419 488 c 0
 419 537 383 567 326 567 c 0
 261 567 219 539 204 485 c 1
 77 535 l 1
 129 634 214 680 344 680 c 0
 484 680 579 613 579 513 c 0xe8
EndSplineSet
Substitution2: "'tnum' Tabular Numbers lookup 14 subtable" three.tf
Substitution2: "'sups' Superscript lookup 9 subtable" uni00B3
AlternateSubs2: "'aalt' Access All Alternates lookup 1 subtable" uni00B3 three.tf
EndChar

StartChar: four
Encoding: 52 52 9
Width: 646
GlyphClass: 1
Flags: W
HStem: 0 21G<294 454.255> 141 134<193 324 508 572> 648 20G<401.096 592>
LayerCount: 2
Fore
SplineSet
193 275 m 1
 352 275 l 1
 394 469 l 1
 193 275 l 1
294 0 m 1
 324 141 l 1
 -16 141 l 1
 7 252 l 1
 421 668 l 1
 592 668 l 1
 508 275 l 1
 600 275 l 1
 572 141 l 1
 480 141 l 1
 450 0 l 1
 294 0 l 1
EndSplineSet
Substitution2: "'tnum' Tabular Numbers lookup 14 subtable" four.tf
Substitution2: "'sups' Superscript lookup 9 subtable" uni2074
AlternateSubs2: "'aalt' Access All Alternates lookup 1 subtable" four.tf uni2074
EndChar

StartChar: five
Encoding: 53 53 10
Width: 616
GlyphClass: 1
Flags: W
HStem: -12 112<199.46 340.678> 337 111<231.03 345.32> 544 124<259 560>
VStem: 388 156<149.564 293.823>
LayerCount: 2
Fore
SplineSet
544 242 m 0
 544 90 433 -12 268 -12 c 0
 143 -12 43 49 17 142 c 1
 156 189 l 1
 166 136 211 100 269 100 c 0
 340 100 388 149 388 223 c 0
 388 292 344 337 277 337 c 0
 230 337 188 314 168 276 c 1
 41 327 l 1
 156 668 l 1
 586 668 l 1
 560 544 l 1
 259 544 l 1
 217 419 l 1
 249 438 291 448 333 448 c 0
 460 448 544 366 544 242 c 0
EndSplineSet
Substitution2: "'tnum' Tabular Numbers lookup 14 subtable" five.tf
Substitution2: "'aalt' Access All Alternates lookup 0 subtable" five.tf
EndChar

StartChar: six
Encoding: 54 54 11
Width: 629
GlyphClass: 1
Flags: W
HStem: -12 113<230.819 354.982> 339 113<253.759 372.528> 570 110<290.637 416.255>
VStem: 43 149<140.243 291.62> 407 155<153.132 303.657>
LayerCount: 2
Fore
SplineSet
192 209 m 0
 192 144 233 101 293 101 c 0
 358 101 406 155 407 227 c 0
 407 299 372 339 308 339 c 0
 236 339 192 290 192 209 c 0
562 243 m 0
 562 97 446 -12 289 -12 c 0
 130 -12 43 84 43 258 c 0
 43 507 177 680 370 680 c 0
 461 680 530 646 567 583 c 1
 429 535 l 1
 414 558 388 570 352 570 c 0
 284 570 234 509 220 409 c 1
 260 440 296 452 349 452 c 0
 474 452 562 366 562 243 c 0
EndSplineSet
Substitution2: "'tnum' Tabular Numbers lookup 14 subtable" six.tf
Substitution2: "'aalt' Access All Alternates lookup 0 subtable" six.tf
EndChar

StartChar: seven
Encoding: 55 55 12
Width: 561
GlyphClass: 1
Flags: W
HStem: 0 21G<13 207.738> 543 125<80 400>
LayerCount: 2
Fore
SplineSet
13 0 m 1
 400 543 l 1
 53 543 l 1
 80 668 l 1
 593 668 l 1
 567 543 l 1
 194 0 l 1
 13 0 l 1
EndSplineSet
Substitution2: "'tnum' Tabular Numbers lookup 14 subtable" seven.tf
Substitution2: "'aalt' Access All Alternates lookup 0 subtable" seven.tf
EndChar

StartChar: eight
Encoding: 56 56 13
Width: 623
GlyphClass: 1
Flags: W
HStem: -12 126<202.173 357.175> 294 123<260.434 358.171> 555 125<269.6 366.635>
VStem: 12 155<147.185 256.707> 121 125<431.323 529.711> 382 126<442.15 539.564> 402 154<156.446 264.467>
LayerCount: 2
Fore
SplineSet
167 198 m 0xf2
 167 148 213 114 280 114 c 0
 352 114 402 155 402 215 c 0
 402 263 359 294 291 294 c 0
 214 294 167 257 167 198 c 0xf2
246 479 m 0xec
 246 444 272 417 307 417 c 0
 347 417 382 453 382 494 c 0
 382 529 356 555 321 555 c 0
 280 555 246 520 246 479 c 0xec
556 211 m 0xe2
 556 80 440 -12 274 -12 c 0
 116 -12 12 66 12 186 c 0xf2
 12 269 53 328 147 378 c 1
 129 411 121 443 121 477 c 0
 121 591 214 680 334 680 c 0
 430 680 508 605 508 512 c 0xec
 508 464 485 403 455 373 c 1
 524 337 556 287 556 211 c 0xe2
EndSplineSet
Substitution2: "'tnum' Tabular Numbers lookup 14 subtable" eight.tf
Substitution2: "'aalt' Access All Alternates lookup 0 subtable" eight.tf
EndChar

StartChar: nine
Encoding: 57 57 14
Width: 576
GlyphClass: 1
Flags: W
HStem: 0 21G<106 283.5> 546 135<257.54 385.987>
VStem: 62 140<364.724 491.345> 417 139<387.324 516.383>
LayerCount: 2
Fore
SplineSet
202 422 m 0
 202 371 240 336 297 336 c 0
 363 336 417 388 417 452 c 0
 417 510 382 546 327 546 c 0
 256 546 202 492 202 422 c 0
332 681 m 0
 460 681 556 591 556 472 c 0
 556 406 543 377 458 256 c 0
 425 209 287 10 280 0 c 1
 106 0 l 1
 271 222 l 1
 254 222 l 1
 142 226 62 308 62 420 c 0
 62 562 185 681 332 681 c 0
EndSplineSet
Substitution2: "'tnum' Tabular Numbers lookup 14 subtable" nine.tf
Substitution2: "'aalt' Access All Alternates lookup 0 subtable" nine.tf
EndChar

StartChar: A
Encoding: 65 65 15
AltUni2: 000391.ffffffff.0
Width: 698
GlyphClass: 2
Flags: W
HStem: 0 21G<-65 132.092 455.311 623> 119 128<255 427> 648 20G<317.204 515.323>
AnchorPoint: "Anchor-2" 623 0 basechar 0
AnchorPoint: "Anchor-1" 427 668 basechar 0
AnchorPoint: "Anchor-0" 296 0 basechar 0
LayerCount: 2
Fore
SplineSet
255 247 m 1
 427 247 l 1
 395 501 l 1
 255 247 l 1
-65 0 m 1
 329 668 l 1
 512 668 l 1
 623 0 l 1
 458 0 l 1
 442 119 l 1
 187 119 l 1
 121 0 l 1
 -65 0 l 1
EndSplineSet
Substitution2: "Single Substitution lookup 12 subtable" ordfeminine
Substitution2: "'aalt' Access All Alternates lookup 0 subtable" ordfeminine
EndChar

StartChar: B
Encoding: 66 66 16
AltUni2: 000392.ffffffff.0
Width: 643
GlyphClass: 1
Flags: W
HStem: 0 131<166 392.639> 282 122<224 415.447> 539 129<253 452.396>
VStem: 433 167<170.131 263.853> 464 169<435.684 573.666>
AnchorPoint: "Anchor-0" 270 0 basechar 0
AnchorPoint: "Anchor-1" 336 668 basechar 0
LayerCount: 2
Fore
SplineSet
433 222 m 0xf0
 433 260 399 282 339 282 c 2
 198 282 l 1
 166 131 l 1
 313 131 l 2
 382 131 433 169 433 222 c 0xf0
464 484 m 0xe8
 464 519 438 539 391 539 c 2
 253 539 l 1
 224 404 l 1
 363 404 l 2
 424 404 464 436 464 484 c 0xe8
600 229 m 0xf0
 600 86 481 0 283 0 c 2
 -23 0 l 1
 119 668 l 1
 413 668 l 2
 562 668 633 621 633 524 c 0xe8
 633 448 593 387 523 355 c 1
 574 332 600 289 600 229 c 0xf0
EndSplineSet
EndChar

StartChar: C
Encoding: 67 67 17
Width: 673
GlyphClass: 2
Flags: W
HStem: -12 132<263.447 420.795> 550 130<323.593 482.465>
VStem: 32 168<188.146 404.944>
AnchorPoint: "Anchor-1" 428 668 basechar 0
AnchorPoint: "Anchor-0" 311 0 basechar 0
LayerCount: 2
Fore
SplineSet
616 141 m 1
 551 40 451 -12 322 -12 c 0
 141 -12 32 93 32 265 c 0
 32 510 189 680 417 680 c 0
 547 680 639 624 671 525 c 1
 525 476 l 1
 504 526 464 550 401 550 c 0
 288 550 200 433 200 283 c 0
 200 181 251 121 338 120 c 0
 396 120 442 144 480 194 c 1
 616 141 l 1
EndSplineSet
EndChar

StartChar: D
Encoding: 68 68 18
Width: 690
GlyphClass: 2
Flags: W
HStem: 0 133<167 344.654> 537 131<253 427.739>
VStem: 491 168<280.049 480.271>
AnchorPoint: "Anchor-1" 391 668 basechar 0
AnchorPoint: "Anchor-0" 292 0 basechar 0
LayerCount: 2
Fore
SplineSet
167 133 m 1
 230 133 l 2
 391 133 491 232 491 393 c 0
 491 498 442 537 311 537 c 2
 253 537 l 1
 167 133 l 1
-23 0 m 1
 119 668 l 1
 313 668 l 2
 536 668 659 571 659 395 c 0
 659 196 545 58 347 16 c 0
 294 5 246 0 200 0 c 2
 -23 0 l 1
EndSplineSet
EndChar

StartChar: E
Encoding: 69 69 19
AltUni2: 000395.ffffffff.0
Width: 582
GlyphClass: 2
Flags: W
HStem: 0 139<168 495> 274 139<226 414> 529 139<251 607>
AnchorPoint: "Anchor-2" 463 0 basechar 0
AnchorPoint: "Anchor-1" 381 668 basechar 0
AnchorPoint: "Anchor-0" 238 0 basechar 0
LayerCount: 2
Fore
SplineSet
-23 0 m 1
 119 668 l 1
 637 668 l 1
 607 529 l 1
 251 529 l 1
 226 413 l 1
 443 413 l 1
 414 274 l 1
 197 274 l 1
 168 139 l 1
 524 139 l 1
 495 0 l 1
 -23 0 l 1
EndSplineSet
EndChar

StartChar: F
Encoding: 70 70 20
Width: 545
GlyphClass: 1
Flags: W
HStem: 0 21G<-23 142.307> 274 139<226 517> 529 139<251 571>
VStem: -23 161<0 161>
AnchorPoint: "Anchor-1" 350 668 basechar 0
LayerCount: 2
Fore
SplineSet
-23 0 m 1
 119 668 l 1
 600 668 l 1
 571 529 l 1
 251 529 l 1
 226 413 l 1
 546 413 l 1
 517 274 l 1
 197 274 l 1
 138 0 l 1
 -23 0 l 1
EndSplineSet
EndChar

StartChar: G
Encoding: 71 71 21
Width: 733
GlyphClass: 2
Flags: W
HStem: -12 129<260.904 407.606> 0 21G<508.378 621.286> 250 128<386 509> 550 130<319.835 483.908>
VStem: 31 168<181.867 402.896>
AnchorPoint: "Anchor-1" 440 668 basechar 0
AnchorPoint: "Anchor-0" 304 0 basechar 0
LayerCount: 2
Fore
SplineSet
199 278 m 0xb8
 199 175 252 117 344 117 c 0xb8
 425 117 491 164 505 231 c 2
 509 250 l 1
 359 250 l 1
 386 378 l 1
 698 378 l 1
 617 0 l 1
 510 0 l 1x78
 504 74 l 1
 449 17 375 -12 282 -12 c 0
 132 -12 31 98 31 261 c 0
 31 508 192 680 422 680 c 0
 550 680 637 630 677 535 c 1
 529 478 l 1
 513 521 461 550 400 550 c 0
 285 550 199 434 199 278 c 0xb8
EndSplineSet
EndChar

StartChar: H
Encoding: 72 72 22
AltUni2: 000397.ffffffff.0
Width: 695
GlyphClass: 1
Flags: W
HStem: 0 21G<-23 142.307 414 579.251> 274 139<226 472> 648 20G<114.749 279 551.765 717>
VStem: -23 161<0 161> 119 160<508 668> 414 161<0 161> 556 161<507 668>
AnchorPoint: "Anchor-0" 280 0 basechar 0
AnchorPoint: "Anchor-1" 413 668 basechar 0
LayerCount: 2
Fore
SplineSet
-23 0 m 1xf4
 119 668 l 1
 279 668 l 1
 226 413 l 1
 502 413 l 1
 556 668 l 1
 717 668 l 1xea
 575 0 l 1
 414 0 l 1
 472 274 l 1
 197 274 l 1
 138 0 l 1
 -23 0 l 1xf4
EndSplineSet
EndChar

StartChar: I
Encoding: 73 73 23
AltUni2: 000399.ffffffff.0
Width: 459
GlyphClass: 2
Flags: W
HStem: 0 124<13 105 267 331> 544 124<129 195 355 447>
AnchorPoint: "Anchor-2" 242 0 basechar 0
AnchorPoint: "Anchor-1" 301 668 basechar 0
AnchorPoint: "Anchor-0" 151 0 basechar 0
LayerCount: 2
Fore
SplineSet
-13 0 m 1
 13 124 l 1
 105 124 l 1
 195 544 l 1
 103 544 l 1
 129 668 l 1
 474 668 l 1
 447 544 l 1
 355 544 l 1
 267 124 l 1
 358 124 l 1
 331 0 l 1
 -13 0 l 1
EndSplineSet
EndChar

StartChar: J
Encoding: 74 74 24
Width: 566
GlyphClass: 1
Flags: W
HStem: -12 125<148.438 280.562> 648 20G<421.777 588>
VStem: 426 162<506 668>
AnchorPoint: "Anchor-1" 507 668 basechar 0
LayerCount: 2
Fore
SplineSet
128 203 m 0
 128 141 154 113 212 113 c 0
 284 113 318 151 339 256 c 1
 426 668 l 1
 588 668 l 1
 500 256 l 2
 459 65 372 -12 195 -12 c 0
 66 -12 -22 63 -28 176 c 1
 129 228 l 1
 128 221 128 221 128 203 c 0
EndSplineSet
EndChar

StartChar: K
Encoding: 75 75 25
AltUni2: 00039a.ffffffff.0
Width: 657
GlyphClass: 2
Flags: W
HStem: 0 21G<-23 142.264 400.819 577> 648 20G<114.749 279 478.521 715>
VStem: -23 161<0 161> 119 160<508 668>
AnchorPoint: "Anchor-1" 400 668 basechar 0
AnchorPoint: "Anchor-0" 265 0 basechar 0
LayerCount: 2
Fore
SplineSet
-23 0 m 1xe0
 119 668 l 1
 279 668 l 1xd0
 229 426 l 1
 501 668 l 1
 715 668 l 1
 384 377 l 1
 577 0 l 1
 411 0 l 1
 270 277 l 1
 180 197 l 1
 138 0 l 1
 -23 0 l 1xe0
EndSplineSet
EndChar

StartChar: L
Encoding: 76 76 26
Width: 543
GlyphClass: 2
Flags: W
HStem: 0 139<168 458> 648 20G<114.749 279>
VStem: 119 160<508 668>
AnchorPoint: "Anchor-1" 216 668 basechar 0
AnchorPoint: "Anchor-0" 219 0 basechar 0
LayerCount: 2
Fore
SplineSet
-23 0 m 1
 119 668 l 1
 279 668 l 1
 168 139 l 1
 488 139 l 1
 458 0 l 1
 -23 0 l 1
EndSplineSet
EndChar

StartChar: M
Encoding: 77 77 27
AltUni2: 00039c.ffffffff.0
Width: 858
GlyphClass: 1
Flags: W
HStem: 0 21G<-23 138.24 292.236 436.353 581 741.281> 648 20G<114.749 357.6 624.853 880>
VStem: -23 157<0 157> 581 156<0 156>
AnchorPoint: "Anchor-1" 487 668 basechar 0
LayerCount: 2
Fore
SplineSet
-23 0 m 1
 119 668 l 1
 356 668 l 1
 394 193 l 1
 635 668 l 1
 880 668 l 1
 737 0 l 1
 581 0 l 1
 690 510 l 1
 426 0 l 1
 294 0 l 1
 247 533 l 1
 134 0 l 1
 -23 0 l 1
EndSplineSet
EndChar

StartChar: N
Encoding: 78 78 28
AltUni2: 00039d.ffffffff.0
Width: 715
GlyphClass: 2
Flags: W
HStem: 0 21G<-23 137.247 389.402 599.251> 648 20G<114.749 324.598 577.711 737>
VStem: -23 156<0 156> 582 155<513 668>
AnchorPoint: "Anchor-1" 456 668 basechar 0
AnchorPoint: "Anchor-0" 285 0 basechar 0
LayerCount: 2
Fore
SplineSet
-23 0 m 1
 119 668 l 1
 318 668 l 1
 478 183 l 1
 582 668 l 1
 737 668 l 1
 595 0 l 1
 396 0 l 1
 236 485 l 1
 133 0 l 1
 -23 0 l 1
EndSplineSet
EndChar

StartChar: O
Encoding: 79 79 29
AltUni2: 00039f.ffffffff.0
Width: 763
GlyphClass: 2
Flags: W
HStem: -12 130<274.084 435.598> 550 130<332.615 492.994>
VStem: 32 169<192.268 402.666> 564 168<266.634 473.093>
AnchorPoint: "Anchor-2" 436 0 basechar 0
AnchorPoint: "Anchor-1" 456 668 basechar 0
AnchorPoint: "Anchor-0" 329 0 basechar 0
LayerCount: 2
Fore
SplineSet
201 286 m 0
 201 184 259 118 349 118 c 0
 471 118 564 231 564 379 c 0
 564 482 505 550 414 550 c 0
 295 550 201 434 201 286 c 0
732 393 m 0
 732 160 563 -12 335 -12 c 0
 149 -12 32 97 32 269 c 0
 32 504 201 680 426 680 c 0
 616 680 732 571 732 393 c 0
EndSplineSet
Substitution2: "Single Substitution lookup 12 subtable" ordmasculine
Substitution2: "'aalt' Access All Alternates lookup 0 subtable" ordmasculine
EndChar

StartChar: P
Encoding: 80 80 30
AltUni2: 0003a1.ffffffff.0
Width: 628
GlyphClass: 1
Flags: W
HStem: 0 21G<-23 142.224> 232 131<216 424.101> 535 133<252 448.072>
VStem: -23 161<0 161> 470 168<407.225 513.022>
AnchorPoint: "Anchor-1" 348 668 basechar 0
LayerCount: 2
Fore
SplineSet
319 363 m 2
 418 363 470 399 470 468 c 0
 470 513 432 535 355 535 c 2
 252 535 l 1
 216 363 l 1
 319 363 l 2
638 490 m 0
 638 321 522 232 304 232 c 2
 187 232 l 1
 138 0 l 1
 -23 0 l 1
 119 668 l 1
 379 668 l 2
 556 668 638 612 638 490 c 0
EndSplineSet
EndChar

StartChar: Q
Encoding: 81 81 31
Width: 774
GlyphClass: 1
Flags: W
HStem: 14 131<279.437 430.999> 576 130<337.459 496.931>
VStem: 37 169<218.672 423.803> 569 168<293.099 500.623>
LayerCount: 2
Fore
SplineSet
206 311 m 0
 206 211 265 145 354 145 c 0
 381 145 407 151 433 162 c 1
 330 285 l 1
 421 363 l 1
 524 243 l 1
 552 291 569 351 569 405 c 0
 569 509 510 576 419 576 c 0
 300 576 206 460 206 311 c 0
737 420 m 0
 737 308 695 201 622 127 c 1
 709 25 l 1
 617 -55 l 1
 523 56 l 1
 469 28 406 14 340 14 c 0
 155 14 37 124 37 295 c 0
 37 531 205 706 431 706 c 0
 553 706 647 660 698 576 c 0
 724 533 737 481 737 420 c 0
EndSplineSet
EndChar

StartChar: R
Encoding: 82 82 32
Width: 644
GlyphClass: 2
Flags: W
HStem: 0 21G<-23 142.286 380.841 557> 535 133<252 445.192>
VStem: -23 161<0 161> 463 167<415.705 516.349>
AnchorPoint: "Anchor-1" 380 668 basechar 0
AnchorPoint: "Anchor-0" 269 0 basechar 0
LayerCount: 2
Fore
SplineSet
463 473 m 0
 463 517 429 535 346 535 c 2
 252 535 l 1
 220 384 l 1
 323 384 l 2
 422 384 463 410 463 473 c 0
369 668 m 2
 546 668 630 610 630 489 c 0
 630 360 563 290 420 269 c 1
 557 0 l 1
 391 0 l 1
 263 252 l 1
 192 252 l 1
 138 0 l 1
 -23 0 l 1
 119 668 l 1
 369 668 l 2
EndSplineSet
EndChar

StartChar: S
Encoding: 83 83 33
Width: 642
GlyphClass: 2
Flags: W
HStem: -12 126<222.775 396.108> 551 129<244.026 411.127>
VStem: 61 163<447.414 530.597> 424 164<141.242 223.783>
AnchorPoint: "Anchor-1" 370 668 basechar 0
AnchorPoint: "Anchor-0" 288 0 basechar 0
LayerCount: 2
Fore
SplineSet
588 206 m 0
 588 77 473 -12 306 -12 c 0
 161 -12 52 50 10 157 c 1
 165 209 l 1
 179 151 237 114 313 114 c 0
 378 114 424 141 424 179 c 0
 424 220 396 239 280 275 c 0
 116 326 61 376 61 475 c 0
 61 599 171 680 341 680 c 0
 463 680 558 628 606 535 c 1
 451 483 l 1
 436 524 388 551 329 551 c 0
 264 551 224 529 224 492 c 0
 224 450 255 429 362 399 c 0
 535 351 588 306 588 206 c 0
EndSplineSet
EndChar

StartChar: T
Encoding: 84 84 34
AltUni2: 0003a4.ffffffff.0
Width: 617
GlyphClass: 2
Flags: W
HStem: 0 21G<158 323.197> 529 139<87 270 430 644>
VStem: 158 161<0 161>
AnchorPoint: "Anchor-1" 395 668 basechar 0
AnchorPoint: "Anchor-0" 253 0 basechar 0
LayerCount: 2
Fore
SplineSet
158 0 m 1
 270 529 l 1
 57 529 l 1
 87 668 l 1
 673 668 l 1
 644 529 l 1
 430 529 l 1
 319 0 l 1
 158 0 l 1
EndSplineSet
EndChar

StartChar: U
Encoding: 85 85 35
Width: 679
GlyphClass: 2
Flags: W
HStem: -12 129<214.998 378.22> 648 20G<115.691 281 535.733 701>
VStem: 26 162<144.115 333.414> 120 161<507 668> 540 161<507 668>
AnchorPoint: "Anchor-2" 376 0 basechar 0
AnchorPoint: "Anchor-1" 414 668 basechar 0
AnchorPoint: "Anchor-0" 287 0 basechar 0
LayerCount: 2
Fore
SplineSet
188 204 m 0xe8
 188 144 221 117 294 117 c 0
 388 117 433 162 457 279 c 2
 540 668 l 1
 701 668 l 1
 621 292 l 2
 572 63 485 -12 266 -12 c 0
 106 -12 26 55 26 187 c 0xe8
 26 217 30 250 39 292 c 2
 120 668 l 1
 281 668 l 1xd8
 198 279 l 2
 190 237 188 222 188 204 c 0xe8
EndSplineSet
EndChar

StartChar: V
Encoding: 86 86 36
Width: 662
GlyphClass: 1
Flags: W
HStem: 0 21G<163.485 367.018> 648 20G<82 241.996 535.532 724>
VStem: 82 158<510 668>
LayerCount: 2
Fore
SplineSet
166 0 m 1
 82 668 l 1
 240 668 l 1
 289 177 l 1
 546 668 l 1
 724 668 l 1
 356 0 l 1
 166 0 l 1
EndSplineSet
EndChar

StartChar: W
Encoding: 87 87 37
Width: 889
GlyphClass: 1
Flags: W
HStem: 0 21G<100.431 274.596 468 657.072> 648 20G<82 235 410.525 588 774.577 951>
VStem: 82 153<421.895 668> 468 120<205 470>
AnchorPoint: "Anchor-1" 494 668 basechar 0
LayerCount: 2
Fore
SplineSet
101 0 m 1
 82 668 l 1
 235 668 l 1
 230 222 l 1
 419 668 l 1
 588 668 l 1
 588 205 l 1
 783 668 l 1
 951 668 l 1
 648 0 l 1
 468 0 l 1
 468 470 l 1
 266 0 l 1
 101 0 l 1
EndSplineSet
EndChar

StartChar: X
Encoding: 88 88 38
AltUni2: 0003a7.ffffffff.0
Width: 706
GlyphClass: 1
Flags: W
HStem: 0 21G<-60 169.286 438 621> 648 20G<115 296.052 539.571 768>
AnchorPoint: "Anchor-1" 410 668 basechar 0
AnchorPoint: "Anchor-0" 306 0 basechar 0
LayerCount: 2
Fore
SplineSet
-60 0 m 1
 270 356 l 1
 115 668 l 1
 286 668 l 1
 382 477 l 1
 558 668 l 1
 768 668 l 1
 456 331 l 1
 621 0 l 1
 448 0 l 1
 343 210 l 1
 151 0 l 1
 -60 0 l 1
EndSplineSet
EndChar

StartChar: Y
Encoding: 89 89 39
AltUni2: 0003a5.ffffffff.0
Width: 700
GlyphClass: 2
Flags: W
HStem: 0 21G<191 358.149> 648 20G<82 259.209 542.188 762>
VStem: 191 163<0 163>
AnchorPoint: "Anchor-1" 403 668 basechar 0
AnchorPoint: "Anchor-0" 297 0 basechar 0
LayerCount: 2
Fore
SplineSet
191 0 m 1
 242 241 l 1
 82 668 l 1
 253 668 l 1
 339 391 l 1
 558 668 l 1
 762 668 l 1
 404 241 l 1
 354 0 l 1
 191 0 l 1
EndSplineSet
EndChar

StartChar: Z
Encoding: 90 90 40
AltUni2: 000396.ffffffff.0
Width: 632
GlyphClass: 2
Flags: W
HStem: 0 139<221 530> 529 139<130 411>
AnchorPoint: "Anchor-1" 407 668 basechar 0
AnchorPoint: "Anchor-0" 263 0 basechar 0
LayerCount: 2
Fore
SplineSet
-38 0 m 1
 -12 121 l 1
 411 529 l 1
 100 529 l 1
 130 668 l 1
 668 668 l 1
 642 547 l 1
 221 139 l 1
 560 139 l 1
 530 0 l 1
 -38 0 l 1
EndSplineSet
EndChar

StartChar: a
Encoding: 97 97 41
Width: 545
GlyphClass: 2
Flags: W
HStem: -12 103<87.5 234.442> 0 21G<295.305 441> 407 103<201.29 333.586>
VStem: -18 161<102.977 181.615> 344 150<314.899 396.174>
AnchorPoint: "Anchor-2" 446 0 basechar 0
AnchorPoint: "Anchor-1" 298 496 basechar 0
AnchorPoint: "Anchor-0" 219 0 basechar 0
LayerCount: 2
Fore
SplineSet
143 138 m 0xb8
 143 110 169 91 208 91 c 0
 268 91 304 129 325 213 c 2
 328 225 l 1
 273 220 228 211 194 198 c 0
 160 185 143 165 143 138 c 0xb8
292 59 m 1
 249 7 204 -12 130 -12 c 0xb8
 45 -12 -18 43 -18 118 c 0
 -18 233 85 290 338 315 c 1
 342 333 344 343 344 354 c 0
 344 390 321 407 272 407 c 0
 225 407 187 385 170 348 c 1
 53 394 l 1
 104 473 181 510 293 510 c 0
 418 510 494 451 494 353 c 0
 494 256 441 97 441 0 c 1
 297 0 l 1x78
 292 59 l 1
EndSplineSet
Substitution2: "Single Substitution lookup 12 subtable" ordfeminine
Substitution2: "'aalt' Access All Alternates lookup 0 subtable" ordfeminine
EndChar

StartChar: b
Encoding: 98 98 42
Width: 592
GlyphClass: 1
Flags: W
HStem: -12 117<207.813 329.322> 0 21G<-21 125.303> 392 118<287.695 428> 648 20G<116.749 276>
VStem: 121 155<513 668> 395 159<177.994 359.96>
AnchorPoint: "Anchor-0" 293 0 basechar 0
AnchorPoint: "Anchor-1" 380 496 basechar 0
LayerCount: 2
Fore
SplineSet
175 208 m 0xbc
 175 145 210 105 266 105 c 0
 340 105 395 177 395 275 c 0
 395 350 365 392 310 392 c 0
 232 392 175 314 175 208 c 0xbc
554 303 m 0
 554 123 442 -12 293 -12 c 0xbc
 232 -12 182 15 149 66 c 1
 115 0 l 1
 -21 0 l 1x7c
 121 668 l 1
 276 668 l 1
 227 436 l 1
 262 483 315 510 373 510 c 0
 483 510 554 428 554 303 c 0
EndSplineSet
EndChar

StartChar: c
Encoding: 99 99 43
Width: 531
GlyphClass: 2
Flags: W
HStem: -12 117<180.007 312.538> 392 118<233.782 361.774>
VStem: 2 154<128.788 301.257>
AnchorPoint: "Anchor-1" 318 496 basechar 0
AnchorPoint: "Anchor-0" 212 0 basechar 0
LayerCount: 2
Fore
SplineSet
156 198 m 0
 156 139 185 105 236 105 c 0
 283 105 313 119 341 154 c 1
 464 107 l 1
 408 29 325 -12 223 -12 c 0
 88 -12 2 68 2 194 c 0
 2 376 135 510 316 510 c 0
 358 510 397 501 432 482 c 0
 467 464 493 430 511 382 c 1
 378 336 l 1
 370 374 345 392 299 392 c 0
 217 392 156 309 156 198 c 0
EndSplineSet
EndChar

StartChar: d
Encoding: 100 100 44
Width: 592
GlyphClass: 2
Flags: W
HStem: -12 117<131 271.856> 0 21G<337.413 488.5> 392 118<224.729 347.471> 648 20G<453.709 613>
VStem: 3 159<139.882 318.158>
AnchorPoint: "Anchor-1" 266 496 basechar 0
AnchorPoint: "Anchor-0" 188 0 basechar 0
LayerCount: 2
Fore
SplineSet
162 216 m 0xb8
 162 147 195 105 251 105 c 0
 324 105 382 186 382 289 c 0
 382 351 346 392 293 392 c 0
 214 392 162 322 162 216 c 0xb8
334 63 m 1
 296 14 245 -12 187 -12 c 0
 75 -12 3 67 3 191 c 0
 3 374 115 510 266 510 c 0
 330 510 384 476 405 421 c 1
 458 668 l 1
 613 668 l 1
 607 642 l 1
 566 457 510 185 497 105 c 0xb8
 492 71 489 36 488 0 c 1
 339 0 l 1x78
 334 63 l 1
EndSplineSet
EndChar

StartChar: e
Encoding: 101 101 45
Width: 567
GlyphClass: 2
Flags: W
HStem: -12 118<181.761 339.406> 209 90<168 395.764> 399 111<227.907 368.778>
VStem: 3 149<133.412 204.358> 396 134<299.094 371.518>
AnchorPoint: "Anchor-2" 328 2 basechar 0
AnchorPoint: "Anchor-1" 321 496 basechar 0
AnchorPoint: "Anchor-0" 230 0 basechar 0
LayerCount: 2
Fore
SplineSet
396 313 m 2
 396 366 360 399 302 399 c 0
 239 399 185 358 168 299 c 1
 395 299 l 1
 396 301 396 303 396 306 c 2
 396 313 l 2
472 98 m 1
 414 26 330 -12 229 -12 c 0
 87 -12 3 65 3 196 c 0
 3 375 133 510 307 510 c 0
 447 510 530 431 530 298 c 0
 530 270 526 241 519 209 c 1
 154 209 l 1
 152 195 152 193 152 188 c 0
 152 137 190 106 254 106 c 0
 296 106 336 120 358 142 c 1
 472 98 l 1
EndSplineSet
EndChar

StartChar: f
Encoding: 102 102 46
Width: 379
GlyphClass: 1
Flags: W
HStem: 0 21G<18 177.211> 380 116<43 99 278 360> 608 119<305.724 409>
VStem: 18 155<0 155>
AnchorPoint: "Anchor-1" 152 668 basechar 0
LayerCount: 2
Fore
SplineSet
18 0 m 1
 99 380 l 1
 19 380 l 1
 43 496 l 1
 124 496 l 1
 135 547 l 2
 168 697 207 727 366 727 c 2
 434 727 l 1
 409 608 l 1
 368 608 l 2
 308 608 302 602 285 527 c 2
 278 496 l 1
 385 496 l 1
 360 380 l 1
 253 380 l 1
 173 0 l 1
 18 0 l 1
EndSplineSet
EndChar

StartChar: g
Encoding: 103 103 47
Width: 594
GlyphClass: 2
Flags: W
HStem: -207 119<128.925 270.273> 17 114<134.5 272.874> 395 116<227.38 351.513> 476 20G<432.851 577>
VStem: 6 158<161.803 325.01>
AnchorPoint: "Anchor-1" 317 496 basechar 0
AnchorPoint: "Anchor-0" 191 -251 basechar 0
LayerCount: 2
Fore
SplineSet
164 234 m 0xe8
 164 171 196 131 247 131 c 0
 328 131 384 201 384 301 c 0
 384 360 351 395 296 395 c 0
 218 395 164 330 164 234 c 0xe8
262 511 m 0
 329 511 385 480 409 429 c 1
 443 496 l 1
 577 496 l 1xd8
 491 87 491 87 476 18 c 0
 445 -120 336 -207 194 -207 c 0
 90 -207 1 -157 -22 -85 c 1
 112 -41 l 1
 121 -69 155 -88 196 -88 c 0
 259 -88 307 -51 319 6 c 2
 337 91 l 1
 297 43 244 17 187 17 c 0
 82 17 6 100 6 214 c 0
 6 378 121 511 262 511 c 0
EndSplineSet
EndChar

StartChar: h
Encoding: 104 104 48
Width: 580
GlyphClass: 1
Flags: W
HStem: 0 21G<-21 139.252 302 462.27> 392 118<292.919 439.5> 648 20G<116.749 272>
VStem: -21 156<0 156> 121 151<517 668> 367 161<227.096 383.312>
AnchorPoint: "Anchor-0" 218 0 basechar 0
AnchorPoint: "Anchor-1" 192 668 basechar 0
LayerCount: 2
Fore
SplineSet
367 328 m 0xec
 367 372 349 392 311 392 c 0
 248 392 207 346 189 254 c 1
 135 0 l 1
 -21 0 l 1xf4
 121 668 l 1
 272 668 l 1
 222 432 l 1
 258 481 322 510 396 510 c 0
 483 510 528 461 528 366 c 0
 528 340 525 312 518 281 c 2
 458 0 l 1
 302 0 l 1
 367 305 367 305 367 328 c 0xec
EndSplineSet
EndChar

StartChar: j
Encoding: 106 106 50
Width: 263
GlyphClass: 1
Flags: W
HStem: -162 120<-148 -28.3672> 476 20G<88.7549 249> 578 180<146.982 265.018>
VStem: 93 156<340 496> 116 180<608.982 727.018>
LayerCount: 2
Fore
SplineSet
296 668 m 0xe8
 296 618 256 578 206 578 c 0
 156 578 116 618 116 668 c 0
 116 718 156 758 206 758 c 0
 256 758 296 718 296 668 c 0xe8
EndSplineSet
Refer: 410 567 S 1 0 0 1 0 0 2
EndChar

StartChar: k
Encoding: 107 107 51
Width: 562
GlyphClass: 2
Flags: W
HStem: 0 21G<-21 139.194 313.674 487> 476 20G<366.107 586> 648 20G<116.749 276>
VStem: 121 155<513 668>
AnchorPoint: "Anchor-1" 397 796 basechar 0
AnchorPoint: "Anchor-0" 218 0 basechar 0
LayerCount: 2
Fore
SplineSet
-21 0 m 1
 121 668 l 1
 276 668 l 1
 203 327 l 1
 388 496 l 1
 586 496 l 1
 342 283 l 1
 487 0 l 1
 324 0 l 1
 229 184 l 1
 161 124 l 1
 135 0 l 1
 -21 0 l 1
EndSplineSet
EndChar

StartChar: l
Encoding: 108 108 52
Width: 317
GlyphClass: 2
Flags: W
HStem: 0 124<174.039 244> 648 20G<116.758 277>
VStem: 4 168<65.5 216.375> 121 156<512 668>
AnchorPoint: "Anchor-1" 198 668 basechar 0
AnchorPoint: "Anchor-0" 108 0 basechar 0
LayerCount: 2
Fore
SplineSet
172 159 m 0xe0
 172 134 188 124 227 124 c 2
 270 124 l 1
 244 0 l 1
 147 0 l 2
 50 0 4 32 4 99 c 0xe0
 4 110 5 122 9 140 c 2
 121 668 l 1
 277 668 l 1xd0
 179 204 l 2
 174 184 172 170 172 159 c 0xe0
EndSplineSet
EndChar

StartChar: m
Encoding: 109 109 53
Width: 895
GlyphClass: 1
Flags: W
HStem: 0 21G<-20 140.264 298 458.215 617 777.276> 392 118<295.354 422.5 598.241 748.5> 476 20G<80.7661 222.562>
VStem: -20 156<0 156> 298 156<0 156> 617 156<0 156> 684 161<234.93 383.854>
AnchorPoint: "Anchor-1" 514 496 basechar 0
LayerCount: 2
Fore
SplineSet
363 332 m 0xda
 363 375 347 392 309 392 c 0xda
 249 392 210 347 191 258 c 2
 136 0 l 1
 -20 0 l 1
 85 496 l 1
 221 496 l 1xba
 226 432 l 1
 268 483 323 510 384 510 c 0
 461 510 504 484 523 427 c 1
 568 483 626 510 701 510 c 0
 796 510 845 463 845 370 c 0xda
 845 344 842 317 835 290 c 2
 773 0 l 1
 617 0 l 1xdc
 673 263 l 2
 680 296 684 320 684 338 c 0
 684 376 667 392 628 392 c 0
 567 392 528 349 509 261 c 2
 454 0 l 1
 298 0 l 1
 354 263 l 2
 360 292 363 315 363 332 c 0xda
EndSplineSet
EndChar

StartChar: n
Encoding: 110 110 54
Width: 579
GlyphClass: 2
Flags: W
HStem: 0 21G<-20 140.252 303 463.27> 392 118<294.831 440.5> 476 20G<80.7661 222.562>
VStem: -20 156<0 156> 303 156<0 156> 368 161<227.164 383.312>
AnchorPoint: "Anchor-1" 344 496 basechar 0
AnchorPoint: "Anchor-0" 218 0 basechar 0
LayerCount: 2
Fore
SplineSet
368 328 m 0xd4
 368 372 350 392 312 392 c 0xd4
 250 392 209 346 190 254 c 2
 136 0 l 1
 -20 0 l 1
 85 496 l 1
 221 496 l 1xb4
 226 432 l 1
 262 482 323 510 397 510 c 0
 484 510 529 461 529 366 c 0xd4
 529 340 526 312 519 281 c 2
 459 0 l 1
 303 0 l 1xd8
 359 263 l 2
 365 289 368 311 368 328 c 0xd4
EndSplineSet
EndChar

StartChar: o
Encoding: 111 111 55
AltUni2: 0003bf.ffffffff.0
Width: 576
GlyphClass: 2
Flags: W
HStem: -13 118<186.575 311.497> 392 118<224.909 354.772>
VStem: 5 154<133.663 313.625> 381 155<183.774 364.893>
AnchorPoint: "Anchor-2" 332 0 basechar 0
AnchorPoint: "Anchor-1" 317 496 basechar 0
AnchorPoint: "Anchor-0" 235 0 basechar 0
LayerCount: 2
Fore
SplineSet
159 206 m 0
 159 140 189 105 245 105 c 0
 327 105 381 180 381 292 c 0
 381 360 352 392 292 392 c 0
 212 392 159 317 159 206 c 0
536 295 m 0
 536 112 416 -13 239 -13 c 0
 96 -13 5 72 5 204 c 0
 5 384 127 510 302 510 c 0
 446 510 536 427 536 295 c 0
EndSplineSet
Substitution2: "Single Substitution lookup 12 subtable" ordmasculine
Substitution2: "'aalt' Access All Alternates lookup 0 subtable" ordmasculine
EndChar

StartChar: p
Encoding: 112 112 56
AltUni2: 0003c1.ffffffff.0
Width: 590
GlyphClass: 1
Flags: W
HStem: -161 21G<-55 105.242> -13 118<208.241 329.27> 392 118<287.326 428.5> 476 20G<80.7382 220.765>
VStem: -55 156<-161 -5> 394 158<178.964 360.482>
AnchorPoint: "Anchor-1" 373 496 basechar 0
LayerCount: 2
Fore
SplineSet
308 392 m 0xec
 231 392 174 315 174 210 c 0
 174 146 208 105 261 105 c 0
 341 105 394 175 394 282 c 0
 394 352 363 392 308 392 c 0xec
287 -13 m 0
 229 -13 180 17 150 70 c 1
 101 -161 l 1
 -55 -161 l 1
 85 496 l 1
 219 496 l 1xdc
 225 428 l 1
 256 480 311 510 376 510 c 0
 481 510 552 428 552 305 c 0
 552 124 438 -13 287 -13 c 0
EndSplineSet
EndChar

StartChar: q
Encoding: 113 113 57
Width: 601
GlyphClass: 1
Flags: W
HStem: -173 139<412.5 578.988> -12 118<128.5 269.658> 393 117<230.486 347.062> 476 20G<429.565 575>
VStem: 4 152<143.931 305.795> 308 165<-88 55.3089>
LayerCount: 2
Fore
SplineSet
156 218 m 0xec
 156 151 194 106 250 106 c 0
 325 106 381 185 381 293 c 0
 381 354 346 393 291 393 c 0
 221 393 156 308 156 218 c 0xec
326 56 m 1
 290 12 239 -12 183 -12 c 0
 74 -12 4 69 4 196 c 0
 4 374 117 510 263 510 c 0xec
 326 510 377 480 404 427 c 1
 440 496 l 1
 575 496 l 1xdc
 553 390 478 38 476 28 c 0
 474 18 473 9 473 2 c 0
 473 -23 487 -34 520 -34 c 0
 542 -34 573 -29 608 -21 c 1
 580 -151 l 1
 547 -165 504 -173 462 -173 c 0
 363 -173 308 -128 308 -48 c 0
 308 -33 310 -19 313 -4 c 0
 323 39 322 37 326 56 c 1
EndSplineSet
EndChar

StartChar: r
Encoding: 114 114 58
Width: 391
GlyphClass: 2
Flags: W
HStem: 0 21G<-20 140.242> 361 149<287.474 371.859> 476 20G<80.7661 209.609>
VStem: -20 156<0 156>
AnchorPoint: "Anchor-1" 249 496 basechar 0
AnchorPoint: "Anchor-0" 57 0 basechar 0
LayerCount: 2
Fore
SplineSet
215 409 m 1xb0
 255 480 301 509 377 510 c 1
 403 510 l 1
 371 358 l 1
 354 360 339 361 325 361 c 0xd0
 246 361 204 322 185 231 c 2
 136 0 l 1
 -20 0 l 1
 85 496 l 1
 208 496 l 1
 215 409 l 1xb0
EndSplineSet
EndChar

StartChar: s
Encoding: 115 115 59
Width: 515
GlyphClass: 2
Flags: W
HStem: -13 109<149.863 293.746> 399 111<179.568 323.32>
VStem: 30 144<331.711 390.017> 306 148<110.711 166.812>
AnchorPoint: "Anchor-1" 274 496 basechar 0
AnchorPoint: "Anchor-0" 215 0 basechar 0
LayerCount: 2
Fore
SplineSet
454 156 m 0
 454 56 373 -13 229 -13 c 0
 118 -13 32 24 -10 116 c 1
 120 160 l 1
 134 99 208 96 224 96 c 0
 262 96 306 111 306 139 c 0
 306 170 259 181 203 197 c 0
 125 219 30 250 30 357 c 0
 30 447 125 510 243 510 c 0
 281 510 409 510 471 400 c 1
 339 355 l 1
 334 367 322 399 241 399 c 256
 174 399 174 363 174 362 c 0
 174 328 222 317 279 302 c 0
 358 281 454 255 454 156 c 0
EndSplineSet
EndChar

StartChar: t
Encoding: 116 116 60
Width: 391
GlyphClass: 2
Flags: W
HStem: 0 124<219.37 289> 380 116<53 106 286 370>
VStem: 50 167<79.5 218.477>
AnchorPoint: "Anchor-1" 230 620 basechar 0
AnchorPoint: "Anchor-0" 143 0 basechar 0
LayerCount: 2
Fore
SplineSet
217 160 m 0
 217 135 233 124 272 124 c 2
 315 124 l 1
 289 0 l 1
 193 0 l 2
 151 0 116 8 89 22 c 0
 63 36 50 61 50 98 c 0
 50 111 52 129 57 150 c 2
 106 380 l 1
 28 380 l 1
 53 496 l 1
 131 496 l 1
 157 620 l 1
 312 620 l 1
 286 496 l 1
 394 496 l 1
 370 380 l 1
 261 380 l 1
 224 205 l 2
 219 185 217 171 217 160 c 0
EndSplineSet
EndChar

StartChar: u
Encoding: 117 117 61
Width: 578
GlyphClass: 2
Flags: W
HStem: -12 118<112 256.401> 0 21G<319.438 460.234> 476 20G<81.7246 241 401.725 561>
VStem: 17 162<115.643 275.922> 86 155<341 496> 406 155<341 496>
AnchorPoint: "Anchor-2" 456 0 basechar 0
AnchorPoint: "Anchor-1" 322 496 basechar 0
AnchorPoint: "Anchor-0" 236 0 basechar 0
LayerCount: 2
Fore
SplineSet
316 64 m 1x74
 286 15 230 -12 159 -12 c 0
 65 -12 17 37 17 134 c 0xb4
 17 157 20 180 27 220 c 1
 86 496 l 1
 241 496 l 1xac
 186 235 l 2
 181 212 179 193 179 175 c 0
 179 129 197 106 231 106 c 0xb4
 290 106 333 152 350 234 c 2
 406 496 l 1
 561 496 l 1
 456 0 l 1
 321 0 l 1
 316 64 l 1x74
EndSplineSet
EndChar

StartChar: v
Encoding: 118 118 62
Width: 533
GlyphClass: 1
Flags: W
HStem: 0 21G<104.097 296.411> 476 20G<35 187.947 387.44 568>
VStem: 35 151<345 496>
LayerCount: 2
Fore
SplineSet
107 0 m 1
 35 496 l 1
 186 496 l 1
 219 157 l 1
 398 496 l 1
 568 496 l 1
 285 0 l 1
 107 0 l 1
EndSplineSet
EndChar

StartChar: w
Encoding: 119 119 63
Width: 727
GlyphClass: 1
Flags: W
HStem: 0 21G<53.2339 222.315 359 542.234> 476 20G<35 181.249 305.025 463 595.157 762>
VStem: 35 146<313.263 496> 359 96<159 356> 362 101<201.125 356>
LayerCount: 2
Fore
SplineSet
54 0 m 1xe8
 35 496 l 1
 181 496 l 1
 185 175 l 1
 313 496 l 1
 463 496 l 1xe8
 455 159 l 1
 604 496 l 1
 762 496 l 1
 533 0 l 1
 359 0 l 1xf0
 362 356 l 1
 214 0 l 1
 54 0 l 1xe8
EndSplineSet
EndChar

StartChar: x
Encoding: 120 120 64
AltUni2: 0003c7.ffffffff.0
Width: 536
GlyphClass: 1
Flags: W
HStem: 0 21G<-71 131.298 302.929 464> 476 20G<66 226 368.5 571>
AnchorPoint: "Anchor-1" 300 496 basechar 0
AnchorPoint: "Anchor-0" 216 0 basechar 0
LayerCount: 2
Fore
SplineSet
-71 0 m 1
 179 270 l 1
 66 496 l 1
 216 496 l 1
 276 376 l 1
 387 496 l 1
 571 496 l 1
 340 246 l 1
 464 0 l 1
 313 0 l 1
 242 141 l 1
 113 0 l 1
 -71 0 l 1
EndSplineSet
EndChar

StartChar: y
Encoding: 121 121 65
Width: 527
GlyphClass: 2
Flags: W
HStem: -161 110<-21 102.692> 476 20G<35 191.899 375.494 562>
AnchorPoint: "Anchor-1" 302 496 basechar 0
AnchorPoint: "Anchor-0" 383 0 basechar 0
LayerCount: 2
Fore
SplineSet
-44 -161 m 1
 -21 -51 l 1
 10 -51 l 2
 85 -51 100 -44 121 0 c 1
 35 496 l 1
 190 496 l 1
 220 180 l 1
 386 496 l 1
 562 496 l 1
 266 0 l 1
 179 -148 158 -161 5 -161 c 2
 -44 -161 l 1
EndSplineSet
EndChar

StartChar: z
Encoding: 122 122 66
Width: 528
GlyphClass: 2
Flags: W
HStem: 0 121<203 437> 375 121<91 296>
AnchorPoint: "Anchor-1" 317 496 basechar 0
AnchorPoint: "Anchor-0" 211 0 basechar 0
LayerCount: 2
Fore
SplineSet
-40 0 m 1
 -14 121 l 1
 296 375 l 1
 65 375 l 1
 91 496 l 1
 539 496 l 1
 513 375 l 1
 203 121 l 1
 462 121 l 1
 437 0 l 1
 -40 0 l 1
EndSplineSet
EndChar

StartChar: circumflex
Encoding: 258 710 67
Width: 480
GlyphClass: 1
Flags: W
HStem: 574 152
LayerCount: 2
Fore
SplineSet
89 574 m 1
 278 711 l 2
 291 721 306 726 322 726 c 0
 344 726 362 718 377 701 c 2
 495 574 l 1
 379 574 l 1
 320 635 l 1
 236 574 l 1
 89 574 l 1
EndSplineSet
EndChar

StartChar: caron
Encoding: 259 711 68
Width: 476
GlyphClass: 1
Flags: W
HStem: 568 152
LayerCount: 2
Fore
SplineSet
288 568 m 0
 267 568 249 576 234 593 c 2
 120 720 l 1
 235 720 l 1
 291 659 l 1
 375 720 l 1
 522 720 l 1
 332 583 l 2
 319 573 305 568 288 568 c 0
EndSplineSet
EndChar

StartChar: breve
Encoding: 260 728 69
Width: 385
GlyphClass: 1
Flags: W
HStem: 567 82<222.31 327.396>
LayerCount: 2
Fore
SplineSet
457 702 m 1
 421 607 365 567 270 567 c 0
 174 567 117 612 98 702 c 1
 208 702 l 1
 214 667 236 649 274 649 c 0
 311 649 336 668 343 702 c 1
 457 702 l 1
EndSplineSet
EndChar

StartChar: dotaccent
Encoding: 261 729 70
Width: 204
GlyphClass: 1
Flags: W
HStem: 578 141<119.875 219.625>
VStem: 99 141<598.375 698.125>
LayerCount: 2
Fore
SplineSet
240 648 m 0
 240 609 209 578 170 578 c 0
 131 578 99 609 99 648 c 0
 99 687 131 719 170 719 c 0
 209 719 240 687 240 648 c 0
EndSplineSet
EndChar

StartChar: ring
Encoding: 262 730 71
Width: 301
GlyphClass: 1
Flags: W
HStem: 535 86<182.738 261.494> 715 85<182.552 261.804>
VStem: 90 85<628.506 707.448> 269 86<628.506 707.572>
LayerCount: 2
Fore
SplineSet
175 668 m 0
 175 642 196 621 222 621 c 0
 248 621 269 642 269 668 c 0
 269 695 249 715 222 715 c 0
 196 715 175 694 175 668 c 0
355 668 m 0
 355 595 295 535 222 535 c 0
 150 535 90 595 90 668 c 0
 90 741 149 800 222 800 c 0
 296 800 355 741 355 668 c 0
EndSplineSet
EndChar

StartChar: ogonek
Encoding: 263 731 72
Width: 296
GlyphClass: 1
Flags: W
HStem: -173 76<34 154.471> -20 20G<14 183>
VStem: -52 128<-120 -44.5829>
LayerCount: 2
Fore
SplineSet
76 -75 m 0
 76 -90 90 -97 119 -97 c 0
 132 -97 149 -94 170 -88 c 1
 154 -164 l 1
 134 -169 96 -173 73 -173 c 0
 -5 -173 -52 -144 -52 -96 c 0
 -52 -56 -11 -13 39 0 c 1
 183 0 l 1
 96 -40 76 -54 76 -75 c 0
EndSplineSet
EndChar

StartChar: quoteleft
Encoding: 161 8216 73
Width: 281
GlyphClass: 1
Flags: W
HStem: 340 328<193 201.094>
VStem: 67 194<376.702 496.438>
LayerCount: 2
Fore
SplineSet
261 438 m 0
 261 382 218 340 162 340 c 0
 108 340 67 383 67 438 c 0
 67 456 72 473 81 488 c 2
 193 668 l 1
 292 668 l 1
 203 526 l 1
 238 511 261 477 261 438 c 0
EndSplineSet
EndChar

StartChar: quoteright
Encoding: 162 8217 74
Width: 282
GlyphClass: 1
Flags: W
HStem: 351 329<156.484 165>
VStem: 97 196<522.925 642.875>
LayerCount: 2
Fore
SplineSet
195 680 m 0
 249 680 293 637 293 584 c 0
 293 567 287 545 278 531 c 2
 165 351 l 1
 66 351 l 1
 155 493 l 1
 120 510 97 545 97 582 c 0
 97 637 140 680 195 680 c 0
EndSplineSet
EndChar

StartChar: quotedblleft
Encoding: 265 8220 76
Width: 505
GlyphClass: 1
Flags: W
HStem: 340 328<193 201.094 417 425.094>
VStem: 67 194<376.702 497.922> 291 194<376.316 496.423>
LayerCount: 2
Fore
SplineSet
485 436 m 0
 485 382 442 340 386 340 c 0
 335 340 291 381 291 429 c 0
 291 456 295 473 305 488 c 2
 417 668 l 1
 516 668 l 1
 427 526 l 1
 462 510 485 474 485 436 c 0
261 438 m 0
 261 382 218 340 162 340 c 0
 108 340 67 381 67 435 c 0
 67 458 73 475 92 506 c 2
 193 668 l 1
 292 668 l 1
 203 526 l 1
 238 511 261 477 261 438 c 0
EndSplineSet
EndChar

StartChar: quotedblright
Encoding: 266 8221 77
Width: 505
GlyphClass: 1
Flags: W
HStem: 350 328<156.906 165 380.484 389>
VStem: 97 194<521.577 641.684> 321 194<520.387 642.3>
LayerCount: 2
Fore
SplineSet
196 678 m 0
 247 678 291 637 291 589 c 0
 291 565 286 546 277 530 c 2
 165 350 l 1
 66 350 l 1
 155 492 l 1
 120 508 97 544 97 582 c 0
 97 636 140 678 196 678 c 0
420 678 m 0
 474 678 515 637 515 583 c 0
 515 560 509 543 490 512 c 2
 389 350 l 1
 290 350 l 1
 379 492 l 1
 344 507 321 542 321 580 c 0
 321 636 363 678 420 678 c 0
EndSplineSet
EndChar

StartChar: dagger
Encoding: 268 8224 79
Width: 594
GlyphClass: 1
Flags: W
HStem: 1 21G<155 304.222> 380 116<77 236 405 564> 648 20G<292.698 442>
VStem: 155 145<1 146> 297 145<523 668>
LayerCount: 2
Fore
SplineSet
155 1 m 1xf0
 236 380 l 1
 52 380 l 1
 77 496 l 1
 260 496 l 1
 297 668 l 1
 442 668 l 1xe8
 405 496 l 1
 588 496 l 1
 564 380 l 1
 380 380 l 1
 300 1 l 1
 155 1 l 1xf0
EndSplineSet
EndChar

StartChar: daggerdbl
Encoding: 269 8225 80
Width: 595
GlyphClass: 1
Flags: W
HStem: 1 21G<155 305.07> 173 115<33 192 361 520> 380 116<77 236 405 564> 648 20G<292.698 442>
VStem: 155 146<1 147> 297 145<523 668>
LayerCount: 2
Fore
SplineSet
155 1 m 1xf8
 192 173 l 1
 8 173 l 1
 33 288 l 1
 216 288 l 1
 236 380 l 1
 52 380 l 1
 77 496 l 1
 260 496 l 1
 297 668 l 1
 442 668 l 1xf4
 405 496 l 1
 589 496 l 1
 564 380 l 1
 381 380 l 1
 361 288 l 1
 544 288 l 1
 520 173 l 1
 336 173 l 1
 301 1 l 1
 155 1 l 1xf8
EndSplineSet
EndChar

StartChar: bullet
Encoding: 270 8226 81
Width: 446
GlyphClass: 1
Flags: W
HStem: 88 332<124.23 289.77>
VStem: 41 332<171.23 336.77>
LayerCount: 2
Fore
SplineSet
373 254 m 0
 373 162 299 88 207 88 c 0
 115 88 41 162 41 254 c 0
 41 346 115 420 207 420 c 0
 299 420 373 346 373 254 c 0
EndSplineSet
EndChar

StartChar: ellipsis
Encoding: 271 8230 82
Width: 807
GlyphClass: 1
Flags: W
HStem: -12 196<28.5485 149.068 291.739 411.875 554.548 675.068>
VStem: -9 195<25.5485 146.875> 255 194<25.1255 146.875> 517 195<25.5485 146.875>
LayerCount: 2
Fore
SplineSet
449 86 m 0
 449 31 406 -12 351 -12 c 0
 298 -12 255 32 255 86 c 0
 255 141 297 184 351 184 c 0
 406 184 449 141 449 86 c 0
186 86 m 0
 186 32 143 -12 89 -12 c 0
 35 -12 -9 32 -9 86 c 0
 -9 141 34 184 89 184 c 0
 143 184 186 141 186 86 c 0
712 86 m 0
 712 31 669 -12 615 -12 c 0
 561 -12 517 32 517 86 c 0
 517 141 560 184 615 184 c 0
 670 184 712 141 712 86 c 0
EndSplineSet
EndChar

StartChar: perthousand
Encoding: 272 8240 83
Width: 1472
GlyphClass: 1
Flags: W
HStem: -12 119<731.176 838.497 1160.18 1267.5> 0 21G<226 366.012> 263 119<741.503 848.824 1170.5 1277.82> 286 119<192.89 303.415> 561 119<205.982 313.307> 648 20G<679.018 820>
VStem: 56 119<424.211 530.303> 334 119<437.306 540.937> 592 119<126.938 230.572> 869 119<136.63 242.824> 1021 119<126.938 230.572> 1298 119<136.63 242.824>
LayerCount: 2
Fore
SplineSet
1140 177 m 0xa3f0
 1140 136 1170 107 1211 107 c 0
 1258 107 1298 146 1298 192 c 0
 1298 233 1268 263 1227 263 c 0
 1180 263 1140 223 1140 177 c 0xa3f0
1417 205 m 0
 1417 88 1317 -12 1198 -12 c 0
 1097 -12 1021 64 1021 165 c 0
 1021 282 1121 382 1240 382 c 0
 1341 382 1417 306 1417 205 c 0
EndSplineSet
Refer: 124 37 S 1 0 0 1 0 0 2
EndChar

StartChar: guilsinglleft
Encoding: 273 8249 84
Width: 401
GlyphClass: 1
Flags: W
LayerCount: 2
Fore
SplineSet
127 40 m 1
 24 250 l 1
 217 460 l 1
 388 460 l 1
 191 244 l 1
 291 40 l 1
 127 40 l 1
EndSplineSet
EndChar

StartChar: guilsinglright
Encoding: 274 8250 85
Width: 402
GlyphClass: 1
Flags: W
LayerCount: 2
Fore
SplineSet
-20 40 m 1
 177 256 l 1
 77 460 l 1
 241 460 l 1
 344 250 l 1
 151 40 l 1
 -20 40 l 1
EndSplineSet
EndChar

StartChar: fraction
Encoding: 275 8260 86
Width: 482
GlyphClass: 1
Flags: W
HStem: 0 21G<-55 85.982> 648 20G<398.988 539>
LayerCount: 2
Fore
SplineSet
-55 0 m 1
 413 668 l 1
 539 668 l 1
 72 0 l 1
 -55 0 l 1
EndSplineSet
EndChar

StartChar: ordfeminine
Encoding: 276 170 87
Width: 395
GlyphClass: 1
Flags: W
HStem: 396 68<147 250.869> 625 67<189.599 292.391>
VStem: 86 107<465.274 515.881> 272 86<403 435> 294 94<582.302 621.86>
LayerCount: 2
Fore
SplineSet
193 489 m 0xe0
 193 474 205 464 222 464 c 0
 248 464 269 481 277 510 c 2
 282 528 l 1
 256 525 l 2
 209 519 193 510 193 489 c 0xe0
270 435 m 1
 247 409 215 396 174 396 c 0
 120 396 86 428 86 477 c 0
 86 544 142 573 289 582 c 1
 292 586 294 594 294 601 c 0
 294 616 279 625 254 625 c 0
 232 625 214 615 207 599 c 1
 127 631 l 1
 156 673 199 692 266 692 c 0
 346 692 388 659 388 596 c 0xe8
 388 553 371 529 358 403 c 1
 272 403 l 1xf0
 270 435 l 1
EndSplineSet
EndChar

StartChar: logicalnot
Encoding: 172 172 89
Width: 696
GlyphClass: 1
Flags: W
HStem: 295 127<73 457>
VStem: 457 128<56 295>
LayerCount: 2
Fore
SplineSet
457 56 m 1
 457 295 l 1
 73 295 l 1
 73 422 l 1
 585 422 l 1
 585 56 l 1
 457 56 l 1
EndSplineSet
EndChar

StartChar: registered
Encoding: 277 174 90
Width: 814
GlyphClass: 1
Flags: W
HStem: -12 69<302.257 512.574> 300 75<347 379> 453 76<347 463.125> 610 69<302.468 512.574>
VStem: 62 70<228.658 438.821> 250 97<161 300 375 453> 467 101<381.961 446.055> 684 70<228.658 439.032>
LayerCount: 2
Fore
SplineSet
467 414 m 0
 467 441 447 453 399 453 c 2
 347 453 l 1
 347 375 l 1
 399 375 l 2
 447 375 467 387 467 414 c 0
568 415 m 0
 568 361 539 326 481 310 c 1
 588 161 l 1
 480 161 l 1
 379 300 l 1
 347 300 l 1
 347 161 l 1
 250 161 l 1
 250 529 l 1
 401 529 l 2
 516 529 568 494 568 415 c 0
132 334 m 0
 132 181 255 57 407 57 c 0
 560 57 684 181 684 334 c 0
 684 487 560 610 407 610 c 0
 256 610 132 486 132 334 c 0
754 334 m 0
 754 143 599 -12 407 -12 c 0
 217 -12 62 143 62 334 c 0
 62 524 217 679 407 679 c 0
 599 679 754 524 754 334 c 0
EndSplineSet
EndChar

StartChar: macron
Encoding: 278 175 91
Width: 405
GlyphClass: 1
Flags: W
HStem: 570 98<125 403>
VStem: 104 320
LayerCount: 2
Fore
SplineSet
104 570 m 1
 125 668 l 1
 424 668 l 1
 403 570 l 1
 104 570 l 1
EndSplineSet
EndChar

StartChar: degree
Encoding: 176 176 92
Width: 411
GlyphClass: 1
Flags: W
HStem: 354 90<193.362 297.213> 590 89<193.362 297.019>
VStem: 83 89<467.019 568.638> 318 89<464.734 569.019>
LayerCount: 2
Fore
SplineSet
172 517 m 0
 172 477 205 444 245 444 c 0
 286 444 318 476 318 517 c 0
 318 558 286 590 245 590 c 0
 205 590 172 557 172 517 c 0
407 517 m 0
 407 426 336 354 245 354 c 0
 156 354 83 427 83 517 c 0
 83 606 156 679 245 679 c 0
 335 679 407 607 407 517 c 0
EndSplineSet
EndChar

StartChar: plusminus
Encoding: 177 177 93
Width: 701
GlyphClass: 1
Flags: W
HStem: 0 128<56 568> 283 108<56 248 376 568> 475 20G<248 376>
VStem: 248 128<180 283 391 495>
LayerCount: 2
Fore
SplineSet
248 180 m 1
 248 283 l 1
 56 283 l 1
 56 391 l 1
 248 391 l 1
 248 495 l 1
 376 495 l 1
 376 391 l 1
 568 391 l 1
 568 283 l 1
 376 283 l 1
 376 180 l 1
 248 180 l 1
EndSplineSet
Refer: 159 8722 S 1 0 0 1 17 -184 2
EndChar

StartChar: uni00B2
Encoding: 178 178 94
Width: 407
GlyphClass: 1
Flags: W
HStem: 403 88<240 370> 667 21G<165.091 221.5> 711 77<229.19 317.106>
VStem: 321 106<625.164 706.46>
LayerCount: 2
Fore
SplineSet
427 689 m 0
 427 621 349 538 240 491 c 1
 388 491 l 1
 370 403 l 1
 70 403 l 1
 87 484 l 1
 268 583 321 627 321 675 c 0
 321 697 303 711 277 711 c 0
 247 711 227 696 216 667 c 1
 132 700 l 1
 161 759 213 788 288 788 c 0
 378 788 427 753 427 689 c 0
EndSplineSet
EndChar

StartChar: uni00B3
Encoding: 179 179 95
Width: 425
GlyphClass: 1
Flags: W
HStem: 396 76<205.788 298.609> 491 20G<136.606 200.5> 552 84<236 300.21> 676 21G<166.697 223> 713 75<226.408 321.29>
VStem: 305 105<480.755 544.248> 324 104<646.057 708.108>
LayerCount: 2
Fore
SplineSet
410 521 m 0xfc
 410 447 346 396 253 396 c 0
 184 396 128 426 98 478 c 1
 196 511 l 1
 205 485 225 472 254 472 c 0
 283 472 305 490 305 514 c 0xfc
 305 540 283 552 233 552 c 2
 218 552 l 1
 236 636 l 1
 251 636 l 2
 298 636 324 652 324 680 c 0
 324 700 306 713 278 713 c 0
 248 713 229 702 217 676 c 1
 134 709 l 1
 166 762 216 788 286 788 c 0
 373 788 428 749 428 688 c 0xfa
 428 645 403 612 362 599 c 1
 392 584 410 554 410 521 c 0xfc
EndSplineSet
EndChar

StartChar: acute
Encoding: 279 180 96
Width: 320
GlyphClass: 1
Flags: W
HStem: 574 153
VStem: 105 234
LayerCount: 2
Fore
SplineSet
282 727 m 0
 314 727 339 702 339 671 c 0
 339 640 334 635 241 582 c 1
 228 574 l 1
 105 574 l 1
 120 588 l 2
 130 597 141 609 155 623 c 2
 232 700 l 2
 245 713 247 715 248 715 c 0
 258 723 269 727 282 727 c 0
EndSplineSet
EndChar

StartChar: uni03BC
Encoding: 236 956 97
Width: 577
GlyphClass: 1
Flags: W
HStem: -161 21G<-55 105.179> -5 111<188.103 285.968> 475 20G<80.7317 240 399.758 560>
VStem: -55 156<-161 -5> 85 155<340 495> 404 156<339 495>
LayerCount: 2
Fore
SplineSet
177 176 m 0xec
 177 125 196 106 244 106 c 0
 298 106 330 144 348 231 c 2
 404 495 l 1
 560 495 l 1
 455 0 l 1
 314 0 l 1
 310 43 l 1
 294 14 257 -5 217 -5 c 0
 180 -5 153 12 143 40 c 1
 101 -161 l 1
 -55 -161 l 1xf4
 85 495 l 1
 240 495 l 1
 184 231 l 2
 179 207 177 190 177 176 c 0xec
EndSplineSet
EndChar

StartChar: paragraph
Encoding: 280 182 98
Width: 530
GlyphClass: 1
Flags: W
HStem: -161 21G<62 162.258 252 351.258> 600 68<320 413 509 557>
VStem: 62 96<-161 -65> 252 95<-161 -66>
LayerCount: 2
Fore
SplineSet
51 438 m 0
 51 557 164 668 285 668 c 2
 572 668 l 1
 557 600 l 1
 509 600 l 1
 347 -161 l 1
 252 -161 l 1
 413 600 l 1
 320 600 l 1
 158 -161 l 1
 62 -161 l 1
 159 296 l 1
 92 315 51 369 51 438 c 0
EndSplineSet
EndChar

StartChar: periodcentered
Encoding: 183 183 99
Width: 305
GlyphClass: 1
Flags: W
HStem: 151 194<75.5485 196.068>
VStem: 38 195<187.932 308.068>
LayerCount: 2
Fore
SplineSet
233 248 m 0
 233 194 190 151 136 151 c 0
 82 151 38 194 38 248 c 0
 38 302 81 345 136 345 c 0
 191 345 233 303 233 248 c 0
EndSplineSet
EndChar

StartChar: cedilla
Encoding: 281 184 100
Width: 322
GlyphClass: 1
Flags: W
HStem: -195 54<-17.6767 99.3079>
VStem: 103 91<-135.587 -86.8554>
LayerCount: 2
Fore
SplineSet
194 -103 m 0
 194 -161 145 -195 61 -195 c 0
 26 -195 -13 -188 -35 -178 c 1
 -9 -128 l 1
 9 -137 29 -141 51 -141 c 0
 82 -141 103 -128 103 -109 c 0
 103 -94 87 -84 64 -84 c 0
 47 -84 52 -89 35 -89 c 0
 24 -89 16 -82 16 -71 c 0
 16 -66 18 -62 22 -57 c 2
 91 26 l 1
 127 1 l 1
 87 -47 l 1
 97 -45 106 -44 115 -44 c 0
 162 -44 194 -68 194 -103 c 0
EndSplineSet
EndChar

StartChar: uni00B9
Encoding: 282 185 101
Width: 294
GlyphClass: 1
Flags: W
HStem: 647 88<140 203.973>
VStem: 153 104<403 507>
LayerCount: 2
Fore
SplineSet
140 735 m 1
 208 735 232 744 255 779 c 1
 337 779 l 1
 257 403 l 1
 153 403 l 1
 205 647 l 1
 121 647 l 1
 140 735 l 1
EndSplineSet
EndChar

StartChar: ordmasculine
Encoding: 283 186 102
Width: 412
GlyphClass: 1
Flags: W
HStem: 396 77<212.526 287.041> 612 77<221.561 297.988>
VStem: 102 103<479.329 595.53> 305 103<489.453 606.125>
LayerCount: 2
Fore
SplineSet
205 528 m 0
 205 493 221 473 248 473 c 0
 283 473 305 505 305 557 c 0
 305 592 289 612 263 612 c 0
 227 612 205 580 205 528 c 0
408 565 m 0
 408 461 343 396 240 396 c 0
 154 396 102 443 102 521 c 0
 102 623 169 689 271 689 c 0
 357 689 408 643 408 565 c 0
EndSplineSet
EndChar

StartChar: onequarter
Encoding: 284 188 104
Width: 930
GlyphClass: 1
Flags: W
HStem: 0 21G<129 270.033> 75 86<602 662 784 822> 536 87<116 180.643> 647 20G<219 313 582.967 724>
VStem: 129 104<292 396>
LayerCount: 2
Fore
SplineSet
129 0 m 1
 597 667 l 1
 724 667 l 1
 256 0 l 1
 129 0 l 1
116 623 m 1
 182 623 207 633 231 668 c 1
 313 668 l 1
 233 292 l 1
 129 292 l 1
 181 536 l 1
 97 536 l 1
 116 623 l 1
EndSplineSet
Refer: 345 8308 S 1 0 0 1 396 -402 2
LCarets2: 2 0 0
Ligature2: "'frac' Diagonal Fractions lookup 10 subtable" one slash four
EndChar

StartChar: onehalf
Encoding: 189 189 105
Width: 919
GlyphClass: 1
Flags: W
HStem: 0 88<666 796> 308 76<654.257 742.924> 536 87<116 180.643> 647 20G<219 313 582.967 724>
VStem: 129 104<292 396> 747 107<222.818 303.224>
LayerCount: 2
Fore
SplineSet
854 286 m 0
 854 218 776 136 666 88 c 1
 815 88 l 1
 796 0 l 1
 496 0 l 1
 513 81 l 1
 689 176 747 223 747 272 c 0
 747 293 729 308 702 308 c 0
 672 308 652 293 642 264 c 1
 558 297 l 1
 585 355 637 384 714 384 c 0
 804 384 854 349 854 286 c 0
129 0 m 1
 597 667 l 1
 724 667 l 1
 256 0 l 1
 129 0 l 1
116 623 m 1
 182 623 207 633 231 668 c 1
 313 668 l 1
 233 292 l 1
 129 292 l 1
 181 536 l 1
 97 536 l 1
 116 623 l 1
EndSplineSet
LCarets2: 2 0 0
Ligature2: "'frac' Diagonal Fractions lookup 10 subtable" one slash two
EndChar

StartChar: threequarters
Encoding: 285 190 106
Width: 958
GlyphClass: 1
Flags: W
HStem: 0 21G<198 339.033 674 782.267> 75 86<630 690 812 851> 287 76<182.788 275.609> 382 20G<113.606 177.5> 443 84<213 277.21> 567 21G<143.697 200> 604 75<203.408 298.29> 647 20G<651.967 793>
VStem: 282 105<371.755 435.248> 301 104<537.057 599.108>
LayerCount: 2
Fore
SplineSet
630 161 m 1xfc
 709 161 l 1
 729 257 l 1
 630 161 l 1xfc
674 0 m 1
 690 75 l 1
 499 75 l 1
 515 152 l 1
 744 375 l 1
 858 375 l 1
 812 161 l 1
 869 161 l 1
 851 75 l 1
 794 75 l 1
 778 0 l 1
 674 0 l 1
198 0 m 1
 666 667 l 1
 793 667 l 1xfd
 325 0 l 1
 198 0 l 1
EndSplineSet
Refer: 95 179 S 1 0 0 1 -23 -109 2
LCarets2: 2 0 0
Ligature2: "'frac' Diagonal Fractions lookup 10 subtable" three slash four
EndChar

StartChar: less
Encoding: 60 60 107
Width: 640
GlyphClass: 1
Flags: W
HStem: 490 20G<480.27 527>
LayerCount: 2
Fore
SplineSet
527 -12 m 1
 34 200 l 1
 34 299 l 1
 527 510 l 1
 527 368 l 1
 203 250 l 1
 527 130 l 1
 527 -12 l 1
EndSplineSet
EndChar

StartChar: equal
Encoding: 61 61 108
Width: 685
GlyphClass: 1
Flags: W
HStem: 96 129<60 572> 283 127<60 572>
LayerCount: 2
Fore
SplineSet
60 96 m 1
 60 225 l 1
 572 225 l 1
 572 96 l 1
 60 96 l 1
60 283 m 1
 60 410 l 1
 572 410 l 1
 572 283 l 1
 60 283 l 1
EndSplineSet
EndChar

StartChar: greater
Encoding: 62 62 109
Width: 638
GlyphClass: 1
Flags: W
HStem: 490 20G<78 124.73>
LayerCount: 2
Fore
SplineSet
78 -12 m 1
 78 130 l 1
 403 250 l 1
 78 368 l 1
 78 510 l 1
 571 299 l 1
 571 200 l 1
 78 -12 l 1
EndSplineSet
EndChar

StartChar: question
Encoding: 63 63 110
Width: 634
GlyphClass: 1
Flags: W
HStem: -12 195<176.932 297.875> 552 128<265.66 433.839>
VStem: 140 195<25.5485 146.491> 448 175<461.492 538.028>
LayerCount: 2
Fore
SplineSet
335 86 m 0
 335 31 292 -12 237 -12 c 0
 183 -12 140 32 140 86 c 0
 140 141 182 183 237 183 c 0
 292 183 335 141 335 86 c 0
368 680 m 0
 525 680 623 622 623 529 c 0
 623 446 576 390 468 345 c 0
 392 315 366 293 346 243 c 1
 185 243 l 1
 196 330 244 377 379 435 c 0
 428 456 448 475 448 501 c 0
 448 535 417 552 356 552 c 0
 290 552 241 528 223 486 c 1
 85 541 l 1
 138 634 231 680 368 680 c 0
EndSplineSet
EndChar

StartChar: at
Encoding: 64 64 111
Width: 753
GlyphClass: 1
Flags: W
HStem: -12 68<268.168 491.082> 153 97<288.386 374.039> 153 78<508.169 606.093> 428 90<333.982 433.757> 610 70<285.26 493.491>
VStem: 41 69<211.963 427.594> 181 101<255.35 373.538> 429 72<324.789 393> 648 72<276.237 460.077>
LayerCount: 2
Fore
SplineSet
282 298 m 0xdf80
 282 268 298 250 325 250 c 0
 365 250 400 287 411 339 c 2
 422 389 429 424 429 425 c 0
 420 427 411 428 400 428 c 0
 334 428 282 371 282 298 c 0xdf80
386 56 m 0
 437 56 480 68 522 94 c 1
 522 16 l 1
 480 -3 435 -12 386 -12 c 0
 181 -12 41 124 41 323 c 0
 41 517 199 680 386 680 c 0
 568 680 720 538 720 368 c 0
 720 241 646 153 541 153 c 0xbf80
 486 153 443 181 430 224 c 1
 395 179 347 153 299 153 c 0xdf80
 229 153 181 203 181 276 c 0
 181 417 284 518 428 518 c 0
 467 518 507 511 545 498 c 1
 509 330 l 1
 501 286 501 286 501 280 c 0
 501 248 519 231 551 231 c 0xbf80
 609 231 648 284 648 363 c 0
 648 502 533 610 386 610 c 0
 236 610 110 479 110 323 c 0
 110 163 220 56 386 56 c 0
EndSplineSet
EndChar

StartChar: colon
Encoding: 58 58 112
Width: 247
GlyphClass: 1
Flags: W
HStem: -12 195<11.5485 132.068> 316 195<81.5485 202.491>
VStem: -26 195<25.5485 146.068> 44 195<352.932 473.875>
LayerCount: 2
Fore
SplineSet
239 413 m 0xd0
 239 358 197 316 142 316 c 0
 88 316 44 359 44 413 c 0
 44 468 87 511 142 511 c 0
 197 511 239 468 239 413 c 0xd0
EndSplineSet
Refer: 133 46 S 1 0 0 1 -10 0 2
EndChar

StartChar: semicolon
Encoding: 59 59 113
Width: 247
GlyphClass: 1
Flags: W
HStem: -145 328<35.7414 42> 316 195<80.5485 201.068>
VStem: -26 196<25.3866 147.3> 43 195<353.548 474.068>
LayerCount: 2
Fore
SplineSet
238 414 m 0xd0
 238 360 195 316 141 316 c 0
 87 316 43 360 43 414 c 0
 43 468 86 511 141 511 c 0
 196 511 238 469 238 414 c 0xd0
EndSplineSet
Refer: 131 44 N 1 0 0 1 -17 0 2
EndChar

StartChar: bracketleft
Encoding: 91 91 114
Width: 340
GlyphClass: 1
Flags: W
HStem: -161 115<99 202> 552 116<226 353>
LayerCount: 2
Fore
SplineSet
-57 -161 m 1
 119 668 l 1
 378 668 l 1
 353 552 l 1
 226 552 l 1
 99 -46 l 1
 227 -46 l 1
 202 -161 l 1
 -57 -161 l 1
EndSplineSet
EndChar

StartChar: backslash
Encoding: 92 92 115
Width: 584
GlyphClass: 1
Flags: W
HStem: 0 21G<340.186 499> 648 20G<87 247.754>
LayerCount: 2
Fore
SplineSet
348 0 m 1
 87 668 l 1
 240 668 l 1
 499 0 l 1
 348 0 l 1
EndSplineSet
EndChar

StartChar: bracketright
Encoding: 93 93 116
Width: 342
GlyphClass: 1
Flags: W
HStem: -161 115<-46 82> 552 116<105 209>
LayerCount: 2
Fore
SplineSet
-71 -161 m 1
 -46 -46 l 1
 82 -46 l 1
 209 552 l 1
 81 552 l 1
 105 668 l 1
 364 668 l 1
 188 -161 l 1
 -71 -161 l 1
EndSplineSet
EndChar

StartChar: asciicircum
Encoding: 94 94 117
Width: 589
GlyphClass: 1
Flags: W
HStem: 648 20G<223.607 357.393>
LayerCount: 2
Fore
SplineSet
49 312 m 1
 234 668 l 1
 347 668 l 1
 532 312 l 1
 389 312 l 1
 291 506 l 1
 192 312 l 1
 49 312 l 1
EndSplineSet
EndChar

StartChar: underscore
Encoding: 95 95 118
Width: 457
GlyphClass: 1
Flags: W
HStem: -128 128<-30 380>
LayerCount: 2
Fore
SplineSet
-30 -128 m 1
 -30 0 l 1
 380 0 l 1
 380 -128 l 1
 -30 -128 l 1
EndSplineSet
EndChar

StartChar: grave
Encoding: 96 96 119
Width: 315
GlyphClass: 1
Flags: W
HStem: 574 153<206 225.909>
VStem: 127 187
LayerCount: 2
Fore
SplineSet
127 670 m 0
 127 701 152 727 183 727 c 0
 213 727 228 711 280 628 c 0
 290 613 297 600 304 590 c 2
 314 574 l 1
 206 574 l 1
 193 585 l 2
 137 632 127 645 127 670 c 0
EndSplineSet
EndChar

StartChar: exclam
Encoding: 33 33 120
Width: 298
GlyphClass: 1
Flags: W
HStem: -12 196<36.5485 157.068> 648 20G<115.698 318>
VStem: -1 195<25.5485 146.875>
LayerCount: 2
Fore
SplineSet
194 86 m 0
 194 32 151 -12 97 -12 c 0
 43 -12 -1 32 -1 86 c 0
 -1 141 42 184 97 184 c 0
 151 184 194 141 194 86 c 0
71 243 m 1
 83 496 l 1
 120 668 l 1
 318 668 l 1
 281 496 l 1
 186 243 l 1
 71 243 l 1
EndSplineSet
EndChar

StartChar: quotedbl
Encoding: 34 34 121
Width: 444
GlyphClass: 1
Flags: W
HStem: 434 234<116 230 305 418>
VStem: 116 114<434 551> 305 113<434 543.2>
LayerCount: 2
Fore
SplineSet
305 434 m 1
 290 668 l 1
 432 668 l 1
 418 434 l 1
 305 434 l 1
EndSplineSet
Refer: 126 39 S 1 0 0 1 13 0 2
EndChar

StartChar: numbersign
Encoding: 35 35 122
Width: 750
GlyphClass: 1
Flags: W
HStem: 0 21G<118 261.835 395 538.835> 127 140<28 136 297 413 575 683> 401 140<68 176 336 453 614 722> 648 20G<212.008 355 489.008 633>
LayerCount: 2
Fore
SplineSet
297 267 m 1
 434 267 l 1
 453 401 l 1
 316 401 l 1
 297 267 l 1
118 0 m 1
 136 127 l 1
 8 127 l 1
 28 266 l 1
 156 266 l 1
 176 401 l 1
 48 401 l 1
 68 541 l 1
 196 541 l 1
 215 668 l 1
 355 668 l 1
 336 541 l 1
 473 541 l 1
 492 668 l 1
 633 668 l 1
 614 541 l 1
 743 541 l 1
 722 402 l 1
 594 402 l 1
 575 267 l 1
 703 267 l 1
 683 127 l 1
 554 127 l 1
 536 0 l 1
 395 0 l 1
 413 127 l 1
 277 127 l 1
 259 0 l 1
 118 0 l 1
EndSplineSet
EndChar

StartChar: dollar
Encoding: 36 36 123
Width: 643
GlyphClass: 1
Flags: W
HStem: -12 126<307.094 393.965> 552 128<244.865 324>
VStem: 61 163<449.48 530.987> 188 76<-86 -10> 425 164<140.469 222.428>
LayerCount: 2
Fore
SplineSet
326 114 m 1xc8
 385 117 425 143 425 179 c 0
 425 212 399 235 337 256 c 1
 307 115 l 1
 309 114 312 114 317 114 c 2
 326 114 l 1xc8
324 552 m 1
 263 551 224 528 224 493 c 0xe8
 224 462 245 441 296 421 c 1
 324 552 l 1
589 205 m 0
 589 76 474 -12 305 -12 c 2
 292 -12 l 2
 286 -12 283 -12 280 -11 c 1
 264 -86 l 1
 188 -86 l 1xd8
 207 -1 l 1
 110 22 40 78 10 157 c 1
 165 210 l 1
 172 175 197 147 235 130 c 1
 266 280 l 1
 116 329 61 381 61 476 c 0
 61 600 170 680 341 680 c 2
 352 680 l 1
 366 747 l 1
 441 747 l 1
 425 671 l 1
 509 651 570 605 607 536 c 1
 452 484 l 1
 443 508 424 527 397 538 c 1
 367 398 l 1
 528 356 589 303 589 205 c 0
EndSplineSet
EndChar

StartChar: percent
Encoding: 37 37 124
Width: 1043
GlyphClass: 1
Flags: W
HStem: -12 119<731.176 838.497> 0 21G<226 366.012> 263 119<741.503 848.824> 286 119<192.89 303.415> 561 119<205.982 313.307> 648 20G<679.018 820>
VStem: 56 119<424.211 530.303> 334 119<437.306 540.937> 592 119<126.938 230.572> 869 119<136.63 242.824>
LayerCount: 2
Fore
SplineSet
711 177 m 0xa3c0
 711 136 741 107 782 107 c 0
 829 107 869 146 869 192 c 0
 869 233 839 263 798 263 c 0
 751 263 711 223 711 177 c 0xa3c0
988 205 m 0
 988 88 888 -12 769 -12 c 0
 668 -12 592 64 592 165 c 0
 592 282 692 382 811 382 c 0
 912 382 988 306 988 205 c 0
175 474 m 0
 175 434 205 405 246 405 c 0
 294 405 334 444 334 492 c 0
 334 531 303 561 263 561 c 0x1bc0
 216 561 175 521 175 474 c 0
226 0 m 1x47c0
 693 668 l 1
 820 668 l 1
 352 0 l 1
 226 0 l 1x47c0
453 503 m 0
 453 386 353 286 234 286 c 0
 133 286 56 362 56 461 c 0
 56 579 157 680 275 680 c 0x1bc0
 377 680 453 604 453 503 c 0
EndSplineSet
EndChar

StartChar: ampersand
Encoding: 38 38 125
Width: 683
GlyphClass: 1
Flags: W
HStem: -10 126<186.003 318.199> 0 21G<428.792 608> 592 114<294.48 395.375>
VStem: -7 164<143.83 248.091> 139 139<471.843 575.686> 408 126<482.432 578.652>
LayerCount: 2
Fore
SplineSet
157 196 m 0xb4
 157 152 194 116 239 116 c 0
 274 116 303 125 343 147 c 1
 247 290 l 1
 191 272 157 237 157 196 c 0xb4
350 592 m 0
 306 592 278 568 278 531 c 0x2c
 278 504 295 471 326 437 c 1
 379 463 408 497 408 534 c 0
 408 567 383 592 350 592 c 0
407 53 m 1
 337 12 266 -10 199 -10 c 0
 81 -10 -7 66 -7 169 c 0xb4
 -7 261 63 343 181 389 c 1
 153 431 139 475 139 521 c 0
 139 630 227 706 353 706 c 0
 456 706 534 636 534 544 c 0
 534 466 479 394 383 348 c 1
 451 244 l 1
 493 285 527 335 549 389 c 1
 676 389 l 1
 641 295 583 208 515 146 c 1
 608 0 l 1
 442 0 l 1x6c
 407 53 l 1
EndSplineSet
EndChar

StartChar: quotesingle
Encoding: 39 39 126
Width: 258
GlyphClass: 1
Flags: W
HStem: 434 234<103 217>
VStem: 103 114<434 551>
LayerCount: 2
Fore
SplineSet
103 434 m 1
 89 668 l 1
 231 668 l 1
 217 434 l 1
 103 434 l 1
EndSplineSet
EndChar

StartChar: parenleft
Encoding: 40 40 127
Width: 377
GlyphClass: 1
Flags: W
HStem: -161 21G<64 238> 649 20G<159.5 387>
VStem: 14 145<1.8071 306.993>
LayerCount: 2
Fore
SplineSet
387 669 m 1
 230 479 159 320 159 155 c 0
 159 57 186 -49 238 -161 c 1
 89 -161 l 1
 39 -41 14 69 14 171 c 0
 14 343 83 497 236 669 c 1
 387 669 l 1
EndSplineSet
EndChar

StartChar: parenright
Encoding: 41 41 128
Width: 378
GlyphClass: 1
Flags: W
HStem: -161 21G<-42 184.5> 649 20G<107 281>
VStem: 186 145<200.618 506.193>
LayerCount: 2
Fore
SplineSet
331 337 m 0
 331 165 260 6 109 -161 c 1
 -42 -161 l 1
 115 29 186 188 186 353 c 0
 186 451 159 557 107 669 c 1
 256 669 l 1
 306 549 331 439 331 337 c 0
EndSplineSet
EndChar

StartChar: asterisk
Encoding: 42 42 129
Width: 443
GlyphClass: 1
Flags: W
HStem: 336 332
VStem: 76 326
LayerCount: 2
Fore
SplineSet
263 336 m 1
 222 428 l 1
 148 361 l 1
 89 426 l 1
 164 494 l 1
 76 544 l 1
 120 619 l 1
 207 569 l 1
 228 668 l 1
 314 650 l 1
 293 551 l 1
 392 562 l 1
 402 475 l 1
 302 464 l 1
 343 372 l 1
 263 336 l 1
EndSplineSet
EndChar

StartChar: plus
Encoding: 43 43 130
Width: 645
GlyphClass: 1
Flags: W
HStem: 0 21G<231 359> 184 128<39 231 359 551> 476 20G<231 359>
VStem: 231 128<0 184 312 496>
LayerCount: 2
Fore
SplineSet
231 0 m 1
 231 184 l 1
 39 184 l 1
 39 312 l 1
 231 312 l 1
 231 496 l 1
 359 496 l 1
 359 312 l 1
 551 312 l 1
 551 184 l 1
 359 184 l 1
 359 0 l 1
 231 0 l 1
EndSplineSet
EndChar

StartChar: comma
Encoding: 44 44 131
Width: 282
GlyphClass: 1
Flags: W
HStem: -145 328<52.7414 59>
VStem: -9 196<25.3866 147.3>
LayerCount: 2
Fore
SplineSet
90 183 m 0
 145 183 187 142 187 88 c 0
 187 65 181 48 162 17 c 2
 59 -145 l 1
 -40 -145 l 1
 51 -3 l 1
 15 12 -9 47 -9 85 c 0
 -9 141 33 183 90 183 c 0
EndSplineSet
EndChar

StartChar: hyphen
Encoding: 45 45 132
Width: 376
GlyphClass: 1
Flags: W
HStem: 184 129<38 336>
LayerCount: 2
Fore
SplineSet
10 184 m 1
 38 313 l 1
 364 313 l 1
 336 184 l 1
 10 184 l 1
EndSplineSet
EndChar

StartChar: period
Encoding: 46 46 133
Width: 247
GlyphClass: 1
Flags: W
HStem: -12 195<21.5485 142.068>
VStem: -16 195<25.5485 146.068>
LayerCount: 2
Fore
SplineSet
179 86 m 0
 179 32 136 -12 82 -12 c 0
 28 -12 -16 32 -16 86 c 0
 -16 140 27 183 82 183 c 0
 137 183 179 141 179 86 c 0
EndSplineSet
EndChar

StartChar: slash
Encoding: 47 47 134
Width: 442
GlyphClass: 1
Flags: W
HStem: 0 21G<-55 110.006> 648 20G<335.934 499>
LayerCount: 2
Fore
SplineSet
-55 0 m 1
 348 668 l 1
 499 668 l 1
 98 0 l 1
 -55 0 l 1
EndSplineSet
EndChar

StartChar: braceleft
Encoding: 123 123 135
Width: 373
GlyphClass: 1
Flags: W
HStem: -162 120<170.3 234> 548 119<286.51 384>
VStem: 51 151<50.4531 184.721>
LayerCount: 2
Fore
SplineSet
180 -162 m 2
 75 -162 19 -119 19 -40 c 0
 19 -26 20 -13 23 1 c 2
 44 97 l 2
 49 123 51 133 51 143 c 0
 51 177 34 192 -6 192 c 1
 20 315 l 1
 73 315 95 338 110 409 c 2
 131 505 l 2
 160 635 205 667 355 667 c 2
 410 667 l 1
 384 548 l 1
 351 548 l 2
 303 548 284 536 277 503 c 2
 251 380 l 2
 242 338 226 308 203 291 c 0
 180 274 156 262 131 255 c 1
 130 252 l 1
 179 239 202 211 202 166 c 0
 202 155 200 143 197 127 c 2
 172 13 l 2
 170 4 169 -3 169 -9 c 0
 169 -33 183 -42 220 -42 c 2
 260 -42 l 1
 234 -162 l 1
 180 -162 l 2
EndSplineSet
EndChar

StartChar: bar
Encoding: 124 124 136
Width: 299
GlyphClass: 1
Flags: W
HStem: -161 21G<59 205> 648 20G<59 205>
VStem: 59 146<-161 668>
LayerCount: 2
Fore
SplineSet
59 -161 m 1
 59 668 l 1
 205 668 l 1
 205 -161 l 1
 59 -161 l 1
EndSplineSet
EndChar

StartChar: braceright
Encoding: 125 125 137
Width: 373
GlyphClass: 1
Flags: W
HStem: -162 120<-45 53.5012> 548 119<106 170.697>
VStem: 140 150<321.016 460.406>
LayerCount: 2
Fore
SplineSet
-70 -162 m 1
 -45 -42 l 1
 -11 -42 l 2
 37 -42 57 -30 64 2 c 2
 90 126 l 2
 99 169 115 199 138 216 c 0
 161 233 185 245 210 252 c 1
 211 255 l 1
 162 270 140 298 140 343 c 0
 140 356 141 367 144 379 c 2
 170 498 l 2
 172 511 172 512 172 516 c 0
 172 539 158 548 120 548 c 2
 81 548 l 1
 106 667 l 1
 161 667 l 2
 266 667 321 626 321 548 c 0
 321 536 319 522 316 505 c 2
 296 409 l 2
 292 391 290 376 290 364 c 0
 290 329 306 315 346 315 c 1
 320 192 l 1
 268 192 244 167 229 97 c 1
 210 1 l 1
 183 -128 136 -162 -16 -162 c 2
 -70 -162 l 1
EndSplineSet
EndChar

StartChar: asciitilde
Encoding: 126 126 138
Width: 533
GlyphClass: 1
Flags: W
HStem: 167 123<272.833 376.093> 227 123<127.077 230.682>
LayerCount: 2
Fore
SplineSet
494 333 m 1x80
 461 218 409 167 324 167 c 0x80
 257 167 231 227 164 227 c 0
 133 227 115 202 106 146 c 1
 9 184 l 1
 42 299 94 350 180 350 c 0x40
 246 350 273 290 339 290 c 0
 370 290 388 316 396 370 c 1
 494 333 l 1x80
EndSplineSet
EndChar

StartChar: exclamdown
Encoding: 286 161 139
Width: 297
GlyphClass: 1
Flags: W
HStem: -162 21G<-55 147.277> 324 194<105.932 226.491>
VStem: 69 194<360.316 480.875>
LayerCount: 2
Fore
SplineSet
-55 -162 m 1
 -18 11 l 1
 77 264 l 1
 192 264 l 1
 180 11 l 1
 143 -162 l 1
 -55 -162 l 1
263 420 m 0
 263 366 221 324 166 324 c 0
 112 324 69 366 69 420 c 0
 69 475 112 518 166 518 c 0
 221 518 263 475 263 420 c 0
EndSplineSet
EndChar

StartChar: cent
Encoding: 287 162 140
Width: 531
GlyphClass: 1
Flags: W
VStem: 2 154<130.507 299.568> 155 74<-87 -13>
LayerCount: 2
Fore
SplineSet
255 383 m 1x80
 196 357 156 283 156 198 c 0
 156 155 170 127 198 114 c 1
 255 383 l 1x80
270 109 m 1
 299 115 321 129 341 155 c 1
 464 107 l 1
 413 35 338 -6 245 -12 c 1
 229 -87 l 1
 155 -87 l 1x40
 172 -8 l 1
 65 10 2 85 2 195 c 0
 2 363 118 493 282 508 c 1
 295 571 l 1
 368 571 l 1
 354 507 l 1
 432 497 483 457 511 381 c 1
 378 335 l 1
 370 365 354 382 329 388 c 1
 270 109 l 1
EndSplineSet
EndChar

StartChar: sterling
Encoding: 163 163 141
Width: 617
GlyphClass: 1
Flags: W
HStem: -12 125<265.991 498.069> 24 110<151 282.067> 295 73<58 133 315 443> 556 123<299.175 445.935>
VStem: 113 158<381.104 528.407> 158 159<217.07 294.765>
LayerCount: 2
Fore
SplineSet
175 24 m 0x74
 127 24 82 13 33 -12 c 1
 2 104 l 1
 58 129 99 157 122 188 c 0
 146 220 158 250 158 277 c 0xb4
 158 284 157 290 155 295 c 1
 43 295 l 1
 58 368 l 1
 133 368 l 1
 117 426 113 449 113 478 c 0
 113 599 223 679 388 679 c 0
 506 679 587 632 632 537 c 1
 485 487 l 1
 457 536 425 556 374 556 c 0
 306 556 271 527 271 471 c 0xb8
 271 444 280 409 298 368 c 1
 458 368 l 1
 443 295 l 1
 315 295 l 1
 316 288 317 283 317 279 c 0
 317 227 262 162 181 117 c 1
 204 130 227 134 269 134 c 0x74
 329 134 347 113 407 113 c 0
 442 113 478 123 517 144 c 1
 535 23 l 1
 481 -1 429 -12 367 -12 c 0xb4
 290 -12 252 24 175 24 c 0x74
EndSplineSet
EndChar

StartChar: currency
Encoding: 288 164 142
Width: 678
GlyphClass: 1
Flags: W
HStem: 102 119<275.762 398.238> 419 120<274.995 398.83>
VStem: 118 120<259.125 381.839> 436 119<258.752 381.628>
LayerCount: 2
Fore
SplineSet
238 321 m 0
 238 266 282 221 337 221 c 0
 392 221 436 266 436 321 c 0
 436 376 392 419 337 419 c 0
 282 419 238 376 238 321 c 0
555 321 m 0
 555 275 541 231 515 194 c 1
 582 127 l 1
 530 75 l 1
 463 142 l 1
 426 115 385 102 337 102 c 0
 289 102 248 115 211 142 c 1
 144 75 l 1
 92 127 l 1
 159 194 l 1
 132 232 118 276 118 321 c 0
 118 365 132 408 159 446 c 1
 92 513 l 1
 144 565 l 1
 211 498 l 1
 247 525 291 539 337 539 c 0
 383 539 426 525 463 498 c 1
 530 565 l 1
 582 513 l 1
 515 446 l 1
 542 409 555 368 555 321 c 0
EndSplineSet
EndChar

StartChar: yen
Encoding: 289 165 143
Width: 700
GlyphClass: 1
Flags: W
HStem: 0 21G<191 358.267> 75 73<99 207 385 499> 212 74<128 225 442 528> 647 20G<82 259.209 542.188 762>
LayerCount: 2
Fore
SplineSet
191 0 m 1
 207 75 l 1
 83 75 l 1
 99 148 l 1
 222 148 l 1
 236 212 l 1
 112 212 l 1
 128 286 l 1
 225 286 l 1
 82 667 l 1
 253 667 l 1
 339 390 l 1
 558 667 l 1
 762 667 l 1
 442 286 l 1
 544 286 l 1
 528 212 l 1
 398 212 l 1
 385 148 l 1
 515 148 l 1
 499 75 l 1
 370 75 l 1
 354 0 l 1
 191 0 l 1
EndSplineSet
EndChar

StartChar: brokenbar
Encoding: 166 166 144
Width: 281
GlyphClass: 1
Flags: W
HStem: -161 21G<59 187> 648 20G<59 187>
VStem: 59 128<-161 150 358 668>
LayerCount: 2
Fore
SplineSet
59 -161 m 1
 59 150 l 1
 187 150 l 1
 187 -161 l 1
 59 -161 l 1
59 358 m 1
 59 668 l 1
 187 668 l 1
 187 358 l 1
 59 358 l 1
EndSplineSet
EndChar

StartChar: section
Encoding: 167 167 145
Width: 563
GlyphClass: 1
Flags: W
HStem: -174 120<95.6621 213.259> 563 116<306.719 426.246>
VStem: 15 156<230.5 335.917> 147 152<485.986 552.859> 231 157<-34.6787 47.8004> 365 161<198.359 288>
LayerCount: 2
Fore
SplineSet
233 352 m 1xe4
 194 344 171 325 171 301 c 0
 171 278 182 267 260 210 c 0
 272 201 282 194 291 187 c 2
 304 177 l 1
 345 194 365 212 365 232 c 0
 365 254 355 263 233 352 c 1xe4
388 40 m 0xc8
 388 -77 275 -174 138 -174 c 0
 36 -174 -39 -127 -59 -49 c 1
 81 -2 l 1
 85 -34 112 -54 152 -54 c 0
 197 -54 231 -29 231 5 c 0
 231 29 212 51 166 82 c 0
 47 162 15 200 15 261 c 0xe8
 15 338 61 392 159 429 c 1
 151 448 147 469 147 490 c 0
 147 600 241 679 371 679 c 0
 474 679 542 645 571 578 c 1
 432 532 l 1
 426 551 401 563 367 563 c 0
 327 563 299 546 299 523 c 0
 299 508 308 494 328 480 c 0
 371 450 461 382 478 366 c 0
 510 336 526 305 526 271 c 0xd4
 526 238 515 206 494 175 c 0
 473 144 433 118 375 97 c 1
 384 82 388 64 388 40 c 0xc8
EndSplineSet
EndChar

StartChar: dieresis
Encoding: 168 168 146
Width: 455
GlyphClass: 1
Flags: W
HStem: 578 141<148.875 248.625 342.875 443.271>
VStem: 128 141<598.375 698.125> 322 140<598.375 698.125>
LayerCount: 2
Fore
SplineSet
462 648 m 0
 462 609 432 578 393 578 c 0
 354 578 322 609 322 648 c 0
 322 687 354 719 393 719 c 0
 432 719 462 688 462 648 c 0
EndSplineSet
Refer: 70 729 S 1 0 0 1 29 0 2
EndChar

StartChar: copyright
Encoding: 169 169 147
Width: 814
GlyphClass: 1
Flags: W
HStem: -12 69<302.257 512.574> 145 85<364.695 472.998> 437 85<365.474 467.648> 610 69<302.468 512.574>
VStem: 62 70<228.658 438.821> 227 112<257.529 410.883> 684 70<228.658 439.032>
LayerCount: 2
Fore
SplineSet
572 231 m 1
 540 176 482 145 410 145 c 0
 296 145 227 216 227 334 c 0
 227 446 301 522 410 522 c 0
 487 522 544 489 573 428 c 1
 481 394 l 1
 470 422 448 437 416 437 c 0
 368 437 339 398 339 334 c 0
 339 269 368 230 416 230 c 0
 447 230 469 241 482 264 c 1
 572 231 l 1
132 334 m 0
 132 181 255 57 407 57 c 0
 560 57 684 181 684 334 c 0
 684 487 560 610 407 610 c 0
 256 610 132 486 132 334 c 0
754 334 m 0
 754 143 599 -12 407 -12 c 0
 217 -12 62 143 62 334 c 0
 62 524 217 679 407 679 c 0
 599 679 754 524 754 334 c 0
EndSplineSet
EndChar

StartChar: questiondown
Encoding: 290 191 148
Width: 634
GlyphClass: 1
Flags: W
HStem: -172 128<168.669 335.539> 325 194<304.316 424.875>
VStem: -21 175<-29.6978 46.0072> 268 194<361.316 481.875>
LayerCount: 2
Fore
SplineSet
234 -172 m 0
 77 -172 -21 -114 -21 -21 c 0
 -21 61 25 116 134 163 c 0
 214 198 237 217 256 265 c 1
 417 265 l 1
 408 193 359 135 276 97 c 0
 169 50 154 39 154 9 c 0
 154 -26 185 -44 246 -44 c 0
 312 -44 362 -19 379 22 c 1
 517 -33 l 1
 464 -126 371 -172 234 -172 c 0
462 421 m 0
 462 367 419 325 364 325 c 0
 310 325 268 367 268 421 c 0
 268 476 310 519 364 519 c 0
 419 519 462 476 462 421 c 0
EndSplineSet
EndChar

StartChar: germandbls
Encoding: 291 223 149
Width: 631
GlyphClass: 1
Flags: W
HStem: -13 125<252.714 384.338> 0 21G<-23 138.245> 298 117<302 394.178> 566 114<284.754 432.918>
VStem: -23 157<0 157> 424 162<149.622 269.537> 452 150<454.854 547.466>
LayerCount: 2
Fore
SplineSet
452 502 m 0xba
 452 543 420 566 365 566 c 0
 283 566 246 529 224 424 c 2
 134 0 l 1
 -23 0 l 1
 70 435 l 2
 108 609 196 680 376 680 c 0
 515 680 602 618 602 520 c 0x7a
 602 455 574 406 516 368 c 1
 560 346 586 296 586 232 c 0
 586 76 483 -13 303 -13 c 0
 290 -13 277 -12 253 -11 c 1
 241 123 l 1
 269 116 293 112 312 112 c 0
 383 112 424 150 424 214 c 0xbc
 424 270 385 298 307 298 c 2
 277 298 l 1
 302 415 l 1
 328 415 l 2
 395 415 452 455 452 502 c 0xba
EndSplineSet
EndChar

StartChar: AE
Encoding: 292 198 150
Width: 1016
GlyphClass: 1
Flags: W
HStem: 0 139<602 929> 119 128<354 437> 275 138<660 849> 529 139<685 1042>
AnchorPoint: "Anchor-0" 763 668 basechar 0
LayerCount: 2
Fore
SplineSet
354 247 m 1x70
 464 247 l 1
 501 421 l 1
 354 247 l 1x70
-65 0 m 1xb0
 553 668 l 1
 1071 668 l 1
 1042 529 l 1
 685 529 l 1
 660 413 l 1
 879 413 l 1
 849 275 l 1
 631 275 l 1
 602 139 l 1
 959 139 l 1
 929 0 l 1
 411 0 l 1xb0
 437 119 l 1
 241 119 l 1x70
 136 0 l 1
 -65 0 l 1xb0
EndSplineSet
EndChar

StartChar: florin
Encoding: 293 402 151
Width: 390
GlyphClass: 1
Flags: W
HStem: -173 140<-61.1149 18.6298> 381 115<53 111 287 371> 608 121<310.757 419>
LayerCount: 2
Fore
SplineSet
-59 -31 m 1
 -48 -32 -40 -33 -34 -33 c 0
 10 -33 27 -15 38 39 c 2
 111 381 l 1
 29 381 l 1
 53 496 l 1
 135 496 l 1
 153 578 l 2
 177 689 236 729 376 729 c 2
 445 729 l 1
 419 608 l 1
 377 608 l 2
 323 608 310 600 302 564 c 2
 287 496 l 1
 395 496 l 1
 371 381 l 1
 263 381 l 1
 179 -16 l 2
 158 -119 93 -173 -10 -173 c 0
 -36 -173 -63 -170 -87 -164 c 1
 -59 -31 l 1
EndSplineSet
EndChar

StartChar: integral
Encoding: 294 8747 152
Width: 344
GlyphClass: 1
Flags: W
HStem: -174 144<-11.9001 55.0031> 536 144<255.754 323.847>
VStem: -45 112<-104.719 -42.1613> 85 135<155.479 558.689> 93 135<-53.3278 350.521> 246 111<547.506 610.652>
LayerCount: 2
Fore
SplineSet
85 396 m 0xf4
 85 583 143 680 255 680 c 0
 312 680 357 644 357 598 c 0
 357 561 335 536 302 536 c 0
 269 536 246 558 246 589 c 0
 246 598 247 605 249 611 c 1
 230 602 220 566 220 504 c 0xf4
 220 470 228 144 228 110 c 0
 228 -80 170 -174 54 -174 c 0
 1 -174 -45 -136 -45 -93 c 0
 -45 -57 -22 -30 10 -30 c 0
 42 -30 67 -55 67 -86 c 0
 67 -93 66 -99 64 -105 c 1
 85 -95 93 -65 93 2 c 0xec
 93 35 85 363 85 396 c 0xf4
EndSplineSet
EndChar

StartChar: approxequal
Encoding: 295 8776 153
Width: 556
GlyphClass: 1
Flags: W
HStem: 59 123<280.805 373.515> 118 125<147.343 239.721> 257 123<282.048 373.415> 317 124<147.216 239.721>
VStem: 36 104<92.4423 113.471 291.442 312.13> 382 104<187.705 208.558 385.705 406.49>
LayerCount: 2
Fore
SplineSet
36 95 m 1x4c
 47 197 89 243 170 243 c 0x4c
 240 243 272 182 342 182 c 0
 368 182 381 202 382 244 c 1
 486 206 l 1
 476 105 435 59 354 59 c 0x8c
 282 59 252 118 180 118 c 0
 153 118 141 100 140 57 c 1
 36 95 l 1x4c
486 404 m 1
 476 303 434 257 354 257 c 0x2c
 282 257 252 317 180 317 c 0
 153 317 141 299 140 256 c 1
 36 294 l 1
 46 394 88 441 170 441 c 0x1c
 240 441 272 380 342 380 c 0x2c
 368 380 381 400 382 441 c 1x1c
 486 404 l 1
EndSplineSet
EndChar

StartChar: notequal
Encoding: 296 8800 154
Width: 661
GlyphClass: 1
Flags: W
HStem: 0 21G<64 231.167> 96 129<58 131 374 570> 283 127<58 262 504 570> 475 20G<397.118 564>
LayerCount: 2
Fore
SplineSet
64 0 m 1
 131 96 l 1
 58 96 l 1
 58 225 l 1
 221 225 l 1
 262 283 l 1
 58 283 l 1
 58 410 l 1
 352 410 l 1
 411 495 l 1
 564 495 l 1
 504 410 l 1
 570 410 l 1
 570 283 l 1
 414 283 l 1
 374 225 l 1
 570 225 l 1
 570 96 l 1
 285 96 l 1
 217 0 l 1
 64 0 l 1
EndSplineSet
EndChar

StartChar: lessequal
Encoding: 297 8804 155
Width: 676
GlyphClass: 1
Flags: W
HStem: 0 128<53 565> 490 20G<482.419 565>
LayerCount: 2
Fore
SplineSet
565 136 m 1
 53 260 l 1
 53 386 l 1
 565 510 l 1
 565 381 l 1
 228 324 l 1
 565 265 l 1
 565 136 l 1
EndSplineSet
Refer: 159 8722 S 1 0 0 1 14 -184 2
EndChar

StartChar: greaterequal
Encoding: 298 8805 156
Width: 702
GlyphClass: 1
Flags: W
HStem: 0 128<79 591> 490 20G<79 161.581>
LayerCount: 2
Fore
SplineSet
79 136 m 1
 79 265 l 1
 416 324 l 1
 79 381 l 1
 79 510 l 1
 591 386 l 1
 591 260 l 1
 79 136 l 1
EndSplineSet
Refer: 159 8722 S 1 0 0 1 40 -184 2
EndChar

StartChar: lozenge
Encoding: 299 9674 157
Width: 607
GlyphClass: 1
Flags: W
LayerCount: 2
Fore
SplineSet
301 124 m 1
 425 313 l 1
 301 502 l 1
 176 313 l 1
 301 124 l 1
301 -91 m 1
 38 313 l 1
 301 716 l 1
 563 313 l 1
 301 -91 l 1
EndSplineSet
EndChar

StartChar: summation
Encoding: 300 8721 158
Width: 793
GlyphClass: 1
Flags: W
HStem: -162 128<283 648> 540 128<283 648>
LayerCount: 2
Fore
SplineSet
113 -162 m 1
 113 -34 l 1
 350 254 l 1
 113 540 l 1
 113 668 l 1
 648 668 l 1
 648 540 l 1
 283 540 l 1
 522 254 l 1
 283 -34 l 1
 648 -34 l 1
 648 -162 l 1
 113 -162 l 1
EndSplineSet
EndChar

StartChar: minus
Encoding: 301 8722 159
Width: 645
GlyphClass: 1
Flags: W
HStem: 184 128<39 551>
LayerCount: 2
Fore
SplineSet
39 184 m 1
 39 312 l 1
 551 312 l 1
 551 184 l 1
 39 184 l 1
EndSplineSet
EndChar

StartChar: uni2219
Encoding: 303 8729 161
Width: 281
GlyphClass: 1
Flags: W
HStem: 157 194<64.5485 185.068>
VStem: 27 195<194.548 314.684>
LayerCount: 2
Fore
SplineSet
222 255 m 0
 222 201 179 157 125 157 c 0
 71 157 27 201 27 255 c 0
 27 309 70 351 125 351 c 0
 180 351 222 309 222 255 c 0
EndSplineSet
EndChar

StartChar: radical
Encoding: 304 8730 162
Width: 615
GlyphClass: 1
Flags: W
HStem: -162 21G<262.373 432.277> 93 132<19 161> 648 20G<496.679 646>
VStem: 502 144<524 668>
LayerCount: 2
Fore
SplineSet
271 -162 m 1
 161 93 l 1
 19 93 l 1
 19 225 l 1
 252 225 l 1
 332 29 l 1
 502 668 l 1
 646 668 l 1
 427 -162 l 1
 271 -162 l 1
EndSplineSet
EndChar

StartChar: infinity
Encoding: 305 8734 163
Width: 757
GlyphClass: 1
Flags: W
HStem: 97 107<160.199 264.987 459.855 564.801> 306 106<159.445 266.806 459.193 566.108>
VStem: 29 120<216.424 295.016> 576 120<216.424 295.344>
LayerCount: 2
Fore
SplineSet
429 256 m 1
 458 221 486 204 517 204 c 0
 551 204 576 226 576 256 c 0
 576 286 551 306 515 306 c 0
 486 306 457 289 429 256 c 1
149 256 m 0
 149 226 174 204 208 204 c 0
 239 204 267 221 296 256 c 1
 267 290 239 306 210 306 c 0
 174 306 149 285 149 256 c 0
362 176 m 1
 310 121 262 97 201 97 c 0
 102 97 29 164 29 255 c 0
 29 344 105 412 205 412 c 0
 263 412 313 388 362 336 c 1
 412 388 462 412 520 412 c 0
 621 412 696 345 696 255 c 0
 696 164 623 97 524 97 c 0
 463 97 414 121 362 176 c 1
EndSplineSet
EndChar

StartChar: uni03A9
Encoding: 217 937 164
Width: 744
GlyphClass: 1
Flags: W
HStem: 0 115<5 142 454 567> 564 116<296.679 463.716>
VStem: 57 124<281.753 437.095> 532 123<344.317 498.512>
LayerCount: 2
Fore
SplineSet
185 392 m 0
 183 380 181 368 181 357 c 0
 181 287 227 233 296 223 c 1
 249 0 l 1
 -19 0 l 1
 5 115 l 1
 142 115 l 1
 147 139 l 1
 88 182 57 247 57 324 c 0
 57 509 223 680 406 680 c 4
 548 680 655 580 655 444 c 0
 655 425 653 405 649 386 c 0
 628 286 556 193 459 139 c 1
 454 115 l 1
 591 115 l 1
 567 0 l 1
 299 0 l 1
 346 223 l 1
 432 235 510 307 528 392 c 0
 530 403 532 414 532 425 c 0
 532 505 467 564 382 564 c 4
 289 564 206 491 185 392 c 0
EndSplineSet
EndChar

StartChar: estimated
Encoding: 306 8494 165
Width: 610
GlyphClass: 1
Flags: W
HStem: -12 70<202.623 377.8> 249 66<167 415> 440 70<202.623 377.988>
VStem: 30 137<147.047 249 315 350.531>
LayerCount: 2
Fore
SplineSet
292 440 m 0
 245 440 201 424 167 394 c 1
 167 315 l 1
 415 315 l 1
 415 394 l 1
 380 425 339 440 292 440 c 0
507 103 m 1
 458 31 378 -12 292 -12 c 0
 147 -12 30 104 30 249 c 0
 30 393 147 510 292 510 c 0
 436 510 552 393 552 249 c 1
 167 249 l 1
 167 104 l 1
 201 74 245 58 292 58 c 0
 349 58 403 84 439 128 c 1
 507 103 l 1
EndSplineSet
EndChar

StartChar: partialdiff
Encoding: 307 8706 166
Width: 594
GlyphClass: 1
Flags: W
HStem: -12 119<214.693 337.681> 315 120<213.672 339.05> 561 119<152 308.034>
VStem: 21 151<147.786 274.608> 379 157<160.361 397.938>
LayerCount: 2
Fore
SplineSet
172 211 m 0
 172 153 218 107 276 107 c 0
 334 107 379 153 379 211 c 0
 379 270 334 315 276 315 c 0
 217 315 172 270 172 211 c 0
536 315 m 0
 536 103 442 -12 269 -12 c 0
 121 -12 21 78 21 212 c 0
 21 336 120 435 245 435 c 0
 319 435 383 406 422 356 c 1
 413 495 336 561 185 561 c 0
 169 561 161 561 152 560 c 1
 152 680 l 1
 424 680 536 573 536 315 c 0
EndSplineSet
EndChar

StartChar: uni0394
Encoding: 196 916 167
Width: 715
GlyphClass: 1
Flags: W
HStem: 0 115<111 367> 660 20G<345.471 364.088>
LayerCount: 2
Fore
SplineSet
111 115 m 1
 367 115 l 1
 304 418 l 1
 111 115 l 1
-101 0 m 1
 359 680 l 1
 532 0 l 1
 -101 0 l 1
EndSplineSet
EndChar

StartChar: product
Encoding: 308 8719 168
Width: 790
GlyphClass: 1
Flags: W
HStem: -161 21G<113 241 517 645> 552 116<241 517>
VStem: 113 128<-161 552> 517 128<-161 552>
LayerCount: 2
Fore
SplineSet
113 -161 m 1
 113 668 l 1
 645 668 l 1
 645 -161 l 1
 517 -161 l 1
 517 552 l 1
 241 552 l 1
 241 -161 l 1
 113 -161 l 1
EndSplineSet
EndChar

StartChar: pi
Encoding: 240 960 169
Width: 638
GlyphClass: 1
Flags: W
HStem: 1 104<477.166 536> 380 116<53 117 248 398 529 617>
VStem: 36 131<0 131> 338 139<56.5 200.875>
LayerCount: 2
Fore
SplineSet
458 1 m 2
 378 1 338 29 338 84 c 0
 338 97 339 108 342 118 c 2
 398 380 l 1
 248 380 l 1
 167 0 l 1
 36 0 l 1
 117 380 l 1
 28 380 l 1
 53 496 l 1
 642 496 l 1
 617 380 l 1
 529 380 l 1
 480 152 l 2
 478 143 477 136 477 130 c 0
 477 112 491 105 526 105 c 2
 559 105 l 1
 536 1 l 1
 458 1 l 2
EndSplineSet
EndChar

StartChar: hungarumlaut
Encoding: 309 733 170
Width: 502
GlyphClass: 1
Flags: W
HStem: 572 154
LayerCount: 2
Fore
SplineSet
474 726 m 0
 505 726 530 700 530 668 c 0
 530 644 524 635 493 616 c 0
 433 580 433 581 432 580 c 2
 419 572 l 1
 297 572 l 1
 424 698 l 2
 434 708 438 713 439 713 c 0
 448 722 459 726 474 726 c 0
267 726 m 0
 298 726 323 700 323 668 c 0
 323 644 317 635 286 616 c 0
 226 580 226 581 225 580 c 2
 212 572 l 1
 89 572 l 1
 104 586 l 2
 114 595 125 607 139 621 c 2
 216 698 l 2
 229 711 231 713 232 713 c 0
 241 722 252 726 267 726 c 0
EndSplineSet
EndChar

StartChar: tilde
Encoding: 310 732 171
Width: 461
GlyphClass: 1
Flags: W
HStem: 568 80<296.096 408.936> 607 82<186.391 296.096>
LayerCount: 2
Fore
SplineSet
453 690 m 0x80
 475 690 492 673 492 651 c 0
 492 631 479 613 446 588 c 0
 428 575 402 568 370 568 c 0x80
 303 568 296 607 229 607 c 0
 208 607 191 596 178 574 c 1
 89 574 l 1
 110 642 166 689 225 689 c 0x40
 293 689 296 648 364 648 c 0
 411 648 406 690 453 690 c 0x80
EndSplineSet
EndChar

StartChar: endash
Encoding: 311 8211 172
Width: 536
GlyphClass: 1
Flags: W
HStem: 185 128<38 464>
LayerCount: 2
Fore
SplineSet
38 185 m 1
 38 313 l 1
 464 313 l 1
 464 185 l 1
 38 185 l 1
EndSplineSet
EndChar

StartChar: emdash
Encoding: 312 8212 173
Width: 870
GlyphClass: 1
Flags: W
HStem: 185 128<38 798>
LayerCount: 2
Fore
SplineSet
38 185 m 1
 38 313 l 1
 798 313 l 1
 798 185 l 1
 38 185 l 1
EndSplineSet
EndChar

StartChar: trademark
Encoding: 313 8482 174
Width: 1013
GlyphClass: 1
Flags: W
HStem: 301 367<234 343 487 594 859 966> 575 93<113 234 343 463>
VStem: 234 109<301 575> 487 107<301 558> 859 107<301 558>
LayerCount: 2
Fore
SplineSet
234 301 m 1xb8
 234 575 l 1
 113 575 l 1
 113 668 l 1
 463 668 l 1
 463 575 l 1
 343 575 l 1x78
 343 301 l 1
 234 301 l 1xb8
487 301 m 1xb8
 487 668 l 1xb8
 660 668 l 1
 726 432 l 1
 793 668 l 1x78
 966 668 l 1
 966 301 l 1
 859 301 l 1
 859 558 l 1
 775 301 l 1
 678 301 l 1
 594 558 l 1
 594 301 l 1
 487 301 l 1xb8
EndSplineSet
EndChar

StartChar: Euro
Encoding: 164 8364 175
Width: 704
GlyphClass: 1
Flags: W
HStem: -12 130<302.897 460.077> 231 74<43 96.3988 250 314> 366 74<71 103 279 418> 553 127<362.397 517.622>
LayerCount: 2
Fore
SplineSet
647 140 m 1
 585 39 492 -12 367 -12 c 0
 207 -12 107 77 94 231 c 1
 -13 231 l 1
 43 305 l 1
 94 305 l 1
 96 322 99 342 103 366 c 1
 15 366 l 1
 71 440 l 1
 123 440 l 1
 177 592 298 680 454 680 c 0
 581 680 667 626 700 525 c 1
 561 475 l 1
 539 528 502 553 443 553 c 0
 373 553 314 513 279 440 c 1
 474 440 l 1
 418 366 l 1
 254 366 l 1
 251 352 251 352 245 305 c 1
 370 305 l 1
 314 231 l 1
 250 231 l 1
 264 160 309 118 371 118 c 0
 435 118 484 143 518 194 c 1
 647 140 l 1
EndSplineSet
EndChar

StartChar: uni2113
Encoding: 314 8467 176
Width: 506
GlyphClass: 1
Flags: W
HStem: -12 122<169.5 326.384> 573 107<316.419 383.422>
VStem: 64 163<73 156.258> 385 125<470.439 571.896>
LayerCount: 2
Fore
SplineSet
270 373 m 1
 334 412 385 486 385 540 c 0
 385 562 375 573 354 573 c 0
 324 573 307 552 296 501 c 2
 270 373 l 1
276 110 m 0
 302 110 329 120 362 141 c 1
 400 52 l 1
 381 39 357 24 327 10 c 0
 297 -5 261 -12 219 -12 c 0
 120 -12 64 33 64 113 c 0
 64 125 65 135 69 157 c 1
 -5 112 l 1
 18 218 l 1
 92 265 l 1
 132 452 l 2
 165 607 236 680 356 680 c 0
 456 680 510 638 510 561 c 0
 510 460 454 397 247 264 c 1
 231 191 l 2
 228 178 227 167 227 156 c 0
 227 124 242 110 276 110 c 0
EndSplineSet
EndChar

StartChar: Lslash
Encoding: 315 321 177
Width: 595
GlyphClass: 1
Flags: W
HStem: 0 140<219 510> 648 20G<166.75 331>
VStem: 171 160<508 668>
LayerCount: 2
Fore
SplineSet
28 0 m 1
 76 225 l 1
 -15 177 l 1
 11 300 l 1
 103 348 l 1
 171 668 l 1
 331 668 l 1
 283 445 l 1
 459 538 l 1
 433 414 l 1
 258 322 l 1
 219 140 l 1
 539 140 l 1
 510 0 l 1
 28 0 l 1
EndSplineSet
EndChar

StartChar: lslash
Encoding: 316 322 178
Width: 342
GlyphClass: 1
Flags: W
HStem: 0 124<199.258 269> 487 20G<338.462 371.738> 648 20G<141.799 301>
VStem: 29 168<79.5 218.031> 146 155<513 668>
LayerCount: 2
Fore
SplineSet
197 160 m 0xf0
 197 134 212 124 252 124 c 2
 294 124 l 1
 269 0 l 1
 172 0 l 2
 130 0 95 8 68 22 c 0
 42 36 29 61 29 98 c 0xf0
 29 110 30 122 34 140 c 2
 53 228 l 1
 -23 188 l 1
 3 309 l 1
 79 349 l 1
 146 668 l 1
 301 668 l 1xe8
 254 442 l 1
 376 507 l 1
 350 385 l 1
 229 321 l 1
 204 205 l 2
 199 185 197 171 197 160 c 0xf0
EndSplineSet
EndChar

StartChar: oslash
Encoding: 317 248 179
Width: 577
GlyphClass: 1
Flags: W
HStem: -12 118<190.021 313.639> 392 118<230.943 350.416>
VStem: 5 156<201.894 306.4> 382 156<184.457 304.072>
AnchorPoint: "Anchor-1" 317 496 basechar 0
LayerCount: 2
Fore
SplineSet
189 125 m 1
 205 112 223 106 248 106 c 0
 328 106 382 181 382 291 c 2
 382 306 l 1
 189 125 l 1
161 200 m 1
 351 376 l 1
 336 387 318 392 296 392 c 0
 215 392 161 316 161 200 c 1
538 295 m 0
 538 113 418 -12 242 -12 c 0
 181 -12 130 3 88 32 c 1
 26 -27 l 1
 -25 27 l 1
 38 85 l 1
 16 119 5 159 5 204 c 0
 5 384 128 510 304 510 c 0
 361 510 412 496 451 470 c 1
 514 529 l 1
 565 475 l 1
 503 418 l 1
 527 383 538 344 538 295 c 0
EndSplineSet
EndChar

StartChar: Oslash
Encoding: 318 216 180
Width: 761
GlyphClass: 1
Flags: W
HStem: -12 130<268.826 429.033> 550 130<331.455 490.398>
VStem: 30 169<232.208 402.279> 562 168<267.338 450.314>
AnchorPoint: "Anchor-1" 456 668 basechar 0
LayerCount: 2
Fore
SplineSet
241 163 m 1
 268 133 304 118 348 118 c 0
 468 118 562 233 562 380 c 0
 562 403 558 425 551 451 c 1
 241 163 l 1
413 550 m 0
 293 550 199 434 199 286 c 0
 199 264 201 246 206 231 c 1
 510 514 l 1
 484 537 449 550 413 550 c 0
730 394 m 0
 730 159 563 -12 333 -12 c 0
 249 -12 177 11 124 54 c 1
 55 -11 l 1
 4 43 l 1
 75 109 l 1
 45 154 30 208 30 269 c 0
 30 502 201 680 425 680 c 0
 507 680 573 661 626 622 c 1
 695 686 l 1
 746 633 l 1
 678 569 l 1
 713 523 730 465 730 394 c 0
EndSplineSet
EndChar

StartChar: Thorn
Encoding: 319 222 181
Width: 623
GlyphClass: 1
Flags: W
HStem: 0 21G<-23 143.219> 128 141<196 397.309> 426 137<259 425.123> 648 20G<114.749 280>
VStem: 444 168<310.008 410.9>
LayerCount: 2
Fore
SplineSet
444 372 m 0
 444 411 412 426 332 426 c 2
 230 426 l 1
 196 269 l 1
 294 269 l 2
 397 269 444 301 444 372 c 0
612 389 m 0
 612 209 501 128 255 128 c 2
 166 128 l 1
 139 0 l 1
 -23 0 l 1
 119 668 l 1
 280 668 l 1
 259 563 l 1
 347 563 l 2
 529 563 612 509 612 389 c 0
EndSplineSet
EndChar

StartChar: ae
Encoding: 320 230 182
Width: 886
GlyphClass: 1
Flags: W
HStem: -13 102<149.368 265.686> -12 118<498.902 656.15> 209 90<170.398 332 487 715.764> 398 112<545.405 689.04> 407 103<211.977 343.175>
VStem: -18 161<96.1219 184.444> 716 134<299.094 369.421>
AnchorPoint: "Anchor-1" 451 496 basechar 0
LayerCount: 2
Fore
SplineSet
313 209 m 2xa6
 183 209 143 192 143 136 c 0
 143 106 163 89 196 89 c 0
 248 89 304 128 322 178 c 0
 326 190 329 201 332 209 c 1
 313 209 l 2xa6
716 313 m 2
 716 365 680 398 622 398 c 0x36
 558 398 504 358 487 299 c 1
 715 299 l 1
 716 301 716 303 716 306 c 2
 716 313 l 2
372 78 m 1
 319 19 247 -13 165 -13 c 0
 53 -13 -18 38 -18 118 c 0
 -18 238 105 299 345 299 c 1
 353 338 354 346 354 353 c 0
 354 389 330 407 282 407 c 0
 236 407 198 385 181 348 c 1
 63 394 l 1
 114 472 192 510 303 510 c 0xae
 366 510 417 489 442 452 c 1
 492 492 550 510 627 510 c 0
 698 510 753 491 792 452 c 0
 831 413 850 362 850 297 c 0
 850 273 846 245 839 209 c 1
 473 209 l 1
 471 195 471 193 471 188 c 0
 471 137 509 106 573 106 c 0
 614 106 656 121 678 143 c 1
 791 98 l 1
 733 26 649 -12 549 -12 c 0x76
 470 -12 409 19 372 78 c 1
EndSplineSet
EndChar

StartChar: eth
Encoding: 321 240 183
Width: 581
GlyphClass: 1
Flags: W
HStem: -12 113<177.425 306.385> 338 118<193.243 325.087> 604 122<233 312.065>
VStem: 2 139<137.665 281.916> 410 138<266.5 512.026>
LayerCount: 2
Fore
SplineSet
141 205 m 0
 141 144 181 101 237 101 c 0
 313 101 357 152 357 238 c 0
 357 300 321 338 261 338 c 0
 191 338 141 283 141 205 c 0
233 726 m 1
 312 723 375 706 424 673 c 1
 498 734 l 1
 535 686 l 1
 470 633 l 1
 519 579 548 487 548 384 c 0
 548 149 418 -12 228 -12 c 0
 89 -12 2 70 2 201 c 0
 2 350 110 456 262 456 c 0
 321 456 384 425 409 384 c 1
 410 391 410 397 410 411 c 0
 410 467 394 517 366 547 c 1
 289 483 l 1
 252 530 l 1
 315 584 l 1
 287 597 250 604 207 604 c 1
 233 726 l 1
EndSplineSet
EndChar

StartChar: thorn
Encoding: 322 254 184
Width: 589
GlyphClass: 1
Flags: W
HStem: -161 21G<-55 105.237> -12 119<208.218 328.465> 392 119<288.879 430.5> 648 20G<116.754 276>
VStem: -55 156<-161 -5> 121 155<513 668> 393 158<178.69 362.52>
LayerCount: 2
Fore
SplineSet
173 214 m 0
 173 151 209 107 261 107 c 0
 338 107 393 176 393 273 c 0
 393 354 365 392 306 392 c 0
 231 392 173 314 173 214 c 0
287 -12 m 0
 227 -12 169 25 151 75 c 1
 101 -161 l 1
 -55 -161 l 1
 121 668 l 1
 276 668 l 1
 227 434 l 1
 261 483 315 511 376 511 c 0
 485 511 551 434 551 306 c 0
 551 124 438 -12 287 -12 c 0
EndSplineSet
EndChar

StartChar: multiply
Encoding: 323 215 185
Width: 618
GlyphClass: 1
Flags: W
LayerCount: 2
Fore
SplineSet
149 22 m 1
 58 112 l 1
 194 248 l 1
 55 385 l 1
 146 476 l 1
 284 337 l 1
 421 476 l 1
 512 385 l 1
 373 248 l 1
 509 112 l 1
 418 22 l 1
 284 158 l 1
 149 22 l 1
EndSplineSet
EndChar

StartChar: divide
Encoding: 324 247 186
Width: 645
GlyphClass: 1
Flags: W
HStem: -12 159<243.132 348.868> 186 128<40 552> 351 159<242.736 349.264>
VStem: 217 158<12.8754 120.868 375.875 485.648>
LayerCount: 2
Fore
SplineSet
375 68 m 0
 375 24 340 -12 296 -12 c 0
 252 -12 217 24 217 68 c 0
 217 111 253 147 296 147 c 0
 339 147 375 111 375 68 c 0
375 431 m 0
 375 387 340 351 296 351 c 0
 252 351 217 387 217 431 c 0
 217 475 252 510 296 510 c 0
 340 510 375 475 375 431 c 0
EndSplineSet
Refer: 159 8722 S 1 0 0 1 1 2 2
EndChar

StartChar: OE
Encoding: 325 338 187
Width: 1095
GlyphClass: 1
Flags: W
HStem: -12 131<271.187 434.243> 0 140<681 1008> 275 138<739 928> 529 139<764 1120> 550 130<331.459 491.902>
VStem: 31 169<192.804 402.86>
LayerCount: 2
Fore
SplineSet
200 286 m 0xac
 200 185 259 119 348 119 c 0
 470 119 563 232 563 380 c 0
 563 483 504 550 413 550 c 0
 294 550 200 434 200 286 c 0xac
528 59 m 1
 483 14 410 -12 328 -12 c 0
 148 -12 31 98 31 269 c 0
 31 505 199 680 425 680 c 0xac
 519 680 599 649 642 596 c 1
 657 668 l 1
 1150 668 l 1
 1120 529 l 1
 764 529 l 1
 739 413 l 1
 957 413 l 1
 928 275 l 1
 710 275 l 1
 681 140 l 1
 1037 140 l 1
 1008 0 l 1
 515 0 l 1x74
 528 59 l 1
EndSplineSet
EndChar

StartChar: oe
Encoding: 326 339 188
Width: 937
GlyphClass: 1
Flags: W
HStem: -12 119<179.706 305.547 546.955 703.186> 210 90<540 767.999> 392 119<232.082 358.859 590.501 748.53>
VStem: -1 156<131.338 301.119> 768 134<300.131 374.324>
LayerCount: 2
Fore
SplineSet
155 198 m 0
 155 139 184 107 237 107 c 0
 321 107 382 190 382 302 c 0
 382 361 353 392 298 392 c 0
 216 392 155 309 155 198 c 0
768 321 m 0
 768 368 733 398 678 398 c 0
 613 398 556 358 540 300 c 1
 766 300 l 1
 767 308 768 315 768 321 c 0
-1 181 m 0
 -1 372 132 511 314 511 c 0
 390 511 452 480 483 427 c 1
 522 475 612 511 694 511 c 0
 827 511 902 437 902 307 c 0
 902 278 898 245 890 210 c 1
 522 210 l 1
 520 196 520 193 520 188 c 0
 520 138 558 106 619 106 c 0
 660 106 700 120 723 143 c 1
 834 99 l 1
 765 24 685 -12 588 -12 c 0
 514 -12 447 14 413 56 c 1
 361 14 287 -12 220 -12 c 0
 79 -12 -1 58 -1 181 c 0
EndSplineSet
EndChar

StartChar: Aring
Encoding: 330 197 192
Width: 698
GlyphClass: 2
Flags: W
HStem: 0 21G<-65 132.092 455.311 623> 119 128<255 427> 794 85<392.552 471.804>
VStem: 300 85<707.465 786.448> 479 86<708.135 786.572>
AnchorPoint: "Anchor-2" 577 10 basechar 0
AnchorPoint: "Anchor-1" 461 879 basechar 0
AnchorPoint: "Anchor-0" 296 0 basechar 0
LayerCount: 2
Fore
SplineSet
565 747 m 0
 565 707 547 670 516 644 c 1
 623 0 l 1
 458 0 l 1
 442 119 l 1
 187 119 l 1
 121 0 l 1
 -65 0 l 1
 328 666 l 1
 309 691 300 718 300 747 c 0
 300 820 359 879 432 879 c 0
 506 879 565 820 565 747 c 0
255 247 m 1
 427 247 l 1
 395 501 l 1
 255 247 l 1
385 747 m 0
 385 721 406 700 432 700 c 0
 458 700 479 721 479 747 c 0
 479 774 459 794 432 794 c 0
 406 794 385 773 385 747 c 0
EndSplineSet
EndChar

StartChar: Ccedilla
Encoding: 341 199 203
Width: 673
GlyphClass: 2
Flags: W
HStem: -195 54<183.323 300.308> -12 132<317 418.546> 550 130<323.593 482.465>
VStem: 32 168<184.72 404.944> 304 91<-135.587 -86.8554>
AnchorPoint: "Anchor-1" 428 668 basechar 0
AnchorPoint: "Anchor-0" 270 -195 basechar 0
LayerCount: 2
Fore
SplineSet
395 -103 m 0
 395 -161 346 -195 262 -195 c 0
 227 -195 188 -188 166 -178 c 1
 192 -128 l 1
 210 -137 230 -141 252 -141 c 0
 283 -141 304 -128 304 -109 c 0
 304 -94 288 -84 265 -84 c 0
 248 -84 253 -89 236 -89 c 0
 225 -89 217 -82 217 -71 c 0
 217 -66 219 -62 223 -57 c 2
 264 -8 l 1
 116 14 32 112 32 265 c 0
 32 510 189 680 417 680 c 0
 547 680 639 624 671 525 c 1
 525 476 l 1
 504 526 464 550 401 550 c 0
 288 550 200 433 200 283 c 0
 200 228 212 189 238 162 c 0
 264 135 297 121 338 120 c 0
 396 120 442 144 480 194 c 1
 616 141 l 1
 551 40 451 -12 322 -12 c 2
 317 -12 l 1
 288 -47 l 1
 298 -45 307 -44 316 -44 c 0
 363 -44 395 -68 395 -103 c 0
EndSplineSet
EndChar

StartChar: ccedilla
Encoding: 342 231 204
Width: 531
GlyphClass: 2
Flags: W
HStem: -195 54<84.3233 201.308> -12 117<218 312.262> 392 118<233.782 361.774>
VStem: 2 154<129.401 301.257> 205 91<-135.587 -86.8554>
AnchorPoint: "Anchor-1" 318 496 basechar 0
AnchorPoint: "Anchor-0" 212 0 basechar 0
LayerCount: 2
Fore
SplineSet
156 198 m 0
 156 139 185 105 236 105 c 0
 283 105 313 119 341 154 c 1
 464 107 l 1
 408 29 325 -12 223 -12 c 2
 218 -12 l 1
 189 -47 l 1
 199 -45 208 -44 217 -44 c 0
 264 -44 296 -68 296 -103 c 0
 296 -161 247 -195 163 -195 c 0
 128 -195 89 -188 67 -178 c 1
 93 -128 l 1
 111 -137 131 -141 153 -141 c 0
 184 -141 205 -128 205 -109 c 0
 205 -94 189 -84 166 -84 c 0
 149 -84 154 -89 137 -89 c 0
 126 -89 118 -82 118 -71 c 0
 118 -66 120 -62 124 -57 c 2
 166 -7 l 1
 64 12 2 89 2 194 c 0
 2 376 135 510 316 510 c 0
 358 510 397 501 432 482 c 0
 467 464 493 430 511 382 c 1
 378 336 l 1
 370 374 345 392 299 392 c 0
 217 392 156 309 156 198 c 0
EndSplineSet
EndChar

StartChar: Eth
Encoding: 387 208 249
AltUni2: 000189.ffffffff.0 000110.ffffffff.0
Width: 738
GlyphClass: 1
Flags: W
HStem: 0 133<214 393.803> 275 137<36 82 273 399> 537 131<300 475.11>
VStem: 538 168<283.555 484.585>
LayerCount: 2
Fore
SplineSet
538 402 m 0
 538 499 487 537 358 537 c 2
 300 537 l 1
 273 412 l 1
 429 412 l 1
 399 275 l 1
 244 275 l 1
 214 133 l 1
 277 133 l 2
 443 133 538 231 538 402 c 0
706 393 m 0
 706 148 534 0 247 0 c 2
 24 0 l 1
 82 275 l 1
 6 275 l 1
 36 412 l 1
 112 412 l 1
 166 668 l 1
 360 668 l 2
 584 668 706 571 706 393 c 0
EndSplineSet
EndChar

StartChar: one.tf
Encoding: 389 -1 251
Width: 640
GlyphClass: 1
Flags: W
HStem: 0 124<51 207 360 474> 447 123<147 271.702> 647 20G<334 475>
LayerCount: 2
Fore
SplineSet
147 570 m 1
 262 570 311 593 357 667 c 1
 475 667 l 1
 360 124 l 1
 501 124 l 1
 474 0 l 1
 25 0 l 1
 51 124 l 1
 207 124 l 1
 274 447 l 1
 120 447 l 1
 147 570 l 1
EndSplineSet
Substitution2: "'pnum' Proportional Numbers lookup 13 subtable" one
Substitution2: "'aalt' Access All Alternates lookup 0 subtable" one
EndChar

StartChar: Aogonek
Encoding: 400 260 262
Width: 698
GlyphClass: 2
Flags: W
HStem: -173 76<474 594.471> 0 21G<-65 132.092> 119 128<255 427> 648 20G<317.204 515.323>
VStem: 388 128<-120 -44.5829>
AnchorPoint: "Anchor-2" 577 10 basechar 0
AnchorPoint: "Anchor-1" 427 668 basechar 0
AnchorPoint: "Anchor-0" 296 0 basechar 0
LayerCount: 2
Fore
SplineSet
255 247 m 1
 427 247 l 1
 395 501 l 1
 255 247 l 1
516 -75 m 0
 516 -90 530 -97 559 -97 c 0
 572 -97 589 -94 610 -88 c 1
 594 -164 l 1
 574 -169 536 -173 513 -173 c 0
 435 -173 388 -144 388 -96 c 0
 388 -56 429 -13 479 0 c 1
 458 0 l 1
 442 119 l 1
 187 119 l 1
 121 0 l 1
 -65 0 l 1
 329 668 l 1
 512 668 l 1
 623 0 l 1
 536 -40 516 -54 516 -75 c 0
EndSplineSet
EndChar

StartChar: aogonek
Encoding: 401 261 263
Width: 545
GlyphClass: 2
Flags: W
HStem: -173 76<297 417.471> -12 103<87.5 234.442> 407 103<201.29 333.586>
VStem: -18 161<102.977 181.615> 211 128<-120 -44.5829> 344 150<314.899 396.174>
AnchorPoint: "Anchor-2" 446 0 basechar 0
AnchorPoint: "Anchor-1" 298 496 basechar 0
AnchorPoint: "Anchor-0" 219 0 basechar 0
LayerCount: 2
Fore
SplineSet
143 138 m 0
 143 110 169 91 208 91 c 0
 268 91 304 129 325 213 c 2
 328 225 l 1
 273 220 228 211 194 198 c 0
 160 185 143 165 143 138 c 0
339 -75 m 0
 339 -90 353 -97 382 -97 c 0
 395 -97 412 -94 433 -88 c 1
 417 -164 l 1
 397 -169 359 -173 336 -173 c 0
 258 -173 211 -144 211 -96 c 0
 211 -56 252 -13 302 0 c 1
 297 0 l 1
 292 59 l 1
 249 7 204 -12 130 -12 c 0
 45 -12 -18 43 -18 118 c 0
 -18 233 85 290 338 315 c 1
 342 333 344 343 344 354 c 0
 344 390 321 407 272 407 c 0
 225 407 187 385 170 348 c 1
 53 394 l 1
 104 473 181 510 293 510 c 0
 418 510 494 451 494 353 c 0
 494 256 441 97 441 0 c 1
 446 0 l 1
 359 -40 339 -54 339 -75 c 0
EndSplineSet
EndChar

StartChar: Eogonek
Encoding: 406 280 268
Width: 582
GlyphClass: 2
Flags: W
HStem: -173 76<314 434.471> 0 139<168 319 417.884 495> 274 139<226 414> 529 139<251 607>
VStem: 228 128<-120 -44.5829>
AnchorPoint: "Anchor-2" 463 -12 basechar 0
AnchorPoint: "Anchor-1" 384 668 basechar 0
AnchorPoint: "Anchor-0" 238 0 basechar 0
LayerCount: 2
Fore
SplineSet
356 -75 m 0
 356 -90 370 -97 399 -97 c 0
 412 -97 429 -94 450 -88 c 1
 434 -164 l 1
 414 -169 376 -173 353 -173 c 0
 275 -173 228 -144 228 -96 c 0
 228 -56 269 -13 319 0 c 1
 -23 0 l 1
 119 668 l 1
 637 668 l 1
 607 529 l 1
 251 529 l 1
 226 413 l 1
 443 413 l 1
 414 274 l 1
 197 274 l 1
 168 139 l 1
 524 139 l 1
 495 0 l 1
 463 0 l 1
 376 -40 356 -54 356 -75 c 0
EndSplineSet
EndChar

StartChar: eogonek
Encoding: 407 281 269
Width: 567
GlyphClass: 2
Flags: W
HStem: -171 76<179 299.471> 209 90<168 395.764> 399 111<227.907 368.611>
VStem: 3 149<134.065 204.358> 93 128<-118 -43.75> 396 134<299.094 371.518>
AnchorPoint: "Anchor-2" 333 2 basechar 0
AnchorPoint: "Anchor-1" 321 496 basechar 0
AnchorPoint: "Anchor-0" 230 0 basechar 0
LayerCount: 2
Fore
SplineSet
396 313 m 2xe4
 396 366 360 399 302 399 c 0
 239 399 185 358 168 299 c 1
 395 299 l 1
 396 301 396 303 396 306 c 2
 396 313 l 2xe4
307 510 m 0
 446 510 530 430 530 298 c 0
 530 270 526 241 519 209 c 1
 154 209 l 1
 152 195 152 193 152 188 c 0xf4
 152 137 190 106 254 106 c 0
 296 106 336 120 358 142 c 1
 472 98 l 1
 433 51 383 18 327 1 c 1
 241 -39 221 -53 221 -73 c 0
 221 -88 235 -95 264 -95 c 0
 277 -95 294 -92 315 -86 c 1
 299 -162 l 1
 279 -167 241 -171 218 -171 c 0
 140 -171 93 -142 93 -94 c 0xec
 93 -60 121 -24 162 -6 c 1
 60 15 3 88 3 196 c 0xf4
 3 375 133 510 307 510 c 0
EndSplineSet
EndChar

StartChar: Iogonek
Encoding: 414 302 276
Width: 459
GlyphClass: 2
Flags: W
HStem: -173 76<93 213.471> 0 124<13 98 267 331> 544 124<129 195 355 447>
VStem: 7 128<-120 -44.5829>
AnchorPoint: "Anchor-2" 242 0 basechar 0
AnchorPoint: "Anchor-1" 301 668 basechar 0
AnchorPoint: "Anchor-0" 151 0 basechar 0
LayerCount: 2
Fore
SplineSet
135 -75 m 0
 135 -90 149 -97 178 -97 c 0
 191 -97 208 -94 229 -88 c 1
 213 -164 l 1
 193 -169 155 -173 132 -173 c 0
 54 -173 7 -144 7 -96 c 0
 7 -56 48 -13 98 0 c 1
 -13 0 l 1
 13 124 l 1
 105 124 l 1
 195 544 l 1
 103 544 l 1
 129 668 l 1
 474 668 l 1
 447 544 l 1
 355 544 l 1
 267 124 l 1
 358 124 l 1
 331 0 l 1
 242 0 l 1
 155 -40 135 -54 135 -75 c 0
EndSplineSet
EndChar

StartChar: iogonek
Encoding: 415 303 277
Width: 338
GlyphClass: 2
Flags: W
HStem: -173 76<55 175.471> 380 116<51 129> 578 179<207.412 323.786>
VStem: -31 128<-120 -44.5829> 177 179<608.982 726.588>
AnchorPoint: "Anchor-2" 204 0 basechar 0
AnchorPoint: "Anchor-1" 247 719 basechar 0
AnchorPoint: "Anchor-0" 110 0 basechar 0
LayerCount: 2
Fore
SplineSet
97 -75 m 0
 97 -90 111 -97 140 -97 c 0
 153 -97 170 -94 191 -88 c 1
 175 -164 l 1
 155 -169 117 -173 94 -173 c 0
 16 -173 -31 -144 -31 -96 c 0
 -31 -56 10 -13 60 0 c 1
 48 0 l 1
 129 380 l 1
 26 380 l 1
 51 496 l 1
 309 496 l 1
 204 0 l 1
 117 -40 97 -54 97 -75 c 0
EndSplineSet
Refer: 545 803 S 1 0 0 1 216 825 2
EndChar

StartChar: uni0326
Encoding: 420 806 282
Width: 0
GlyphClass: 4
Flags: W
HStem: -246 45<-38 7.63068>
VStem: 30 120<-178.218 -89.7598>
AnchorPoint: "Anchor-3" 38 -251 basemark 0
AnchorPoint: "Anchor-3" 91 0 mark 0
AnchorPoint: "Anchor-0" 91 0 mark 0
LayerCount: 2
Fore
SplineSet
86 -40 m 1
 127 -57 150 -87 150 -123 c 0
 150 -196 78 -246 -25 -246 c 2
 -38 -246 l 1
 -81 -201 l 1
 -10 -201 30 -177 30 -134 c 0
 30 -106 13 -85 -15 -80 c 1
 86 -40 l 1
EndSplineSet
EndChar

StartChar: Uogonek
Encoding: 429 370 291
Width: 679
GlyphClass: 2
Flags: W
HStem: -173 76<227 347.471> 648 20G<115.691 281 535.733 701>
VStem: 26 162<141.932 333.414> 120 161<507 668> 141 128<-120 -44.2093> 540 161<507 668>
AnchorPoint: "Anchor-2" 376 0 basechar 0
AnchorPoint: "Anchor-1" 414 668 basechar 0
AnchorPoint: "Anchor-0" 287 0 basechar 0
LayerCount: 2
Fore
SplineSet
269 -75 m 0xcc
 269 -90 283 -97 312 -97 c 0
 325 -97 342 -94 363 -88 c 1
 347 -164 l 1
 327 -169 289 -173 266 -173 c 0
 188 -173 141 -144 141 -96 c 0xcc
 141 -63 169 -27 208 -9 c 1
 89 5 26 73 26 187 c 0xe4
 26 217 30 250 39 292 c 2
 120 668 l 1
 281 668 l 1xd4
 198 279 l 2
 190 237 188 222 188 204 c 0xe4
 188 144 221 117 294 117 c 0
 388 117 433 162 457 279 c 2
 540 668 l 1
 701 668 l 1
 621 292 l 2
 580 99 509 16 364 -5 c 1
 287 -42 269 -55 269 -75 c 0xcc
EndSplineSet
EndChar

StartChar: uogonek
Encoding: 430 371 292
Width: 578
GlyphClass: 2
Flags: W
HStem: -173 76<307 427.471> -12 118<112 256.401> 476 20G<81.7246 241 401.725 561>
VStem: 17 162<115.643 275.922> 86 155<341 496> 221 128<-120 -44.4197> 406 155<341 496>
AnchorPoint: "Anchor-2" 456 0 basechar 0
AnchorPoint: "Anchor-1" 322 496 basechar 0
AnchorPoint: "Anchor-0" 236 0 basechar 0
LayerCount: 2
Fore
SplineSet
349 -75 m 0xf6
 349 -90 363 -97 392 -97 c 0
 405 -97 422 -94 443 -88 c 1
 427 -164 l 1
 407 -169 369 -173 346 -173 c 0
 268 -173 221 -144 221 -96 c 0
 221 -53 264 -11 321 2 c 1
 316 64 l 1
 286 15 230 -12 159 -12 c 0
 65 -12 17 37 17 134 c 0xf6
 17 157 20 180 27 220 c 1
 86 496 l 1
 241 496 l 1xea
 186 235 l 2
 181 212 179 193 179 175 c 0
 179 129 197 106 231 106 c 0
 290 106 333 152 350 234 c 2
 406 496 l 1
 561 496 l 1
 456 0 l 1
 369 -40 349 -54 349 -75 c 0xf6
EndSplineSet
EndChar

StartChar: Hbar
Encoding: 439 294 301
Width: 740
GlyphClass: 1
Flags: W
HStem: 0 21G<3 168.307 440 605.234> 274 139<252 498> 496 98<71 108 290 546 727 760> 648 20G<140.676 305 577.676 743>
VStem: 3 161<0 161> 440 161<0 161>
LayerCount: 2
Fore
SplineSet
252 413 m 1
 528 413 l 1
 546 496 l 1
 269 496 l 1
 252 413 l 1
3 0 m 1
 108 496 l 1
 50 496 l 1
 71 594 l 1
 129 594 l 1
 145 668 l 1
 305 668 l 1
 290 594 l 1
 566 594 l 1
 582 668 l 1
 743 668 l 1
 727 594 l 1
 781 594 l 1
 760 496 l 1
 706 496 l 1
 601 0 l 1
 440 0 l 1
 498 274 l 1
 223 274 l 1
 164 0 l 1
 3 0 l 1
EndSplineSet
EndChar

StartChar: hbar
Encoding: 440 295 302
Width: 644
GlyphClass: 1
Flags: W
HStem: 0 21G<43 203.252 366 526.27> 392 118<356.919 503.5> 555 78<82 161 328 434>
VStem: 43 156<0 156> 366 156<0 156> 431 161<227.164 383.312>
LayerCount: 2
Fore
SplineSet
431 328 m 0xf4
 431 372 413 392 375 392 c 0
 312 392 271 346 253 254 c 1
 199 0 l 1
 43 0 l 1
 161 555 l 1
 65 555 l 1
 82 633 l 1
 177 633 l 1
 191 698 l 1
 342 698 l 1
 328 633 l 1
 451 633 l 1
 434 555 l 1
 312 555 l 1
 286 432 l 1
 322 481 386 510 460 510 c 0
 547 510 592 461 592 366 c 0xf4
 592 340 589 312 582 281 c 2
 522 0 l 1
 366 0 l 1xf8
 422 263 l 2
 428 289 431 311 431 328 c 0xf4
EndSplineSet
EndChar

StartChar: dcroat
Encoding: 456 273 318
Width: 638
GlyphClass: 1
Flags: W
HStem: -13 118<131 272.235> -1 21G<338.438 490> 392 118<223.591 348.124> 555 78<304 435 606 656>
VStem: 3 155<139.656 317.938> 379 110<-1 289>
LayerCount: 2
Fore
SplineSet
158 216 m 0xbc
 158 146 191 105 248 105 c 0
 321 105 379 186 379 289 c 0
 379 351 343 392 290 392 c 0
 211 392 158 321 158 216 c 0xbc
335 63 m 1
 296 13 246 -13 187 -13 c 0xbc
 75 -13 3 67 3 191 c 0
 3 374 116 510 267 510 c 0
 331 510 385 476 406 421 c 1
 435 555 l 1
 287 555 l 1
 304 633 l 1
 451 633 l 1
 465 698 l 1
 620 698 l 1
 616 680 l 2
 614 670 612 661 606 633 c 1
 673 633 l 1
 656 555 l 1
 589 555 l 1
 508 182 491 86 489 -1 c 1
 340 -1 l 1x7c
 335 63 l 1
EndSplineSet
EndChar

StartChar: Scedilla
Encoding: 461 350 323
Width: 642
GlyphClass: 2
Flags: W
HStem: -195 54<160.323 277.308> -12 126<294 394.038> 551 129<244.026 411.127>
VStem: 61 163<447.414 530.597> 281 91<-135.587 -86.8554> 424 164<141.242 223.783>
AnchorPoint: "Anchor-1" 370 668 basechar 0
AnchorPoint: "Anchor-0" 247 -195 basechar 0
LayerCount: 2
Fore
SplineSet
372 -103 m 0
 372 -161 323 -195 239 -195 c 0
 204 -195 165 -188 143 -178 c 1
 169 -128 l 1
 187 -137 207 -141 229 -141 c 0
 260 -141 281 -128 281 -109 c 0
 281 -94 265 -84 242 -84 c 0
 225 -84 230 -89 213 -89 c 0
 202 -89 194 -82 194 -71 c 0
 194 -66 196 -62 200 -57 c 2
 241 -8 l 1
 129 8 45 68 10 157 c 1
 165 209 l 1
 179 151 237 114 313 114 c 0
 378 114 424 141 424 179 c 0
 424 220 396 239 280 275 c 0
 116 326 61 376 61 475 c 0
 61 599 171 680 341 680 c 0
 463 680 558 628 606 535 c 1
 451 483 l 1
 436 524 388 551 329 551 c 0
 264 551 224 529 224 492 c 0
 224 450 255 429 362 399 c 0
 535 351 588 306 588 206 c 0
 588 77 473 -12 306 -12 c 2
 294 -12 l 1
 265 -47 l 1
 275 -45 284 -44 293 -44 c 0
 340 -44 372 -68 372 -103 c 0
EndSplineSet
Substitution2: "'locl' Localized Forms in Latin lookup 8 subtable" uni0218
Substitution2: "'aalt' Access All Alternates lookup 0 subtable" uni0218
EndChar

StartChar: scedilla
Encoding: 462 351 324
Width: 515
GlyphClass: 2
Flags: W
HStem: -195 54<87.3233 204.308> -13 109<220 291.817> 399 111<179.568 323.32>
VStem: 30 144<331.711 390.017> 208 91<-135.587 -86.8554> 306 148<110.711 166.812>
AnchorPoint: "Anchor-1" 274 496 basechar 0
AnchorPoint: "Anchor-0" 174 -195 basechar 0
LayerCount: 2
Fore
SplineSet
299 -103 m 0
 299 -161 250 -195 166 -195 c 0
 131 -195 92 -188 70 -178 c 1
 96 -128 l 1
 114 -137 134 -141 156 -141 c 0
 187 -141 208 -128 208 -109 c 0
 208 -94 192 -84 169 -84 c 0
 152 -84 157 -89 140 -89 c 0
 129 -89 121 -82 121 -71 c 0
 121 -66 123 -62 127 -57 c 2
 167 -9 l 1
 86 3 24 42 -10 116 c 1
 120 160 l 1
 134 99 208 96 224 96 c 0
 262 96 306 111 306 139 c 0
 306 170 259 181 203 197 c 0
 125 219 30 250 30 357 c 0
 30 447 125 510 243 510 c 0
 281 510 409 510 471 400 c 1
 339 355 l 1
 334 367 322 399 241 399 c 0
 174 399 174 363 174 362 c 0
 174 328 222 317 279 302 c 0
 358 281 454 255 454 156 c 0
 454 56 373 -13 229 -13 c 0
 226 -13 223 -13 220 -13 c 2
 192 -47 l 1
 202 -45 211 -44 220 -44 c 0
 267 -44 299 -68 299 -103 c 0
EndSplineSet
Substitution2: "'locl' Localized Forms in Latin lookup 8 subtable" uni0219
Substitution2: "'aalt' Access All Alternates lookup 0 subtable" uni0219
EndChar

StartChar: uni0162
Encoding: 467 354 329
Width: 617
GlyphClass: 2
Flags: W
HStem: -195 54<125.323 242.308> 529 139<87 270 430 644>
VStem: 246 91<-135.587 -86.8554>
AnchorPoint: "Anchor-1" 398 668 basechar 0
AnchorPoint: "Anchor-0" 200 -251 basechar 0
LayerCount: 2
Fore
SplineSet
337 -103 m 0
 337 -161 288 -195 204 -195 c 0
 169 -195 130 -188 108 -178 c 1
 134 -128 l 1
 152 -137 172 -141 194 -141 c 0
 225 -141 246 -128 246 -109 c 0
 246 -94 230 -84 207 -84 c 0
 190 -84 195 -89 178 -89 c 0
 167 -89 159 -82 159 -71 c 0
 159 -66 161 -62 165 -57 c 2
 212 0 l 1
 158 0 l 1
 270 529 l 1
 57 529 l 1
 87 668 l 1
 673 668 l 1
 644 529 l 1
 430 529 l 1
 319 0 l 1
 269 0 l 1
 230 -47 l 1
 240 -45 249 -44 258 -44 c 0
 305 -44 337 -68 337 -103 c 0
EndSplineSet
Substitution2: "'locl' Localized Forms in Latin lookup 8 subtable" uni021A
Substitution2: "'aalt' Access All Alternates lookup 0 subtable" uni021A
EndChar

StartChar: acutecomb.case
Encoding: 470 -1 332
Width: 0
GlyphClass: 4
Flags: W
HStem: 731 153
VStem: 123 234
AnchorPoint: "Anchor-4" 263 884 basemark 0
AnchorPoint: "Anchor-4" 196 668 mark 0
AnchorPoint: "Anchor-1" 196 668 mark 0
LayerCount: 2
Fore
SplineSet
301 884 m 0
 333 884 357 860 357 828 c 0
 357 796 344 785 258 738 c 1
 246 731 l 1
 123 731 l 1
 174 781 216 823 257 863 c 0
 272 878 284 884 301 884 c 0
EndSplineSet
EndChar

StartChar: caron.alt
Encoding: 473 -1 335
Width: 205
GlyphClass: 1
Flags: W
HStem: 496 192<136.803 158>
VStem: 128 108<588.584 676.996>
LayerCount: 2
Fore
SplineSet
182 688 m 0
 212 688 236 664 236 634 c 0
 236 618 233 609 221 593 c 1
 158 496 l 1
 75 496 l 1
 79 508 79 508 128 650 c 0
 136 673 156 688 182 688 c 0
EndSplineSet
EndChar

StartChar: uni2074
Encoding: 483 8308 345
Width: 433
GlyphClass: 1
Flags: W
HStem: 477 86<206 266 388 426>
LayerCount: 2
Fore
SplineSet
206 563 m 1
 284 563 l 1
 304 659 l 1
 206 563 l 1
250 402 m 1
 266 477 l 1
 74 477 l 1
 91 554 l 1
 319 777 l 1
 433 777 l 1
 388 563 l 1
 445 563 l 1
 426 477 l 1
 369 477 l 1
 353 402 l 1
 250 402 l 1
EndSplineSet
EndChar

StartChar: gravecomb.case
Encoding: 486 -1 348
Width: 0
GlyphClass: 4
Flags: W
HStem: 731 153<141.552 187.846>
VStem: 88 187
AnchorPoint: "Anchor-4" 203 884 basemark 0
AnchorPoint: "Anchor-4" 198 668 mark 0
AnchorPoint: "Anchor-1" 198 668 mark 0
LayerCount: 2
Fore
SplineSet
88 830 m 0
 88 860 112 884 143 884 c 0
 174 884 183 876 238 790 c 0
 242 783 275 732 275 731 c 1
 167 731 l 1
 139 754 112 779 101 793 c 0
 92 804 88 816 88 830 c 0
EndSplineSet
EndChar

StartChar: dotlessi
Encoding: 489 305 351
Width: 326
GlyphClass: 2
Flags: W
HStem: 0 21G<48 208.234> 380 116<51 129>
VStem: 48 156<0 156>
AnchorPoint: "Anchor-2" 211 0 basechar 0
AnchorPoint: "Anchor-1" 202 496 basechar 0
AnchorPoint: "Anchor-0" 110 0 basechar 0
LayerCount: 2
Fore
SplineSet
48 0 m 1
 129 380 l 1
 26 380 l 1
 51 496 l 1
 309 496 l 1
 204 0 l 1
 48 0 l 1
EndSplineSet
EndChar

StartChar: uni00B5
Encoding: 494 181 356
Width: 599
GlyphClass: 2
Flags: W
HStem: -161 21G<-53 107.242> -12 118<162 257.256> 0 124<423.5 529.14> 476 20G<81.7686 241 401.725 561>
VStem: 86 155<341 496> 406 155<341 496>
AnchorPoint: "Anchor-2" 469 10 basechar 0
LayerCount: 2
Fore
SplineSet
466 0 m 0xbc
 381 0 336 23 326 72 c 1
 311 52 291 33 264 14 c 0
 240 -3 209 -12 171 -12 c 0
 153 -12 137 -10 124 -5 c 1
 124 -49 122 -72 117 -95 c 2
 103 -161 l 1
 -53 -161 l 1
 86 496 l 1
 241 496 l 1
 186 235 l 2
 180 208 177 184 177 162 c 0
 177 128 198 106 231 106 c 0xdc
 290 106 333 152 350 234 c 2
 406 496 l 1
 561 496 l 1
 490 163 l 2
 488 157 488 154 488 151 c 0
 488 133 501 124 526 124 c 0
 537 124 544 126 554 130 c 1
 528 6 l 1
 505 2 489 0 466 0 c 0xbc
EndSplineSet
EndChar

StartChar: uni0328.case
Encoding: 496 -1 358
Width: 0
GlyphClass: 4
Flags: W
HStem: -174 76<33 153.673> -20 20G<17.5 188>
VStem: -52 130<-122.5 -45.6812>
AnchorPoint: "Anchor-2" 188 0 mark 0
LayerCount: 2
Fore
SplineSet
188 0 m 1
 136 -5 78 -45 78 -75 c 0
 78 -90 92 -98 118 -98 c 0
 141 -98 154 -92 169 -89 c 1
 153 -164 l 1
 136 -169 98 -174 72 -174 c 0
 -6 -174 -52 -146 -52 -99 c 0
 -52 -56 -12 -16 47 0 c 1
 188 0 l 1
EndSplineSet
EndChar

StartChar: uni0163
Encoding: 500 355 363
Width: 391
GlyphClass: 2
Flags: W
HStem: -195 54<15.3233 132.308> 0 124<219.37 289> 380 116<53 106 286 370>
VStem: 50 167<75 218.477> 136 91<-135.587 -86.8554>
AnchorPoint: "Anchor-1" 249 496 basechar 0
AnchorPoint: "Anchor-0" 90 -251 basechar 0
LayerCount: 2
Fore
SplineSet
227 -103 m 0xe8
 227 -161 178 -195 94 -195 c 0
 59 -195 20 -188 -2 -178 c 1
 24 -128 l 1
 42 -137 62 -141 84 -141 c 0
 115 -141 136 -128 136 -109 c 0xe8
 136 -94 120 -84 97 -84 c 0
 80 -84 85 -89 68 -89 c 0
 57 -89 49 -82 49 -71 c 0
 49 -66 51 -62 55 -57 c 2
 112 11 l 1
 69 26 50 52 50 98 c 0
 50 111 52 129 57 150 c 2
 106 380 l 1
 28 380 l 1
 53 496 l 1
 131 496 l 1
 157 620 l 1
 312 620 l 1
 286 496 l 1
 394 496 l 1
 370 380 l 1
 261 380 l 1
 224 205 l 2
 219 185 217 171 217 160 c 0xf0
 217 135 233 124 272 124 c 2
 315 124 l 1
 289 0 l 1
 193 0 l 2
 184 0 176 0 159 2 c 1
 160 1 l 1
 120 -47 l 1
 130 -45 139 -44 148 -44 c 0
 195 -44 227 -68 227 -103 c 0xe8
EndSplineSet
Substitution2: "'locl' Localized Forms in Latin lookup 8 subtable" uni021B
Substitution2: "'aalt' Access All Alternates lookup 0 subtable" uni021B
EndChar

StartChar: tildecomb
Encoding: 502 771 365
Width: 0
GlyphClass: 4
Flags: W
HStem: 568 80<296.096 408.266> 607 82<186.391 296.096>
AnchorPoint: "Anchor-4" 307 690 basemark 0
AnchorPoint: "Anchor-4" 266 496 mark 0
AnchorPoint: "Anchor-1" 266 496 mark 0
LayerCount: 2
Fore
SplineSet
453 690 m 0x80
 475 690 492 673 492 651 c 0
 492 609 432 568 370 568 c 0x80
 303 568 296 607 229 607 c 0
 208 607 191 596 178 574 c 1
 89 574 l 1
 110 642 166 689 225 689 c 0x40
 293 689 296 648 364 648 c 0
 411 648 406 690 453 690 c 0x80
EndSplineSet
Substitution2: "'case' Case-Sensitive Forms lookup 15 subtable" tildecomb.case
Substitution2: "Single Substitution lookup 7 subtable" tildecomb.case
Substitution2: "Single Substitution lookup 6 subtable" tildecomb.case
Substitution2: "Single Substitution lookup 4 subtable" tildecomb.case
Substitution2: "Single Substitution lookup 3 subtable" tildecomb.case
Substitution2: "'aalt' Access All Alternates lookup 0 subtable" tildecomb.case
EndChar

StartChar: copyleft
Encoding: 504 127279 367
Width: 814
Flags: W
HStem: -12 69<303.426 513.743> 145 85<343.002 451.305> 437 85<348.352 450.526> 610 69<303.426 513.532>
VStem: 62 70<228.658 439.032> 477 112<257.529 410.883> 684 70<228.658 438.821>
LayerCount: 2
Fore
SplineSet
589 334 m 0
 589 216 520 145 406 145 c 0
 334 145 276 176 244 231 c 1
 334 264 l 1
 347 241 369 230 400 230 c 0
 448 230 477 269 477 334 c 0
 477 398 448 437 400 437 c 0
 368 437 346 422 335 394 c 1
 243 428 l 1
 272 489 329 522 406 522 c 0
 515 522 589 446 589 334 c 0
132 334 m 0
 132 181 256 57 409 57 c 0
 561 57 684 181 684 334 c 0
 684 486 560 610 409 610 c 0
 256 610 132 487 132 334 c 0
754 334 m 0
 754 143 599 -12 409 -12 c 0
 217 -12 62 143 62 334 c 0
 62 524 217 679 409 679 c 0
 599 679 754 524 754 334 c 0
EndSplineSet
EndChar

StartChar: zero.alt1
Encoding: 505 -1 368
Width: 659
Flags: W
HStem: -12 113<251.92 372.075> 567 113<298.57 423.311>
VStem: 45 157<227.333 430.482> 469 157<242.6 446.448>
LayerCount: 2
Fore
SplineSet
310 101 m 0
 405 101 469 219 469 396 c 0
 469 416 468 434 466 450 c 1
 243 128 l 1
 261 110 283 101 310 101 c 0
361 567 m 0
 265 567 202 451 202 274 c 0
 202 255 203 239 205 227 c 1
 425 544 l 1
 407 559 385 567 361 567 c 0
45 267 m 0
 45 519 173 680 373 680 c 0
 534 680 626 579 626 404 c 0
 626 152 497 -12 298 -12 c 0
 138 -12 45 91 45 267 c 0
EndSplineSet
Substitution2: "'zero' Slashed Zero lookup 0-1" zero
Substitution2: "'aalt' Access All Alternates lookup 0 subtable" zero
Substitution2: "'tnum' Tabular Numbers lookup 14 subtable" zero
EndChar

StartChar: f_i
Encoding: 506 64257 369
Width: 643
Flags: W
HStem: 0 21G<18 177.211 353 513.234> 380 116<43 99 278 434> 578 179<512.412 628.786> 608 119<305.724 409>
VStem: 18 155<0 155> 353 156<0 156> 482 179<608.982 726.588>
LayerCount: 2
Fore
SplineSet
353 0 m 1xdc
 434 380 l 1
 253 380 l 1
 173 0 l 1
 18 0 l 1
 99 380 l 1
 19 380 l 1
 43 496 l 1
 124 496 l 1
 135 547 l 2
 168 697 207 727 366 727 c 2
 434 727 l 1
 409 608 l 1
 368 608 l 2
 308 608 302 602 285 527 c 2
 278 496 l 1
 614 496 l 1
 509 0 l 1
 353 0 l 1xdc
EndSplineSet
Refer: 545 803 S 1 0 0 1 521 825 2
LCarets2: 1 354
Ligature2: "'liga' Standard Ligatures lookup 0-1" f i
EndChar

StartChar: f_f
Encoding: 507 64256 370
Width: 714
Flags: W
HStem: 0 21G<18 177.211 353 512.211> 380 116<43 99 278 434 613 695> 608 119<305.622 409 640.622 744>
VStem: 18 155<0 155> 353 155<0 155>
LayerCount: 2
Fore
SplineSet
353 0 m 1
 434 380 l 1
 253 380 l 1
 173 0 l 1
 18 0 l 1
 99 380 l 1
 19 380 l 1
 43 496 l 1
 124 496 l 1
 135 547 l 2
 166 695 207 727 366 727 c 2
 434 727 l 1
 409 608 l 1
 368 608 l 2
 308 608 302 602 285 527 c 2
 278 496 l 1
 459 496 l 1
 470 547 l 2
 501 695 542 727 701 727 c 2
 769 727 l 1
 744 608 l 1
 703 608 l 2
 643 608 637 602 620 527 c 2
 613 496 l 1
 720 496 l 1
 695 380 l 1
 588 380 l 1
 508 0 l 1
 353 0 l 1
EndSplineSet
LCarets2: 1 352
Ligature2: "'liga' Standard Ligatures lookup 0-1" f f
EndChar

StartChar: f_f_i
Encoding: 508 64259 371
Width: 978
Flags: W
HStem: 0 21G<18 177.211 353 512.211 688 848.234> 380 116<43 99 278 434 613 769> 578 179<847.412 963.786> 608 119<305.622 409 640.724 744>
VStem: 18 155<0 155> 353 155<0 155> 688 156<0 156> 817 179<608.982 726.588>
LayerCount: 2
Fore
SplineSet
688 0 m 1xde
 769 380 l 1
 588 380 l 1
 508 0 l 1
 353 0 l 1
 434 380 l 1
 253 380 l 1
 173 0 l 1
 18 0 l 1
 99 380 l 1
 19 380 l 1
 43 496 l 1
 124 496 l 1
 135 547 l 2
 166 695 207 727 366 727 c 2
 434 727 l 1
 409 608 l 1
 368 608 l 2
 308 608 302 602 285 527 c 2
 278 496 l 1
 459 496 l 1
 470 547 l 2
 503 696 542 727 701 727 c 2
 769 727 l 1
 744 608 l 1
 703 608 l 2
 643 608 637 602 620 527 c 2
 613 496 l 1
 949 496 l 1
 844 0 l 1
 688 0 l 1xde
EndSplineSet
Refer: 545 803 S 1 0 0 1 856 825 2
LCarets2: 2 352 690
Ligature2: "'liga' Standard Ligatures lookup 0-1" f f i
EndChar

StartChar: f_f_l
Encoding: 510 64260 373
Width: 1031
Flags: W
HStem: 0 21G<18 177.211 353 512.211> 0 124<888.039 958> 380 116<43 99 278 434 613 695> 608 119<305.622 409 640.622 744> 648 20G<830.758 991>
VStem: 18 155<0 155> 353 155<0 155> 835 156<512 668>
LayerCount: 2
Fore
SplineSet
886 159 m 0x6f
 886 134 902 124 941 124 c 2
 984 124 l 1
 958 0 l 1
 861 0 l 2
 816 0 782 7 756 22 c 0
 730 37 718 62 718 99 c 0
 718 110 723 129 723 140 c 1
 835 668 l 1
 991 668 l 1
 893 204 l 2
 886 169 886 169 886 159 c 0x6f
EndSplineSet
Refer: 370 64256 S 1 0 0 1 0 0 2
LCarets2: 2 353 692
Ligature2: "'liga' Standard Ligatures lookup 0-1" f f l
EndChar

StartChar: dong
Encoding: 511 8363 374
Width: 638
Flags: W
HStem: -121 78<-9 505> -13 118<131 272.235> -1 21G<338.438 490> 392 118<223.591 348.124> 555 78<304 435 606 656>
VStem: 3 155<139.656 317.938> 379 110<-1 289>
LayerCount: 2
Fore
SplineSet
-25 -121 m 1x9e
 -9 -43 l 1
 521 -43 l 1
 505 -121 l 1
 -25 -121 l 1x9e
EndSplineSet
Refer: 318 273 N 1 0 0 1 0 0 2
EndChar

StartChar: uni0237
Encoding: 547 567 410
Width: 263
HStem: -162 120<-148 -28.3672> 476 20G<88.7549 249>
VStem: 93 156<340 496>
AnchorPoint: "Anchor-1" 168 496 basechar 0
LayerCount: 2
Fore
SplineSet
-74 -162 m 0
 -104 -162 -117 -162 -174 -160 c 1
 -148 -42 l 1
 -87 -42 l 2
 -30 -42 -19 -31 -4 39 c 2
 93 496 l 1
 249 496 l 1
 148 23 l 2
 115 -130 77 -162 -74 -162 c 0
EndSplineSet
EndChar

StartChar: uni2010
Encoding: 562 8208 425
Width: 336
Flags: W
HStem: 184 129<38 296>
VStem: 10 314
LayerCount: 2
Fore
SplineSet
10 184 m 1
 38 313 l 1
 324 313 l 1
 296 184 l 1
 10 184 l 1
EndSplineSet
EndChar

StartChar: Ldot
Encoding: 569 319 432
Width: 543
HStem: 0 139<168 458> 250 194<328.125 449.491> 648 20G<114.749 279>
VStem: 119 160<508 668> 291 195<287.664 407.068>
LayerCount: 2
Fore
SplineSet
486 347 m 0
 486 293 444 251 389 250 c 0
 334 251 291 294 291 347 c 0
 291 401 334 444 389 444 c 0
 444 444 486 402 486 347 c 0
EndSplineSet
Refer: 26 76 N 1 0 0 1 0 0 3
EndChar

StartChar: ldot
Encoding: 570 320 433
Width: 485
Flags: W
HStem: 0 124<174.039 244> 250 194<307.548 428.068> 648 20G<116.758 277>
VStem: 4 168<65.5 216.375> 121 156<512 668> 270 195<286.932 407.068>
LayerCount: 2
Fore
SplineSet
465 347 m 0xe4
 465 293 422 250 368 250 c 0
 314 250 270 293 270 347 c 0
 270 401 313 444 368 444 c 0
 423 444 465 402 465 347 c 0xe4
EndSplineSet
Refer: 52 108 N 1 0 0 1 0 0 2
EndChar

StartChar: uni030C.alt
Encoding: 592 -1 455
Width: 0
GlyphClass: 1
Flags: W
HStem: 495 183<48.6463 69>
VStem: 46 74<575.156 674.698>
LayerCount: 2
Fore
SplineSet
82 678 m 0
 104 678 120 662 120 640 c 0
 120 631 115 623 111 609 c 1
 69 495 l 1
 20 495 l 1
 22 506 38 626 46 649 c 0
 50 666 65 678 82 678 c 0
EndSplineSet
EndChar

StartChar: uni031B
Encoding: 593 795 456
Width: 324
Flags: W
HStem: 427 104<0 196.142>
LayerCount: 2
Fore
SplineSet
114 531 m 2
 184 531 216 552 227 606 c 2
 235 646 l 1
 346 646 l 1
 336 592 l 2
 316 481 253 427 144 427 c 2
 0 427 l 1
 0 531 l 1
 114 531 l 2
EndSplineSet
EndChar

StartChar: Ohorn
Encoding: 594 416 457
Width: 764
Flags: W
HStem: -12 130<268.583 435.598> 540 130<334.715 492.288>
VStem: 32 169<189.333 390.879> 564 168<263.558 466.472>
AnchorPoint: "Anchor-0" 329 0 basechar 0
AnchorPoint: "Anchor-1" 456 668 basechar 0
AnchorPoint: "Anchor-2" 636 10 basechar 0
LayerCount: 2
Fore
SplineSet
732 388 m 0
 732 158 563 -12 335 -12 c 0
 149 -12 32 95 32 264 c 0
 32 496 201 670 426 670 c 2
 605 670 l 2
 676 670 708 692 718 745 c 1
 721 765 l 1
 852 765 l 1
 847 731 l 1
 831 632 777 574 684 560 c 1
 716 514 732 456 732 388 c 0
201 281 m 0
 201 182 259 118 349 118 c 0
 471 118 564 229 564 374 c 0
 564 474 505 540 414 540 c 0
 295 540 201 426 201 281 c 0
EndSplineSet
EndChar

StartChar: ohorn
Encoding: 595 417 458
Width: 593
Flags: W
HStem: -13 118<185.845 311.497> 382 118<225.704 356.146>
VStem: 5 154<131.221 306.268> 381 155<181.131 357.719>
AnchorPoint: "Anchor-0" 235 0 basechar 0
AnchorPoint: "Anchor-1" 307 496 basechar 0
AnchorPoint: "Anchor-2" 467 10 basechar 0
LayerCount: 2
Fore
SplineSet
536 290 m 0
 536 110 416 -13 239 -13 c 0
 96 -13 5 70 5 199 c 0
 5 376 127 500 302 500 c 2
 406 500 l 2
 485 500 521 522 529 575 c 2
 532 595 l 1
 653 595 l 1
 648 561 l 1
 636 472 590 416 511 395 c 1
 528 364 536 329 536 290 c 0
159 201 m 0
 159 138 189 105 245 105 c 0
 327 105 381 178 381 287 c 0
 381 351 352 382 292 382 c 0
 212 382 159 309 159 201 c 0
EndSplineSet
EndChar

StartChar: Uhorn
Encoding: 596 431 459
Width: 690
Flags: W
HStem: -12 129<214.998 379.283> 648 20G<115.691 281>
VStem: 26 162<144.115 333.414> 120 161<507 668>
AnchorPoint: "Anchor-0" 287 0 basechar 0
AnchorPoint: "Anchor-1" 414 668 basechar 0
AnchorPoint: "Anchor-2" 376 0 basechar 0
LayerCount: 2
Fore
SplineSet
188 204 m 0xe0
 188 144 221 117 294 117 c 0
 387 117 432 161 457 279 c 2
 540 668 l 1
 605 668 l 2
 677 668 709 690 718 745 c 2
 721 765 l 1
 852 765 l 1
 847 731 l 1
 833 628 776 569 677 557 c 1
 621 292 l 2
 572 63 485 -12 266 -12 c 0
 106 -12 26 55 26 187 c 0xe0
 26 217 30 250 39 292 c 2
 120 668 l 1
 281 668 l 1xd0
 198 279 l 2
 190 244 188 226 188 204 c 0xe0
EndSplineSet
EndChar

StartChar: uhorn
Encoding: 597 432 460
Width: 590
Flags: W
HStem: -12 118<112 256.401> 0 21G<319.438 460.256> 476 20G<81.7246 241>
VStem: 17 162<115.643 275.922> 86 155<341 496>
AnchorPoint: "Anchor-0" 236 0 basechar 0
AnchorPoint: "Anchor-1" 312 496 basechar 0
AnchorPoint: "Anchor-2" 456 0 basechar 0
LayerCount: 2
Fore
SplineSet
316 64 m 1x70
 286 15 230 -12 159 -12 c 0
 65 -12 17 37 17 134 c 0xb0
 17 162 20 187 27 220 c 2
 86 496 l 1
 241 496 l 1xa8
 186 235 l 2
 181 212 179 193 179 175 c 0
 179 129 197 106 231 106 c 0xb0
 290 106 333 152 350 234 c 2
 406 496 l 1
 437 496 l 2
 512 496 547 519 556 575 c 2
 559 595 l 1
 684 595 l 1
 679 561 l 1
 667 467 620 410 539 390 c 1
 456 0 l 1
 321 0 l 1
 316 64 l 1x70
EndSplineSet
EndChar

StartChar: dotbelowcomb
Encoding: 682 803 545
Width: 205
Flags: W
HStem: -247 179<-8.58809 107.786>
VStem: -39 179<-216.018 -98.4119>
AnchorPoint: "Anchor-3" 50 -247 basemark 0
AnchorPoint: "Anchor-3" 90 0 mark 0
AnchorPoint: "Anchor-0" 90 0 mark 0
LayerCount: 2
Fore
SplineSet
140 -157 m 0
 140 -207 100 -247 50 -247 c 0
 0 -247 -39 -207 -39 -157 c 0
 -39 -107 0 -68 50 -68 c 0
 101 -68 140 -107 140 -157 c 0
EndSplineSet
EndChar

StartChar: hookabovecomb
Encoding: 683 777 546
Width: 157
Flags: W
HStem: 668 76<46.5285 164.5>
VStem: 125 119<611.577 691>
AnchorPoint: "Anchor-4" 156 744 basemark 0
AnchorPoint: "Anchor-4" 67 496 mark 0
AnchorPoint: "Anchor-1" 67 496 mark 0
LayerCount: 2
Fore
SplineSet
47 735 m 1
 67 740 105 744 128 744 c 0
 201 744 244 715 244 667 c 0
 244 631 218 596 172 571 c 1
 68 571 l 1
 115 611 125 625 125 646 c 0
 125 661 111 668 82 668 c 0
 69 668 52 665 31 659 c 1
 47 735 l 1
EndSplineSet
EndChar

StartChar: longs
Encoding: 684 383 547
Width: 379
Flags: W
HStem: 0 21G<18 177.25> 380 116<43 99> 608 119<305.724 409>
VStem: 18 155<0 155>
AnchorPoint: "Anchor-1" 152 668 basechar 0
LayerCount: 2
Fore
SplineSet
18 0 m 1
 99 380 l 1
 19 380 l 1
 43 496 l 1
 124 496 l 1
 135 547 l 2
 168 697 207 727 366 727 c 2
 434 727 l 1
 409 608 l 1
 368 608 l 2
 308 608 302 602 285 527 c 1
 173 0 l 1
 18 0 l 1
EndSplineSet
EndChar

StartChar: uniFFFD
Encoding: 685 65533 548
Width: 676
Flags: W
HStem: 0 21<158 528> 680 20<157 528>
VStem: 129 21<49 650> 536 20<47 652>
LayerCount: 2
Fore
SplineSet
158 21 m 1
 528 21 l 1
 343 329 l 1
 158 21 l 1
150 49 m 1
 330 350 l 1
 150 650 l 1
 150 49 l 1
536 47 m 1
 536 652 l 1
 355 350 l 1
 536 47 l 1
342 371 m 1
 528 680 l 1
 157 680 l 1
 342 371 l 1
129 0 m 1
 129 700 l 1
 556 700 l 1
 556 0 l 1
 129 0 l 1
EndSplineSet
EndChar

StartChar: uni0256
Encoding: 714 598 577
Width: 592
Flags: W
HStem: -161 124<488.039 558> -12 117<131 271.856> 392 118<224.729 347.471> 648 20G<453.709 613>
VStem: 3 159<139.882 318.158> 317 169<-101.5 30.2656> 458 155<513 668>
AnchorPoint: "Anchor-1" 266 496 basechar 0
AnchorPoint: "Anchor-0" 188 0 basechar 0
LayerCount: 2
Fore
SplineSet
613 668 m 9xfa
 493 43 l 2
 487 11 486 7 486 -2 c 0
 486 -27 502 -37 541 -37 c 2
 584 -37 l 1
 558 -161 l 1
 461 -161 l 2
 367 -161 317 -130 317 -73 c 0xfc
 317 -69 318 -66 318 -62 c 2
 334 63 l 1
 296 14 245 -12 187 -12 c 0
 75 -12 3 67 3 191 c 0
 3 374 115 510 266 510 c 0
 330 510 384 476 405 421 c 1
 458 668 l 1
 613 668 l 9xfa
162 216 m 0
 162 147 195 105 251 105 c 0
 324 105 382 186 382 289 c 0
 382 351 346 392 293 392 c 0
 214 392 162 322 162 216 c 0
EndSplineSet
EndChar

StartChar: Eng
Encoding: 716 330 579
Width: 715
Flags: W
HStem: -161 124<326 433.123> 0 21G<-23 137.247> 648 20G<114.749 324.598 577.711 737>
VStem: -23 156<0 156> 582 155<513 668>
AnchorPoint: "Anchor-1" 456 668 basechar 0
AnchorPoint: "Anchor-0" 285 0 basechar 0
LayerCount: 2
Fore
SplineSet
737 668 m 9
 688 438 628 160 594 -3 c 0
 569 -122 522 -161 401 -161 c 2
 300 -161 l 1
 326 -37 l 1
 361 -37 l 2
 425 -37 432 -34 439 0 c 9
 396 0 l 1
 236 485 l 1
 133 0 l 1
 -23 0 l 1
 119 668 l 1
 318 668 l 1
 478 183 l 1
 582 668 l 1
 737 668 l 9
EndSplineSet
EndChar

StartChar: eng
Encoding: 717 331 580
Width: 579
Flags: W
HStem: -161 124<186 292.589> 0 21G<-20 140.252> 392 118<294.831 440.5> 476 20G<80.7661 222.562>
VStem: -20 156<0 156> 368 161<230.987 383.312>
AnchorPoint: "Anchor-1" 344 496 basechar 0
AnchorPoint: "Anchor-0" 218 0 basechar 0
LayerCount: 2
Fore
SplineSet
529 366 m 0xec
 529 322 527 310 454 -3 c 0
 426 -123 380 -161 261 -161 c 2
 160 -161 l 1
 186 -37 l 1
 229 -37 l 2
 281 -37 298 -25 307 19 c 2
 359 263 l 2
 365 289 368 311 368 328 c 0
 368 372 350 392 312 392 c 0xec
 250 392 209 346 190 254 c 2
 136 0 l 1
 -20 0 l 1
 85 496 l 1
 221 496 l 1xdc
 226 432 l 1
 262 482 323 510 397 510 c 0
 484 510 529 461 529 366 c 0xec
EndSplineSet
EndChar

StartChar: uni019D
Encoding: 718 413 581
Width: 715
Flags: W
HStem: -161 124<-140 -34.9708> 0 21G<389.402 599.251> 648 20G<114.747 324.598 577.711 737>
VStem: 582 155<513 668>
AnchorPoint: "Anchor-1" 456 668 basechar 0
AnchorPoint: "Anchor-0" 285 0 basechar 0
LayerCount: 2
Fore
SplineSet
236 485 m 9
 131 -3 l 2
 106 -122 59 -161 -62 -161 c 2
 -166 -161 l 1
 -140 -37 l 1
 -97 -37 l 2
 -45 -37 -28 -25 -19 19 c 2
 119 668 l 1
 318 668 l 1
 478 183 l 1
 582 668 l 1
 737 668 l 1
 595 0 l 1
 396 0 l 1
 236 485 l 9
EndSplineSet
EndChar

StartChar: uni019E
Encoding: 719 414 582
Width: 579
Flags: W
HStem: -161 21G<267 427.344> 0 21G<-20 140.252> 392 118<294.831 440.5> 476 20G<80.7661 222.562>
VStem: -20 156<0 156> 267 156<-161 -5> 368 161<231.266 383.312>
AnchorPoint: "Anchor-1" 344 496 basechar 0
AnchorPoint: "Anchor-0" 218 0 basechar 0
LayerCount: 2
Fore
SplineSet
368 328 m 0xea
 368 372 350 392 312 392 c 0xea
 250 392 209 346 190 254 c 2
 136 0 l 1
 -20 0 l 1
 85 496 l 1
 221 496 l 1xda
 226 432 l 1
 262 482 323 510 397 510 c 0
 484 510 529 461 529 366 c 0xea
 529 340 526 312 519 281 c 2
 423 -161 l 1
 267 -161 l 1xec
 359 263 l 2
 365 289 368 311 368 328 c 0xea
EndSplineSet
EndChar

StartChar: uni0272
Encoding: 720 626 583
Width: 579
Flags: W
HStem: -161 124<-137 -30.4107> 0 21G<303 463.27> 392 118<294.831 440.5> 476 20G<80.7652 222.562>
VStem: 303 156<0 156> 368 161<227.164 383.312>
AnchorPoint: "Anchor-1" 344 496 basechar 0
AnchorPoint: "Anchor-0" 218 0 basechar 0
LayerCount: 2
Fore
SplineSet
190 254 m 9xe4
 131 -3 l 2
 103 -123 57 -161 -62 -161 c 2
 -163 -161 l 1
 -137 -37 l 1
 -94 -37 l 2
 -42 -37 -25 -25 -16 19 c 2
 85 496 l 1
 221 496 l 1xd4
 226 432 l 1
 262 482 323 510 397 510 c 0
 484 510 529 461 529 366 c 0xe4
 529 340 526 312 519 281 c 2
 459 0 l 1
 303 0 l 1xe8
 359 263 l 2
 365 289 368 311 368 328 c 0
 368 372 350 392 312 392 c 0
 250 392 209 346 190 254 c 9xe4
EndSplineSet
EndChar

StartChar: uni01EA
Encoding: 721 490 584
Width: 763
HStem: -173 76<287 407.471> 550 130<332.615 492.994>
VStem: 32 169<193.68 402.666> 201 128<-120 -44.3272> 564 168<263.994 473.093>
LayerCount: 2
Fore
SplineSet
329 -75 m 0xd8
 329 -90 343 -97 372 -97 c 0
 385 -97 402 -94 423 -88 c 1
 407 -164 l 1
 387 -169 349 -173 326 -173 c 0
 248 -173 201 -144 201 -96 c 0xd8
 201 -62 230 -25 271 -7 c 1
 121 16 32 119 32 269 c 0xe8
 32 504 201 680 426 680 c 0
 616 680 732 571 732 393 c 0
 732 199 614 43 435 -0 c 1
 349 -40 329 -54 329 -75 c 0xd8
201 286 m 0xe8
 201 184 259 118 349 118 c 0
 471 118 564 231 564 379 c 0
 564 482 505 550 414 550 c 0
 295 550 201 434 201 286 c 0xe8
EndSplineSet
EndChar

StartChar: uni01EB
Encoding: 722 491 585
Width: 576
HStem: -173 76<183 303.471> 392 118<224.909 354.772>
VStem: 5 154<132.779 313.625> 97 128<-120 -44.6875> 381 155<184.738 364.893>
LayerCount: 2
Fore
SplineSet
225 -75 m 0xd8
 225 -90 239 -97 268 -97 c 0
 281 -97 298 -94 319 -88 c 1
 303 -164 l 1
 283 -169 245 -173 222 -173 c 0
 144 -173 97 -144 97 -96 c 0xd8
 97 -61 128 -24 171 -6 c 1
 67 17 5 96 5 204 c 0xe8
 5 384 127 510 302 510 c 0
 446 510 536 427 536 295 c 0
 536 148 457 35 330 -1 c 1
 247 -39 225 -55 225 -75 c 0xd8
159 206 m 0xe8
 159 140 189 105 245 105 c 0
 327 105 381 180 381 292 c 0
 381 360 352 392 292 392 c 0
 212 392 159 317 159 206 c 0xe8
EndSplineSet
EndChar

StartChar: uni0197
Encoding: 723 407 586
Width: 459
Flags: W
HStem: 0 124<13 105 267 331> 272 124<72 137 324 389> 544 124<129 195 355 447>
CounterMasks: 1 e0
AnchorPoint: "Anchor-2" 242 0 basechar 0
AnchorPoint: "Anchor-1" 301 668 basechar 0
AnchorPoint: "Anchor-0" 151 0 basechar 0
LayerCount: 2
Fore
SplineSet
-13 0 m 1
 13 124 l 1
 105 124 l 1
 137 272 l 1
 46 272 l 1
 72 396 l 1
 163 396 l 1
 195 544 l 1
 103 544 l 1
 129 668 l 1
 474 668 l 1
 447 544 l 1
 355 544 l 1
 324 396 l 1
 415 396 l 1
 389 272 l 1
 298 272 l 1
 267 124 l 1
 358 124 l 1
 331 0 l 1
 -13 0 l 1
EndSplineSet
EndChar

StartChar: uni0268
Encoding: 724 616 587
Width: 338
Flags: W
HStem: 0 21G<48 208.195> 205 98<10 92 268 330> 380 116<51 129> 578 179<207.412 323.786>
VStem: 48 156<0 156> 177 179<608.982 726.588>
AnchorPoint: "Anchor-2" 204 0 basechar 0
LayerCount: 2
Fore
SplineSet
-11 205 m 1xf8
 10 303 l 1
 113 303 l 1
 129 380 l 1
 26 380 l 1
 51 496 l 1
 309 496 l 1
 268 303 l 1
 351 303 l 1
 330 205 l 1
 247 205 l 1
 204 0 l 1
 48 0 l 1
 92 205 l 1
 -11 205 l 1xf8
EndSplineSet
Refer: 545 803 N 1 0 0 1 216 825 2
EndChar

StartChar: Tbar
Encoding: 725 358 588
Width: 617
Flags: W
HStem: 0 21G<158 323.191> 272 124<144 216 402 471> 529 139<87 270 430 644>
VStem: 158 161<0 161>
AnchorPoint: "Anchor-1" 395 668 basechar 0
AnchorPoint: "Anchor-0" 253 0 basechar 0
LayerCount: 2
Fore
SplineSet
118 272 m 1
 144 396 l 1
 242 396 l 1
 270 529 l 1
 57 529 l 1
 87 668 l 1
 673 668 l 1
 644 529 l 1
 430 529 l 1
 402 396 l 1
 497 396 l 1
 471 272 l 1
 376 272 l 1
 319 0 l 1
 158 0 l 1
 216 272 l 1
 118 272 l 1
EndSplineSet
EndChar

StartChar: tbar
Encoding: 726 359 589
Width: 391
Flags: W
HStem: 0 124<219.37 289> 205 98<12 69 245 333> 380 116<53 106 286 370>
VStem: 50 167<79.5 204.104>
AnchorPoint: "Anchor-1" 230 620 basechar 0
AnchorPoint: "Anchor-0" 143 0 basechar 0
LayerCount: 2
Fore
SplineSet
217 160 m 0
 217 135 233 124 272 124 c 2
 315 124 l 1
 289 0 l 1
 193 0 l 2
 151 0 116 8 89 22 c 0
 63 36 50 61 50 98 c 0
 50 111 52 129 57 150 c 2
 69 205 l 1
 -9 205 l 1
 12 303 l 1
 90 303 l 1
 106 380 l 1
 28 380 l 1
 53 496 l 1
 131 496 l 1
 157 620 l 1
 312 620 l 1
 286 496 l 1
 394 496 l 1
 370 380 l 1
 261 380 l 1
 245 303 l 1
 354 303 l 1
 333 205 l 1
 224 205 l 1
 219 185 217 171 217 160 c 0
EndSplineSet
EndChar

StartChar: kgreenlandic
Encoding: 234 312 590
AltUni2: 0003ba.ffffffff.0
Width: 562
Flags: W
VStem: 84 155<341 496>
AnchorPoint: "Anchor-1" 308 496 basechar 0
AnchorPoint: "Anchor-0" 218 0 basechar 0
LayerCount: 2
Fore
SplineSet
84 496 m 17
 -21 0 l 1
 135 0 l 1
 161 124 l 1
 229 184 l 1
 324 0 l 1
 487 0 l 1
 342 283 l 1
 586 496 l 1
 388 496 l 1
 203 327 l 1
 239 496 l 1
 84 496 l 17
84 496 m 1025
EndSplineSet
EndChar

StartChar: eta
Encoding: 231 951 593
Width: 579
Flags: W
HStem: -161 21G<267 427.344> 0 21G<-20 140.252> 392 118<294.831 440.5> 476 20G<80.7661 222.562>
VStem: -20 156<0 156> 267 156<-161 -5> 368 161<231.266 383.312>
AnchorPoint: "Anchor-1" 344 496 basechar 0
AnchorPoint: "Anchor-0" 218 0 basechar 0
LayerCount: 2
Fore
SplineSet
368 328 m 0xea
 368 372 350 392 312 392 c 0xea
 250 392 209 346 190 254 c 2
 136 0 l 1
 -20 0 l 1
 85 496 l 1
 221 496 l 1xda
 226 432 l 1
 262 482 323 510 397 510 c 0
 484 510 529 461 529 366 c 0xea
 529 340 526 312 519 281 c 2
 423 -161 l 1
 267 -161 l 1xec
 359 263 l 2
 365 289 368 311 368 328 c 0xea
EndSplineSet
EndChar

StartChar: Pi
Encoding: 208 928 594
Width: 790
Flags: W
HStem: 0 21G<42 174.239 446 578.251> 552 116<287 563>
VStem: 42 128<0 128> 184 532<136 668> 446 128<0 128>
LayerCount: 2
Fore
SplineSet
42 0 m 1xe8
 184 668 l 1
 716 668 l 1xf0
 574 0 l 1
 446 0 l 1
 563 552 l 1
 287 552 l 1
 170 0 l 1
 42 0 l 1xe8
EndSplineSet
EndChar

StartChar: Sigma
Encoding: 211 931 595
Width: 575
Flags: W
HStem: 0 128<144 482> 540 128<232 597>
LayerCount: 2
Fore
SplineSet
-53 0 m 1
 -26 128 l 1
 235 334 l 1
 62 540 l 1
 89 668 l 1
 624 668 l 1
 597 540 l 1
 232 540 l 1
 407 334 l 1
 144 128 l 1
 509 128 l 1
 482 0 l 1
 -53 0 l 1
EndSplineSet
EndChar

StartChar: Gamma
Encoding: 195 915 596
Width: 591
Flags: W
HStem: 0 21G<-27 105.239> 552 116<218 622>
VStem: -27 128<0 128>
LayerCount: 2
Fore
SplineSet
622 552 m 1
 218 552 l 1
 101 0 l 1
 -27 0 l 1
 115 668 l 1
 647 668 l 9
 622 552 l 1
EndSplineSet
EndChar

StartChar: Lambda
Encoding: 203 923 597
Width: 698
Flags: W
HStem: 0 21G<-65 131.938 455.485 623> 648 20G<317.204 515.323>
VStem: 458 165<0 165>
AnchorPoint: "Anchor-2" 623 0 basechar 0
AnchorPoint: "Anchor-1" 427 668 basechar 0
AnchorPoint: "Anchor-0" 296 0 basechar 0
LayerCount: 2
Fore
SplineSet
395 501 m 1
 121 0 l 1
 -65 0 l 1
 329 668 l 1
 512 668 l 1
 623 0 l 1
 458 0 l 1
 395 501 l 1
EndSplineSet
EndChar

StartChar: Xi
Encoding: 206 926 598
Width: 558
Flags: W
HStem: 0 139<-19 465> 275 136<116 445> 529 139<93 577>
AnchorPoint: "Anchor-2" 429 0 basechar 0
AnchorPoint: "Anchor-1" 197 0 basechar 0
AnchorPoint: "Anchor-0" 352 668 basechar 0
LayerCount: 2
Fore
SplineSet
116 411 m 1
 474 411 l 1
 445 275 l 1
 87 275 l 9
 116 411 l 1
-19 139 m 17
 495 139 l 1
 465 0 l 1
 -49 0 l 1
 -19 139 l 17
93 668 m 17
 607 668 l 1
 577 529 l 1
 63 529 l 1
 93 668 l 17
EndSplineSet
EndChar

StartChar: lambda
Encoding: 235 955 599
Width: 518
Flags: W
HStem: 0 21G<-70 103.516 283.129 448> 547 110<135 216.566>
AnchorPoint: "Anchor-1" 359 0 basechar 0
AnchorPoint: "Anchor-0" 296 496 basechar 0
LayerCount: 2
Fore
SplineSet
135 657 m 1
 184 657 l 2
 308 657 342 627 364 496 c 2
 448 0 l 1
 285 0 l 1
 256 310 l 1
 93 0 l 1
 -70 0 l 1
 225 493 l 1
 220 541 210 547 141 547 c 2
 111 547 l 1
 135 657 l 1
EndSplineSet
EndChar
